<svg xmlns="http://www.w3.org/2000/svg" width="249" height="521" fill="none"><path fill="#000" fill-rule="evenodd" d="m80.614 123.818-1.773.196c.464-1.092.85-1.633 1.904-1.84l-.131 1.644Zm-7.022.007c.587-.906 1.022-1.303 2.079-1.724-.198.598-.583 1.789-1.236 1.946-1.178.282-.708-.149-.843-.222Zm-2.2.231-1.522-.018c1.001-.931 1.169-1.166 2.358-1.789l-.836 1.807Zm1.501-.821.705-2.16c-1.522.098-1.703.494-2.788 1.147l.653-2.081c1.565.089 2.627-.018 4.213-.181 1.603-.162 2.362-.128 3.305 1.069l-1.392 1.01c1.013.503.04-.681 1.202.189-1.04.674-.817.82-1.177 1.815l-1.534-.015c.204-.656.311-.531.958-.946-.315-1.941-.178-.522.207-2.261-1.825-.198-2.887 1.608-4.35 2.413l-.002.001Zm-3.982-1.9c.375-1.517-.074-1.449 1.382-1.349-.245.69-.653.962-1.382 1.349Zm40.417-1.672c-.339.901-.333.928-1.124 1.415l1.124-1.415Zm-43.514 2.13.787-1.926 1.406.126-2.194 1.8Zm25.844-.198c1.05-.164.266-.122.494.278-.601.695-.675.824-.754 1.693 1.648-.07 2.92-3.176 3.256-4.379l1.465-.445c-.369 1.403-1.455 2.865-1.296 4.158 1.741-.183 2.185-3.247 3.875-4.161-.226.835-.528 1.391-1.05 2.102-.644.875-1.27 1.11-.98 1.952l1.174-.512c1.132 1.69 1.575.378 4.989-2.295-.439 1.181-1.775 2.392-1.718 3.698 1.154.335.42-.006.812.027.753.064.082-.326.656.125-.76.455-13.547.397-15.46.312.4-.916.97-1.107 1.672-1.971.884.824.076.363.897 1.288 1.16-.198 1.529-.931 1.968-1.871v.001Zm17.669-1.931c-.043-1.507 0-.556.308-1.031.998.512.98.381-.308 1.031Zm-5.538 3.875c.68-1.852 2.487-3.255 3.228-4.28.662-.918.268-1.193 1.596-.476-.607 1.125-3.49 4.049-4.824 4.757v-.001Zm-42.587-3.649c-.19-1.336-.345-.745.61-1.541l-.61 1.541Zm41.507 2.185c.302-.827.806-1.397 1.325-2.145.934-1.351.659-1.507 2.341-1.553-.595 1.395-2.484 2.807-3.664 3.698h-.002Zm-3.471-.216c.653-1.278 2.123-3.686 3.475-4.247l.842.504c-.327.784-3.381 3.232-4.317 3.744v-.001Zm.698-2.959 1.285-2.612c1.019 1.08-.525 1.354-1.285 2.612Zm-8.28 2.697-1.37.873c-.15-.717.453-.94-.038-1.855-.85.503-1.205.951-2.209 1.498.486-.827.507-.556.608-1.654-1.425.726 1.022-.675-.537.412-1.69 1.18-.367-.586-1.846.928-.04-.086-.125-.278-.159-.33l-.449-.628c-.189 1.544-1.763 1.15-1.354 2.478.9.301.97-.064 1.8-.574l-.302 1.361-4.43-.183 2.004-2.282c-1.6-.394-.921-.248-2.23.283-.58-.65-1.57-1.083-1.737-1.886 1.9.077 5.123.605 6.918.458 1.073-.089 5.593-.962 6.496-1.407 1.065-.524 1.25-.882 1.7-1.916.64-1.477 4.372-6.603 6.05-2.325l-2.777 2.558.787-2.286c-1.912.211-1.046.729-3.503 3.164-1.01 1.003-2.758 1.851-3.423 3.313Zm-29.15-8.729 1.285-2.64c.3 1.764-.1 3.515.393 5.108.434 1.407 1.657 1.4 2.439 3.167l-2.914 2.495c.509-1.291 1.224-2.071 1.205-3.527-.91.077-1.37.717-2.123 1.243l1.006-2.847c-.998-.007-.693.003-1.346.61 1.303-3.902 1.11-2.789.055-3.609Zm-1.254.393-.04-1.492 1.251-.964c-.17 1.053-.524 1.809-1.21 2.456Zm72.453-3.182c.03-.192.405-.512.229-.045-.129.342-.266.266-.229.045Zm-71.14-.445 1.186-1.889.208 1.669-1.395.22Zm-1.383.983-.256-1.389 1.465-1.235-1.209 2.624Zm72.777-3.793-.266-2.197c1.723.946.75 1.006.266 2.197Zm-72.353.793 2.123-4.491c.39 1.968-.333 3.887-2.123 4.491Zm-.241-1.586.107-1.956.97-.415-1.077 2.371Zm1.076-3.54c.238-.817.175-.454.531-1.132.696-1.333-.048-.609 1.056-1.327.119 1.964.115 1.327-1.587 2.459Zm-1.013-.033-.189-1.352 1.174-.626-.986 1.978h.001Zm72.669-2.008c.608.702.631.561 1.324.924-.479.962-.988 2.238-1.681 2.926l.04-6.112 1.31.208-.992 2.053-.001.001Zm-71.894-.842c.144-1.504.727-1.136 1.206-3.403.296-1.403-.266-.479.564-1.328l.044 3.408-1.812 1.322h-.002Zm-.866-.702c-.122-1.58-.564-1.574.632-1.882.229.56-.25 1.366-.632 1.882Zm72.378-2.2-.043-1.792 1.529-.345c-.305.812-.802 1.618-1.486 2.136Zm-.036-3.68c-.061-1.391-.052-1.177 1.275-1.876-.289 1.031-.415 1.296-1.275 1.876Zm-71.75.724c1.144-.009.921-.177 1.956-.576-.516 1.153-1.605 2.715-2.694 3.27l-.012-4.897c.62-.381 1.678-.85 2.443-1.192-.522 1.314-1.7 2.111-1.693 3.396v-.001Zm71.954-4.751c-.125-1.196-.396-1.087.605-1.281l-.605 1.281Zm-72.261-.26.467.891-.72.836-.089-3.255 2.252-1.154-1.91 2.683Zm.946-3.146 1.693-2.49c-.112 1.593.085 2.179-1.693 2.49Zm-.86-.17c-.141-1.245.044-1.44 1.22-1.935l-1.22 1.934Zm71.954-.126-.098-1.614 1.523-.571-1.425 2.185Zm-.293-4.232-.022-2.353 1.678.1c-.47 1.041-.643 1.603-1.656 2.253ZM63 79.287l1.245-1.746.082 3.928-1.489 1.053c.479-1.08.884-1.575 1.154-2.814l-.992-.42v-.001Zm70.258-2.344c.683-.344.198-.36.832-.033-.512.486-.03.668-.832.034Zm.229-2.026-.315-1.592 1.481-.367c-.327.97-.506 1.434-1.166 1.96Zm-1.363 21.665c.686 1.311.594.763.661 2.532.044 1.117.037 2.249-.079 3.359-.68-.387-8.311-6.963-8.94-8.232-.983-1.99 2.728 1.065-4.812-5.278-1.745-1.47-3.161-2.719-4.741-4.247-1.422-1.377-7.924-8.529-8.842-8.965.043 1.233 1.556 2.673 2.874 3.979l10.679 10.106c.894.814 2.929 2.29 3.674 3.076 1.449 1.538-1.708-.112 2.639 3.82 2.368 2.142 4.754 4.574 7.503 6.228l-.031 5.114c-3.592-2.294-11.729-11.53-12.32-11.634-.11 1.663 1.953 2.615 3.011 3.805l7.127 6.92c2.039 1.849 2.735 1.708 2.161 5.186-6.673 2.24-4.284 3.784-5.55 4.58-2.856.809-7.61.812-10.695 1.092-1.361.123-.646.156-1.674-.711-3.397-2.874-11.384-13.544-15.275-17.593L83.006 80.814c-.94-1.172-4.467-6.087-5.873-5.542.427.894 3.63 3.964 4.601 5.136 2.926 3.537 17.688 19.62 18.448 21.164.643 1.306 3.533 4.138 4.702 5.394 1.367 1.477 8.513 9.87 9.056 11.143l-7.695-.442c-1.095-2.716-5.971-8.477-7.842-11.244-.94-1.382-.598-1.571-1.882-2.887L80.962 85.668c-1.547-1.602-7.82-9.404-9.471-9.468.11 1.288 3.365 3.652 4.345 4.766 7.335 8.336 15.192 16.48 21.703 25.478 1.693 2.334 7.156 8.839 8.055 10.861-3.729.253-2.969-1.584-4.299-3.673-1.592-2.499-3.508-.815-5.077.448-.849.684-1.51.821-2.084 1.852-.66 1.184-.308 1.861-1.678 2.542-3.344 1.66-13.4 1.346-14.802.543-.088-.052-4.191-3.763-4.415-4-1.328-1.416-2.706-2.758-4.061-4.086-1.373-1.346-3.626-4.138-4.205-4.284.23 2.517 10.954 10.808 11.815 12.712-1.638.003-2.82.204-4.532.073-1.574-.119-2.816-.46-4.454-.457-.983-1.571.92.378-2.02-2.966-1.059-1.202-1.016-2.563-1.01-4.232.012-3.671-.134-6.951.022-10.634 2.632.349 18.655 17.777 20.073 17.667.059-.097 1.108.098-.906-1.306-3.344-2.334-11.97-11.744-16.406-15.341-3.713-3.011-2.843-3.27-2.718-8.8 2.502.082 20.779 22.463 23.21 22.897-.216-.779-17.3-18.475-18.252-19.428-1.428-1.431-3.436-3.002-4.412-4.854l-.351-.797c-.208-.903.143-1.492-.009-3.03-.293-2.944-.442-10.486 1.819-12.144 2.95-2.166 3.222-3.881 5.223-4.369 1.944-.472 15.61-.951 17.743-.671 2.23.29 4.568 1.626 6.413 2.817 2.12 1.373 3.464 4.397 6.063 1.706 2.309-2.39.583-2.494 6.12-3.112l13.176-.866c11.531-1.94 5.66.561 10.813 1.522l.019 6.094c-1.575-1.25-5.185-5.84-6.488-6.102-.558.97-.338 1.84.415 2.62.089-.222-.021-.515-.021-.579.003-.043-.007-.134-.003-.18l.008-.19c.074-.638-.077-.238.141-.567 8.967 8.265 5.852 7.164 6.203 22.218l-.543.235v-.001ZM63.651 74.415l2.05-2.48c-.128 1.043-1.244 1.967-2.05 2.48Zm34.654-1.02c1.273.372 3.464-1.102 4.192-2.151 1.362.42.583.747 1.742.28 1.159-.463.583-.93 1.48.083-1.092.799-1.864.335-2.999 1.793-2.746 3.534-2.105 2.502-5.995-.348.534-.802 1.617-1.242 2.475-1.671-.586 1.034-1.044.839-.895 2.014Zm31.898-2.633 1.058-.445.747.817 1.465-.482-1.281 1.495c-.973-.274-1.489-.628-1.989-1.385Zm-8.501-.22 1.489-1.1c.626.515.604.38.534.798-.809.437-.991.29-2.023.302Zm-12.336.413c1.254-.146 1.18-.452 2.233-.986.653.482.282.415 1.124.849 3.945-1.551.094 1.485 5.059-1.139 2.126.934 1.604.345 2.346.802-.486.404.085.22-.672.364l-6.16.167c-2.221.333-4.544.754-6.845.68l2.625-1.97c.296.451-.034.579.289 1.232h.001Zm-14.549 1.043-1.248-.864 3.701-2.01-2.453 2.873v.001Zm4.788.406c.906-1.144 3.352-2.948 4.814-3.33-.506.818-3.887 3-4.814 3.33Zm-7.809-1.923c.528-.753 2.032-1.596 2.947-1.974-.485.671-.857.78-1.421 1.391-.812.88-.404 1.325-1.526.583Zm38.515-.753c.788-1.526 2.09-1.407 3.063-2.444-.659 1.16-1.659 2.276-3.063 2.444Zm-68.53 2.553c.192-2.453 2.322-5.36 4.895-5.464-.379 1.757-.672 2.026-1.99 3.103-.809.66-2.182 2.008-2.905 2.361Zm5.34-4.484c.683-1.45.846-1.09 2.499-1.322 1.05-.146 2.01-.125 3.076-.04-.442.992-.235.605-1.737 1.035-2.075.595-.98-.708-3.838.327Zm14.783.949c1.105.457.43.04 1.245.009 1.632-.064-.5-.056 1.206.622 1.925-.494 3.43-2.145 5.681-2.569-.812 1.175-2.22 1.3-2.74 2.722 1.41.504 2.958-.943 4.284-1.52-1.638 2.93-3.28 2.119-8.083 2.273-19.898.641-9.569.846-17.825 5.416-1.278.708-.683.296-1.54.516-1.819.464-.452 1.62-2.328 3.073l.079-5.715 1.922-.699c-.686 1.14-1.239 1.281-1.434 2.752 2.063.122 1.82.437 4.767-2.978.268-.311 1.74-1.885 1.843-2.105.534-1.132-.558-1.654 1.792-2.093-.754.995-1.496 1.47-1.645 2.65 2.63-.448 1.462-2.16 3.723-3.188-.565 1.129-1.444 1.14-1.21 2.35.358.13.02.146.51.027.626-.15 1.132-.68 1.641-1.105l-.301-.866c1.483-.836 1.922-1.773 2.642-1.944 1.69-.406.846.119 1.004.452.637 1.244-1.291.884-1.807 2.532.918.323 1.986-.397 2.63-1.065 1.12-1.166.495-2.06 1.981-1.755-.817 1.095-2.041 1.02-2.19 2.868 2.34-.4 3.841-2.91 6.258-3.143-.687.977-1.477 1.184-2.102 2.48l-.003.003ZM61.88 65.152c.257.29.446-.66.302.757 0 .003-.446.988-.452 1.031l2.224.077c-.11.568-1.58 1.956-2.27 2.234l.195-4.098h.001Zm27.682.97c-.348.17-.62.433-.897.55-1.663.704-.931.078-1.224-.336l2.12-.214h.001Zm26.234-18.076c-.967-.281-.827-.183-1.013-1.239l1.013 1.24Zm-24.647-6.77c2.005-2.533 12.141-2.115 15.207-1.715-1.33 1.202-3.808.522-5.049 1.434.906.646 3.078-.098 4.32-.372 3.509-.779 3.192-1.358 3.946-.193-.43 1.321.183-.104-1.007.727-.027.018-.092.07-.115.092l-.324.304c-.42.275-1.525.486-2.096.614-3.867.872-11.302.78-14.881-.891ZM66.091 132.24c-.082-1.126-.747-1.837-1.105-3.073-.317-1.102-.46-2.761-.558-3.942 4.312-.424 14.45-.955 18.408-.504 9.605 1.102 26.876-.794 37.472-.259 2.55.128 16.681-.208 17.773-1.742-.928-.494-1.377.037-2.136-.577.693-1.159 1.517-.817 1.663-2.419-.784-.385-.427-.253-1.415-.061.434-1.221.723-.812.131-1.767l-2.239 1.563c.244-1.657 1.485-1.816 1.808-3.57-2.327.46-2.172 3.835-5.166 5.101.211-.799.333-1.202-.027-1.779-.817-.073-2.423 1.062-3.325 1.444l1.086-1.727c-2.447.019-1.385 2.072-3.89 2.465.464-.949 1.751-1.76 1.8-2.751-1.706-.061-1.971 1.519-3.56 2.349.613-.955 1.088-.797 1.41-1.926-1.297-.011-2.328 1.02-3.271 1.831.763-1.193 1.007-.25.695-1.706-1.69.341-2.724 1.971-2.743 3.56 1.822-.064.695-.613 2.255-.353.882.146 1.192.13 1.867-.815 1.18.525.052.215 1.174.885.787-.223.884-.446 1.407-.623 1.263-.43.289.198 1.525-.189 1.203-.372 1.4-1.397 2.896-1.859l-.397 2.115c1.343.558.857-.03 1.892-.146.052-.006.141.003.193-.003 1.373-.144 1.098-1.007 2.871-1.788-1.263 2.45-2.547 2.791-5.238 3.106-2.631.308-5.297.546-7.933.656l-16.547.196c1.062-1.648.546.03 2.093-.836.4-.222.025-.128.439-.314.918-.416.156.698 1.596.149.97-.724 1.321-1.584 2.529-1.856-.454 1.136-1.074 1.206-.928 2.353.937.07 1.221-.301 1.916-.931.553 1.141-.283.486.772 1.154 1.114-.43 1.819-1.471 2.566-2.346l-1.879 1.12c.594-1.459 1.437-1.174 1.76-2.752-1.462-.125-2.291 1.486-3.481 2.164.643-1.389 1.376-1.397 1.647-2.874-1.711.18-2.649 2.004-4.29 2.498.216-.589 1.413-2.242 1.712-2.666 4.243-.043 8.61-.085 12.834-.643 2.41-.317 3.881.519 4.536-2.157.764-3.125 5.389-3.408 3.479-1.105-.876 1.058-2.298 1.944-2.633 3.374l1.678.632c.897.457 1.467-.205 2.066-.95-.608-.323-.586.241-1.077-.006.385-.522.708-1.114 1.089-1.614.472-.623 1.278-1.148 1.553-1.544.958-1.397-.541-.083.494-1.737.524-.839 1.077-.65 1.117-1.693-.913.025-2.149 1.229-3.237 1.604.641-1.843 3.578-4.482 3.667-6.243-1.584.257-1.648 1.203-3.036 1.92.693-1.715 2.872-3.872 3.112-5.324l-1.856.662c.583-1.453 2.136-3.479 2.398-4.62-1.663.174-.86.519-2.334.986.583-1.621 1.675-2.306 1.983-3.787-1.703.012-.958.576-2.527.95.437-1.425 2.514-3.26 2.41-4.41l-2.48.989c.705-2.432 2.322-3.14 2.825-4.73-1.376.037-1.788 1.107-3.436 1.484.476-1.429 2.838-4.192 2.801-5.066-1.043.03-1.165.742-2.578 1.15.42-2.438 2.026-2.965 2.627-4.876-1.485-.25-1.514.379-3.051.653.672-2.05 3.198-3.982 3.664-5.415-1.294-.074-1.465.457-2.889.653.787-1.877 2.547-1.822 3.18-3.457-1.894.089-1.605 1.23-3.53 1.263.701-1.19 1.809-2.6 1.944-3.884l-2.75.647 3.222-3.798c-1.44-.138-2.612 1.12-3.963 1.504.494-1.548 2.41-2.023 3.252-3.36-.467-.357-.968-.311-1.721-.088.951-.891.601-.215.915-1.456-2.066-.24-4.272 1.703-5.412 3.299-.653.91-.729 1.01-2.005 1.05 1.124-1.623 4.004-2.228 4.247-4.227-1.51.272-2.194 1.18-3.35 2.072-.662.51-.854.591-1.581.958-.058.03-.961.437-.961.437-1.603.296-.437.204-.97-.193 1.233-.512 3.436-1.858 3.798-3.103-1.589.287-4.454 2.441-6.246 3.393l2.432-2.045c-1.343-.799-3.601 1.7-4.958 2.075.768-1.187 2.26-1.431 3.111-3.103-2.023.134-3.945 2.45-5.975 3.158.906-1.36 1.935-.988 2.273-2.517-2.115.397-3.649 2.545-5.834 3.021.824-.921 2.981-2.438 3.323-3.088-1.715.129-3.164 1.752-5.087 2.56.739-1.08 1.017-.505 1.548-2.022-1.706.204-3.616 1.72-5.203 2.513.589-1.086.983-.708 1.489-1.977-1.819.17-2.472 1.656-4.361 2.426.754-1.638 2.078-1.224 2.346-2.85-1.232.025-2.478.467-3.597.363-1.882-.17-1.504.034-2.917 1.276-1.44 1.266-3.405 3.027-5.422 3.555.842-2.175 3.783-3.338 4.87-5.507-1.864.094-3.344 1.696-5.05 2.272.742-1.421 2.09-1.214 2.588-2.883-2.109.164-5.06 2.578-7.033 3.649 1.15-1.852 2.892-2.1 3.481-3.75-1.733.23-2.547 1.105-4.056 1.51 1.096-1.138.464-.42 1.096-1.71 3.89-.053 7.869-.168 11.759-.327 3.472-.14 7.653.06 11.274.04 3.536-.022 7.552-.275 11.067-.59 2.242-.2 8.226.22 9.666-1.574-.827-.418-2.695.253-3.698.5-1.428.352-11.479.727-13.657.85-6.524.366-13.108-.07-19.671.17-3.616.134-7.958.586-11.531.315-1.321-.1-.833-.424-2.075-.244-1.532.22-2.566.668-4.296.57l-9.068-.085c-1.388.037-7.702.998-8.418.116-.605-1.233-.828-6.048-.23-7.47 2.598-6.145 13.722-3.496 18.73-8.238 4.25-4.021 5.01-5.215 6.843-11.116.745-2.395 1.337-4.84 1.682-7.347.214-1.565.231-2.64.314-4.168.089-1.544-.2-2.462.059-3.866.918-.26 2.996.775 6.59.936 3.29.146 3.189.49 7.031-.51 2.352-.61 1.796.013 4.119-1.314-.077 2.865.308 4.793.574 7.484l-2.23-.055 1.651.631c-1.727 1.233-8.2 1.355-10.56 1.944.76.88 4.551.354 5.564-.04 1.697-.656 3.717-.661 5.645-1.266.721 1.01 3.482 13.166 5.694 17.426-1.623-1.077-2.38-3.698-2.765-4.421-.82-1.56-.356-1.785-.747-3.213-.317-1.17-.641-.913-.738-1.87-.086-.852.482.493-.037-.694-2.416-.787-4.272.357-5.858-.799 1.486-.223 4.858-.231 5.84-1.184-.595-.668-1.087-.489-1.923-.723-.249.341-.052.097.163.558.006.015.043.088.048.1.007.009.052.06.046.098-6.121.75-12.703 1.473-18.344 4.09-2.539 1.181-4.05 5.887-5.581 8.188-1.459 2.187-5.831 4.137-8.43 5.056-1.334.47-10.92 1.421-12.413 5.553-.372 1.036-1.135 2.846-.204 3.53.805-.454.546-2.46 1.565-4.141.931-1.538 1.971-1.657 3.537-2.368 2.514-1.147 5.306-1.465 9.105-2.698 3.808-1.236 4.86-1.276 7.423-4.35 1.663-1.993 2.869-5.408 4.519-7.262 1.742-.29 3.484.342 5.181.705 1.807.387 3.867.315 5.303.65 4.006.934 8.102-1.492 9.847-1.184.39 1.276.504.87-.382 1.529 1.44.622.69-.11 1.139.915l-5.972 1.816c1.278-.177 5.486-1.93 6.246-.797.342.512-.045.489-.335.824-.457.53.827-.48-.315.305-.356.24-1.706.656-2.187.809-1.636.522-3.902.695-5.049 1.068 1.361 1.281 6.399-1.007 8.189-1.389.181 1.261.113-.363-.504.788 1.111.04 1.874-.16 2.639.43-.799 1.718-8.851 1.449-9.995 2.545 3.088.29 6.206-.727 9.19-1.21.873-.141 1.584.314 2.502.682-1.3.699-4.824 1.563-6.502 1.81-1.27.189-1.596-.312-2.231.204 1.812 1.837 8.562-.986 9.859-.126-1.621.58-4.755.958-5.981 1.965.794.653 5.669-1.266 7.18-1.467-1.752 1.65-5.501 2.126-7.375 3.712 1.644.83 6.867-3.039 9.071-3.533l2.609-.824c-1.261-.375-5.257-2.383-5.736-3.466 1.281-.473 3.036 1.604 4.272 2.163 4.607 2.082 12.968 1.563 15.915 5.716 3.162 4.449 1.288 20.05 1.757 26.057.327 4.125-.036 10.02-.1 14.328-.037 2.28.476 4.488.42 6.741-.06 2.465-.088 4.829.04 7.301a44.814 44.814 0 0 1-.214 7.021c-.482 4.239.543 9.298-.934 13.557-.693 1.998-2.154 2.609-3.118 4.156-2.774-1.294-5.096-1.05-5.962-1.648 1.779-.189 5.223.32 6.27-1.18-.693-.885-1.467-.895-2.584-.818.665.431 1.129.385 1.147.836-1.822.924-9.507.335-11.259 1.107.461.866 3.527.43 5.252.616 1.877.202 3.631.486 5.416 1.002-2.399 1.907-3.357-.163-5.178.49l-1.742.257c-.345-1.636.522-.059.509-1.325-.742-.198-1.244.037-1.837.561l.412 1.285c-3.652.338-3.265.797-4.516.934-1.306.146-3.741-.116-5.309-.04-1.846.089-2.639.308-4.565.149-1.663-.137-3.478-.104-4.543-.488a1.037 1.037 0 0 1-.196-.089c.653-1.462 1.37-.97 2.224-1.993-.884.025-1.4.174-2.151.695-1.638 1.144-.092.369-1.209 1.611-1.166-.024-1.166.211-2.075-.299.216-1.614.632-.61 1.697-1.685-1.636-.894-2.139 1.831-4.165 1.968-2.542.171-2.948-.936-.534-1.968-.03-.024-.327-1.009-1.789.144-1.016.802-.366.916-1.001 1.852l-4.781.046c.513-1.489 1.706-1.154 2.783-2.042-1.11-.604-2.972.906-3.536 1.965l-2.252.058 1.543-1.678c-2.12-.934-.96 2.353-4.564 1.69.385-1.492.54-.69 1.418-1.755-1.21-.646-1.91 1.099-2.691 1.88l-2.46-.077c.369-1.288.794-.69 1.517-1.745-2.783-.327-.583 2.309-5.114 1.77.601-.443.849-.766.946-1.477-2.282.278-1.016 1.745-4.15 1.623-6.645-.263-4.375-.898-6.733-2.264-1.077-.623-.97-.876-1.651-1.459-1.484-1.266-.538.26-2.25-2.23-.576-.836-.222-.159-.83-.858-1.532-1.763-2.056-7.896-2.39-10.337l1.31-1.017c.583-.656.345-.708 1.226-1.19-.546 1.425-1.666 2.798-1.529 4.354 1.263-.312 1.963-2.258 3.247-2.978-.489 1.321-1.281 1.827-.988 3.244 1.352-.171 1.953-1.678 3.405-2.457-.387 1.278-.882 1.455-.946 2.859 1.366-.144 1.537-1.367 2.932-2.154-.394.946-.873 1.566-1.273 2.496-1.516.162-5.214-.491-6.154.219.42 1.032-.14.22 1.069.842-.061 2.008.946 5.767 2.553 6.994l.008.006ZM97.274 9.88c-.983.282-1.373.262-1.73 1.067 2.527 1.148 12.096-2.675 14.313-4.47L109.116 6l1.028-.903.62 14.274c-1.029 1.003-5.486 2.926-7.024 3.01 1.211-.642 4.095-1.364 4.361-2.808l-2.594-.045c.757-.687 1.388-.764 2.468-1.214-.333-.754.061-.15-.884-.986l-.385-.309c1.239-.423 2.343-.787 2.684-2.071l-2.553.263c1.348.57.845-.385.986.656-2.844 1.395-5.706 2.987-8.772 3.674 2.926.253 5.148-1.792 8.061-1.91-.763 1.088-8.162 2.824-9.26 3.71 1.968 1.001 6.569-3.13 8.949-1.092l-7.149 3.185c.754.278 1.333-.427 2.124.232-1.968.542-2.42-.052-3.092-.083-1.217-.058-2.038.632-6.105-.661-4.552-1.444-5.086-.454-5.068-5.535.809.653.86.76 1.9.913-.457-1.636-1.687-.931-1.692-2.573.954-.524.182-.045 1.217.082.231-1.696-.787-.613-1.321-1.944l.204-1.996c.064-.018.153-.048.223-.063.073-.015.167-.027.238-.04.003 0 .738 0 .775-.004-.367-1.123-.354-.195-.653-1.254-1.154-4.057-1.01-.442-.94-4.79l1.291 1.019c-.738.248-.85-.561-1.003.842 1.022.339 1.452-.207 2.102-.375 1.803-.47 6.678 2.453 18.698-.97-2.416 2.21-8.024 4.116-11.273 4.495-.226-.58.234-.324 0-.846l-.003-.003Zm5.752-8.48c.925-.375 2.75.025 3.607.561-1.199.583-1.04.183-1.892-.164-.812-.33-.991-.077-1.715-.397ZM88.64 5.33c.412-2.862 9.242-4.85 10.886-4.128l-5.23 1.2-.128 1.461c2.37-.092 2.944-1.232 4.766-.98.835.116.125-.145.765.248l-2.676.491c.232.687-.445.695 1.206.486 1.31-.168 1.822-.665 4.93-.818-1.254.998-2.304.174-3.363 1.2.528.466-.229.67 2.454-.061.738-.201 1.569-.335 2.337-.494 1.471-.302 3.574-.992 4.855-.339.695 1.67-1.946 2.276-3.326 2.413.79-.66 1.724-.906 2.191-1.519-1.31-.927-7.116.712-7.769 1.404.348.25.122.159.605.333.68.25 1.177.077 1.983-.067 1.019-.178 2.029-.287 3.061-.397-.846.928.085.25-1.05.714-2.631 1.068-14.18 1.003-16.498-1.144V5.33Zm.875 17.795c.012 2.499-.39 8.147-.894 10.6-.653 3.17-1.65 6.09-2.71 9.132-1.138 3.286-2.59 4.458-5.214 6.563-3.128 2.514-4.873 2.45-8.675 3.125-8.614 1.529-11.188 3.07-11.173 12.305.012 7.705-.052 14.807-.4 22.47-.278 6.035.064 10.716.059 16.595 0 1.963-.446 3.522-.324 5.621.113 1.858.476 3.659.146 5.511-.46 2.58-.433 2.419.046 4.973.626 3.348.381 6.868 1.586 10.21 1.021 2.829 3.542 4.312 5.645 6.142 3.902 3.403 9.681 2.231 15.363 2.228.958 0 1.577.164 2.465.14 1.596-.045 1.187.101 2.383.248.794.097.608-.419 1.859-.491 1.088-.061 1.433.338 2.706.174 2.368-.305 3.646-.311 6.014-.345 3.606-.055 7.795.141 11.399.454 3.92.342 18.25-.266 22.185-1.053 3.186-.635 5.026-2.636 6.099-5.667 1.215-3.432.995-7.011.849-10.575-.077-1.892.281-3.661.26-5.507l-.067-11.806c.07-1.779-.336-3.704-.367-5.602-.064-3.935-.058-8.147.107-12.077.089-2.102-.152-3.64-.216-5.642-.171-5.12 1.688-22.61-2.792-26.189-4.531-3.622-11.002-1.874-17.697-6.173-2.008-1.29-1.697-1.028-2.878-3.026-.747-1.266-1.971-1.931-2.553-3.36-1.501-3.663-4.242-16.416-3.549-20.104 2.362-1.357 2.239.269 2.539-1.637l-.626-13.634c-.009-2.337.485-1.656-.571-3.664-.998-1.9-1.154-1.192-2.947-1.818-5.938-2.063-10.594-1.355-16.318.6-2.557.873-4.818 2.253-4.714 5.157.094 2.718.385 6.93.223 9.505-.092 1.459-.144 2.789.14 4.247.312 1.621 1.38 1.681 2.613 2.371Z" clip-rule="evenodd"/><path fill="#000" fill-rule="evenodd" d="M132.911 60.087c.641-.333.676-.366 1.44.015-.898.282-.598.339-1.44-.015Zm-14.476-4.424c1.532-.986 2.973-1.904 4.592-.961l-4.592.961Zm4.999-1.474c.457-.25.43-.316 1.214-.14-.747.522-.25.631-1.214.14Zm-10.033 3.003c1.444.32 1.124.018 2.295-.33 1.232-.369 1.287-.092 2.597-.196 2.701-.21 3.493-1.324 4.55-.793-1.586.763-2.502.089-3.695 1.123 1.861 1.215 6.886-2.047 9.816-.509-1.86 1.187-6.798.763-7.813 1.916 1.773.763 10.273-1.864 12.608-.842-1.261.879-6.42 1.242-7.796 1.964.781.732.891.354 3.348.201 1.138-.07 2.257-.384 2.887.317-.312.65-.473.717-2.072.864-.988.092-1.867-.116-2.374.583.875.519 3.789.18 5.025.226-1.177 1.025-3.789.946-5.303 1.74.531.384 8.01-.97 8.515-1.685l-2.197-.598c1.047-.467 1.776-.275 2.701-1.087-.576-.701-1.324-.586-2.352-.668-.464-.033-1.065-.048-1.501-.088l-1.388-.342c1.403-.427 4.189-.405 4.821-1.73l-4.733-.363c.866-.245 1.422-.1 1.846-1.04-1.48-.538-4.019-.107-4.937-.543.833-.54.983-.12 1.233-1.022-1.593-.293-.538.281-1.926-.323-2.539-1.105-1.629-.226-3.607-.454-1.251-.146.556.192-.851-.69-1.159.375-1.748.064-2.597.742-.698.558.348.222-2.237 1.397-.986.448-4.406 1.714-4.861 2.23h-.002ZM124.184 113.106c-.556-1.229-10.457-12.003-12.727-14.398-1.294-1.367-.946-1.547-1.8-2.698L92.399 76.757c-.82-1.032-1.294-2.3-2.39-2.306.183 1.656 15.513 18.133 16.864 19.57 1.16 1.23 1.278.825 2.027 2.494.415.934 1.147 1.745 1.949 2.517 2.639 2.539 11.619 13.349 13.334 14.075l.001-.001ZM95.015 108.982c-.745-1.467-2.279-2.557-3.32-3.719-.853-.95-2.107-2.921-2.99-4.037-1.055-1.337-2.163-2.45-3.252-3.772-1.043-1.26-.943-.726-1.846-1.5-.58-.498-13.077-15.403-15.234-16.697.338 2.042 4.815 5.7 6.417 7.521l13.084 15.003c1.303 1.465 5.639 6.96 7.143 7.201h-.002ZM92.626 111.894c-.04-1.418-10.942-12.65-12.177-13.923-1.938-1.992-11.547-13.214-13.374-13.056.107 1.21.43.771 1.382 1.455.522.375 1.187 1.14 1.703 1.663l9.728 10.222c1.294 1.44 12.097 13.566 12.738 13.639ZM89.74 113.729c-.196-.851-5-5.111-5.999-6.136-2.026-2.083-3.918-4.275-6.029-6.325l-8.842-9.7c-.46-.527-1.159-1.073-1.498-1.58-.629-.943-.3-1.37-1.459-1.444.119 1.422 20.868 23.84 23.827 25.185ZM103.908 99.145c.07.04.186.003.223.1l1.311.7c2.335 2.068 9.48 10.373 11.788 12.934l3.298 3.436c.824.851.538.921 1.63.689-.226-.557-3.867-3.863-4.702-4.924-2.786-3.546-6.652-7.21-9.517-10.417-1.117-1.244-3.374-4.638-4.967-4.974-.012.987.552 1.358.936 2.457ZM132.128 96.576c-.577-1.013-4.021-3.712-5.102-5.015-.812-.98-1.172-2.157-2.023-3.048-1.379-1.44-.204.991-2.899-1.578-1.678-1.602-3.248-3.451-4.894-5.211-.873-.934-4.123-4.937-4.806-5.352-.419 1.556 3.066 4.192 4.119 5.47 1.407 1.707 5.682 6.415 7.672 7.488 1.425.77 4.375 6.054 7.933 7.246ZM116.65 99.09l-16.639-18.146c-.348-.449-.784-.946-1.117-1.416-.653-.93-.235-.958-1.251-1.077-.119 1.789 7.552 8.834 9.008 10.735 1.428 1.867 8.189 9.153 9.999 9.904ZM120.303 95.99l-8.846-9.083c-1.41-1.548-7.802-8.63-8.909-9.206.219 1.462 6.929 8.25 8.412 9.7 1.815 1.775 7.182 8.192 9.343 8.589ZM103.992 96.266 86.911 76.343c-.641-.864-1.715-2.405-2.77-2.432.403.77.591.562 1.113 1.303l8.41 10.115c1.7 1.938 8.693 10.203 10.329 10.939h-.001ZM132.005 91.766l-3.923-5.175c-.506-1.095.128-1.016-.986-2.358l-.327.888c-3.115-.976-9.319-9.199-11.354-9.428.022.646.027.61.412 1.226 1.321 2.118-.177-.88 3.319 2.584 1.053 1.04 3.195 3.252 4.309 4.116 1.15.894 3.924 2.713 4.665 3.763.861 1.214 2.566 4.158 3.884 4.384h.001ZM121.108 73.517c-.467 1.102.857 3.021 1.708 3.97l-.793-2.201c2.843 1.432 7.869 10.163 10.292 10.002-.32-1.904-1.432-1.19-2.829-2.925l-5.544-6.252c-.754-.769-1.898-2.81-2.835-2.594h.001ZM127.942 111.806c-1.278-2.475-7.283-7.228-9.605-9.594-.522-.531-2.911-2.899-3.299-3.009.129 1.69 4.791 5.019 6.136 6.355 1.348 1.337 5.526 5.538 6.767 6.246l.001.002ZM132.252 129.454c1.071.396 1.281-.079 2.529.842-2.045 1.407-10.75 1.629-11.759 1.859-.028.954.641.393-.354 1.14.909-.037 1.779-.604 3.249-.735 1.91-.171 9.068-.72 10.108-2.264-.686-1.315-3.704-.888-3.774-.842h.001ZM88.776 130.409c3.635-.317 10.624 1.959 13.593 1.589-1.339-1.395-5.055-1.08-6.884-1.321-2.031-.266-5.205-2.319-6.71-.268h.001ZM123.992 126.641c1.226.553 5.133.116 6.622-.137 2.953-.504 5.775-.238 6.249-1.071-1.574-.523-4.639.238-6.38.445-2.249.266-5.913.009-6.49.763h-.001ZM106.84 13.726l-7.29 2.85c-1.465.46-1.97-.193-2.758.824 1.117.61 11.232-2.792 11.945-3.93l-1.91-.238c-.297.607-.092-.06-.055.296.091.89.274-.591.067.198h.001ZM107.546 33.8c-1.633.23-8.397.627-9.083 1.572.802.326 9.688-.918 10.624-1.404-.424-1.05-2.13-1.083-3.292-1.028 1.244.504.731-.372 1.751.86ZM135.482 127.768c-1.782-1.053-7.03.283-9.636.754-2.914.524-2.289.025-2.768.931l12.404-1.685ZM96.117 14.574c1.751 1.604 12.516-1.615 12.903-3.894-1.31.397-4.025 1.99-5.703 2.661-2.187.88-4.83 1.641-7.2 1.233ZM95.743 30.191c3.164.86 5.783-.088 9.132-.238 1.196-.055.354.131 1.214-.381 1.022-.608.677-.14 1.025-.94-.832-.363-1.147.216-2.301.534-.961.266-2.066.385-3.066.583-2.795.55-5.608.097-6.005.442h.001ZM97.371 25.544c1.025 1.006 6.236-.33 8.342-.794 1.214-.268 1.785-.385 2.029-1.465-1.12.308-.924.708-2.127.986l-5.248 1.007c-1.434.21-2.148-.357-2.996.266ZM97.072 12.802l6.848-1.133c1.452-.43 4.717-1.503 5.601-2.648-1.477.021-4.073 1.64-5.837 2.178l-6.612 1.603ZM75.122 132.26c-1.422-.534-2.234.626-6.014-.241-1.781-.408-1.3-.04-1.674.352 2.252.405 5.889 1.495 7.69-.111h-.002ZM116.993 121.582c.793-.623 1.263-1.095 1.678-2.038-3.403.356-3.823 6.358-.732 2.328-.647-.349.082.058-.473-.079-.445-.111-.088.073-.472-.211h-.001ZM118.061 137.063c2.148-1.002-1.685-.037 2.873-1.935-.427-.323.009-.677-1.327-.231-.906.302-2.82 1.129-1.547 2.167l.001-.001ZM78.807 131.698c.845.468 3.679-.353 4.62-.842-.855-.601-3.698.208-4.62.842ZM113.937 137.494c1.006-.159.677-.601 1.656-1.257.665-.446 1.37-.727 1.959-1.169-.412-.216-.018-.552-1.184-.03-1.006.454-2.453 1.355-2.431 2.456ZM97.764 28.672c1.562-.095 8.89-1.367 9.651-2.243l-9.651 2.243ZM113.511 133.367c-.693-.21-1.449-.262-2.191-.335-2.356-.241-1.641.074-1.977.382.814.174 1.428.208 2.261.271 1.15.089 1.217.309 1.907-.316v-.002ZM103.087 131.914c.775.657.665.452 1.791.61.776.107.864.327 1.493.015-.714-.983-2.094-.683-3.284-.626v.001ZM84.026 130.575c.613.433.757.283.88.293 1.733.097 1.94-.546 2.104-.69-1.202-.074-1.989-.229-2.984.397ZM110.704 137.049c1.608-.144.351.097 1.352-.714.622-.506.231.101.835-.628-1.443-.037-2.083-.101-2.187 1.343v-.001ZM88.001 19.083c.097.317-.323.543.638.809 1.233.342 1.003-.168 1.135-.248-.747-.582-.998-.949-1.773-.56ZM88.16 13.35l1.183.505-.728-1.786c-.69.577-.642.349-.455 1.282ZM117.344 133.727c.732.712 1.638.58 2.304-.033l-2.304.033ZM203.069 303.993l-2.853-.278c.935-2.113-.331.938-.083-3.064.083-1.339.043-2.888.155-4.202.708-.502 2.783-1.788 3.64-2.002-.385 2.061-.176.912-.105 2.568l-.025.257c-.109.555-.054-.191-.202.558l-.527 6.163Zm-13.063-18.766 3.655.049.444 5.641c-1.689-.415-3.055.069-3.806-.321l-.293-5.369Zm20.908 4.867c-1.553.52-5.527 3.12-6.826 3.395l.459-5.534c1.291-.479 4.551-3.207 6.505-3.869l-.137 6.008h-.001Zm-6.76-2.534-2.141.945c.198.193-.306.56.894.14.738-.258.201-.278 1.279-.326l-.301 5.392-3.342 1.76.71-11.431c.576-.418 2.443-1.469 3.294-1.633l-.393 5.153Zm2.927-5.056c.053-.738.329-1.23.52-2.099.703-.262 1.128-.529 1.653-.84.948-.563 1.055-.781 1.763-.762l.105 4.707c-1.416.466-5.089 2.983-6.538 3.517l.328-5.076c.632-.244.98-.631 2.29-1.149l-.12 1.702h-.001Zm-13.68-3.042c.683.26 5.881.378 7.306.431l-.146 3.542-.626.537.693.647c-.698.721-.31 1.312-.39 2.517l-.486 8.595c-.565.406-.334.066-.723.624l.631.82-.7 6.225c-1.607-.303-2.481-1.093-3.718-1.67l-4.422-1.144-.151-2.624c1.063.028 1.928-.109 2.985-.012 1.039.094 1.653.481 2.356-.161-1.081-1.108-3.706-.41-5.389-.489l-.311-5.958c1.503.077 6.553.453 7.516.151-.535-.935-2.358-.808-3.352-.604l-.392-5.641c2.382-.217 4.011.204 4.648-.378-.979-.901-3.533-.158-4.753.087-.021-1.757-.601-3.746-.576-5.496v.001Zm18.123 3.492-.059-4.715c1.281-.359 4.421-2.483 6.319-3.079.048 5.838.493 4.465-1.521 5.468-1.037.515-4.007 2.252-4.74 2.326h.001Zm-3.783-3.176c.102-1.075.433-1.905.762-2.985.344-1.13.39-1.797 1.551-2.223.034.043.087.053.099.132.026.14.701.537.762 3.403-.535.468-2.369 1.454-3.173 1.673h-.001Zm17.717-1.469c.278.718.509.682.351 1.561a6.57 6.57 0 0 1-1.432 3.113c-.236.295-1.148.691-1.408.84l.42-2.643c-1.238.716.079 2.55-2.058 3.489-1.357.596-2.583 1.426-3.968 1.903.137-.688.084-.322.161-.545.26-.759.43-1.228.12-1.745-.332.894-.044 1.543-.527 2.506l-5.859 3.003c.079-2.114.164-4.001.258-6.138 1.719-.84 4.421-2.662 6.261-3.197l-.196 3.523c.55-.963.499-2.578.583-3.914.899-.314 1.775-.744 2.654-1.251.874-.505 1.791-.757 2.723-1.299.28.329.105.005.189.512l.489-.912c.705-.27 1.283-.548 1.933-.744-.191 1.019-.337 1.147-.693 1.939l-.001-.001Zm-24.635-2.04.054-2.68c.078-.644-.044-.318.356-.594.351.583.034 2.117-.224 2.853-.135.39-.142.339-.186.421Zm-14.38-4.093 2.055-.025c.406 2.035.813 5.387.716 7.522l.041-.066c.021 1.062.224 1.614.252 2.595.028 1.011-.049 2.109.061 3.08.208 1.846.397 3.848.347 5.496l-2.17.018c-.155-1.635-.12-3.138-.27-4.681-.046-.472-.015-.166-.105-.515l-.15-.474c-.65-2.659-.265-12.103-.778-12.948l.001-.002Zm1.521 21.333c.109-.634-.155-1.395-.12-2.28l2.17.41.252 5.761-4.012.239c.041-2.264-1.156-16.953-1.404-17.689.25-.234-.03-.109.41-.251.077-.026.484-.062.551-.066l-.968-.062-.924-7.411 2.117.021c-.403 2.039.155 3.408.193 5.303.04 1.996.03 3.95.064 5.952.056 3.275.588 4.824.71 6.63.018.278-.025.421-.031.678 0 .064-.01.226-.005.288.003.043.013.096.021.137.331 2.354.086 2.094.975 2.34h.001Zm12.888-21.351c.021-.163.548-.784.291-.056-.077.217-.349.548-.291.056Zm14.246 1.449c1.207-.476.527-1.424 1.93-1.943.25.211.452.204.624 1.124.115.608.117 1.215.051 1.831l-6.361 3.194c.13-1.678-.295-2.481-.685-3.807l5.262-2.491-.823 2.093.002-.001Zm12.027.602c-.033.043-.092.048-.107.121l-.509.775c-.295.688.056.471-.502.907-.179.137-.8.425-.963.486-.952.36-.512.298-1.075-.036-.441 1.159-.066.489-2.575 1.711-.864.421-2.241 1.162-3.199 1.432l.031-4.873c1.982-.734 4.144-2.045 6.171-2.797.105 1.472-.208 2.67-.417 4.167l.555-1.923c.195-1.956-.581-2.718 3.03-3.724-.109 1.556-.451 2.111-.44 3.752v.002Zm-9.638-3.471c1.421-.663 6.07-3.103 7.207-3.307l-.071 3.907c-1.125.734-5.069 2.466-6.431 2.94-.212-1.781.033-2.152-.706-3.54h.001Zm10.262-.767c-.951.365-1.742.951-2.922 1.18l.179-4.129 2.875-1.243-.132 4.192Zm1.179-9.493 1.745-.507c-.155 1.121-1.072 4.162-1.605 4.934-.889-.332.189-.136-.759-.652-1.424.558.589.688-1.097 1.485-.825.389-1.314.835-2.132.851l-.084-2.168c-.691-.204-.716-.137-1.134.198.23.591.678.393.795 2.473a79.739 79.739 0 0 0-4.704 2.048c-1.391.663-12.127 5.367-12.834 6.432-.026.037-.049.092-.072.132-.022.041-.048.097-.071.137l-.208.453c.759-.155.736-.313 1.711-.722l-.823 3.782c-.278 1.044-2.027 1.813-2.736 1.89l.66-7.178c.158-1.087.257-1.424-.866-1.466-.598 2.541-.152.713.072 2.211l-.288 6.533c-.26.713-2.303 1.493-3.123 1.732.204-2.142.448-.563.092-2.531l.326-7.565c1.001-.58 1.856-.102 2.714-.613-.185-.459-.392-.507-.71-.866l21.937-9.697c1.047-.409 2.422-.825 3.194-1.324v-.002Zm-79.529-5.921c1.172.04 1.093 1.329 3.706 2.34 2.338.907 3.356 1.717 6.319 2.937l2.152.93c.68.251 1.689.501 2.157.907.54.465 1.391.613 2.213.858l14.284 4.167c1.589.412.901-.285 2.373-.145 1.072.102 1.946.178 3.008.343l.421 4.723c-1.004.018-1.719-.049-2.641-.1-.846-.043-1.61.041-2.256.464l1.846.319c.11.216.102.053.294.611.952 2.766 1.403 8.828 1.722 11.872.094.922.254 2.144.359 3.023l.372 6.653c.058 1.212.354 2.078.341 3.327l-1.865.092c-.626.15-.364.093-.708.42l6.846-.257-.068 3.018c.007.25.362 1.89.374 2.913-.784.036-6.122.273-6.902-.234l-.257-1.31c.781-.161.595.102.848-.533-.446-.31-.199-.173-.942-.176l-.248-.463c-.05.387-.05.257-.163.448-.548-2.674-1.197-5.611-1.528-8.387-.496.708.543 3.497.379 4.345l-1.022.326 1.116.157.678 3.944c-1.605.262-2.486.914-3.829 1.115l-.18-4.2c-.164.399-.043-.408-.122.44l.105 1.398c.01.071.05.263.058.323l.112 1.342c.006 1.184.199.828-.693 1.014l-.236-.8c-.056-.39-.087-.741-.128-1.067-.285-2.271-.675-4.266-.743-6.535l-1.748-12.521c-.232-1.487-.58-2.526-.858-3.876-.272-1.332-.57-2.476-.865-3.856-.181-.846-.168-3.569-.895-3.564-.278.322-.535-.555-.207.759.093.37.217.255.347.925.143.718.209 1.385.362 2.116.899 4.317 1.747 6.918 2.44 11.737.39 2.723.754 5.618 1.147 8.293l.978 8.607c-2.089 1.118-1.394 1.006-2.305 1.465-.146-1.267-.387-1.055.594-1.154l-.769.013c-.112-3.225-.548-5.973-.961-8.983-.451-3.284-.639-6.304-.957-9.582-.265-2.708-1.243-6.424-1.366-8.821-.122-2.445-.817-4.514-.797-6.981.01-1.299.28-1.638-.802-1.781l2.083 13.884c.291 1.553.405 3.046.596 4.715a137.9 137.9 0 0 1 .464 4.926l1.339 12.783c.099.58.161.372.161 1.124-.66.369-3.25 1.289-4.053 1.487-.873-5.091-1.398-10.326-1.89-15.402-.046-.471-.012-.637-.178-1.052-.267-.67-.25-.436-.477-.502.227 1.437.466 2.333.576 4.027.264 4.071.948 9.027 1.612 13.115-.738.777-1.722 1.05-2.631 1.729-.746.561-2.219.877-2.55 1.809 1.332.415 1.674-.466 2.726-1.022l2.659-1.472c.28 1.017.695 3.617 1.796 3.92.229-.542.151-.626.152-1.332-.043.025-.102.031-.12.089l-.499.176-.957-3.048c.845-.673 2.786-1.559 3.947-1.758.041.935.003 2.398.553 2.95.576-.171.695.366.275-1.276-.196-.772-.329-1.202-.313-1.995l2.18-1.023c.512 1.772.533 3.805.762 5.542.145 1.106-.158 1.156.752 1.355.535-1.098-.397-4.297-.074-5.99-.285.4-.224 1.013-.505 1.599-.501-.616-.532-1.951-.479-2.712 1.004-.626 3.011-1.635 4.376-1.887l.433 1.41c-.935-.183-1.921-.353-2.575.125.639.151.741.133 1.531.158 1.202.038.606-.097 1.431.486.558-.244.639-.433 1.424-.437.691-.006 1.314.012 1.837.163.13.688.109 1.172.208 1.867.263 1.862-.117 1.36.632 1.587l-.54-3.563 3.752.323c.288 1.266-.456 5.58.737 5.361.392-.802-.192-4.343-.295-5.292 1.378.037 2.524.662 3.556.185-.258-.705.402-.234-.523-.591-2.526-.973-3.408.942-3.199-2.931 1.582.028 6.577 1.839 7.947 2.626a23.67 23.67 0 0 1-.394 3.036c-.39 2.026-.204 8.11-.403 10.705-1.558 1.22-7.852.081-10.01-.165-.96-.109-1.963-.025-2.72-.196-.651-.151-1.655-.522-2.243-.576-3.953-.349-10.227-2.279-13.629-3.854-.775-.356-1.175-.708-1.969-.858-2.512-.474-1.951-.873-3.782-2.012-.871-.539-.892-.784-.94-2.119-.211.449-.068.403-.57.591-1.48-1.711-2.609-11.708-3.013-13.682-.092-.436-.148-1.093-.189-1.747-.071-1.166-.195-2.061-.331-3.24-.137-1.19-.608-5.112-1.161-6.185l2.44 17.068c.375 1.954.706 3.671 1.044 5.543-.13-.136-.176-.158-.326-.357a11.678 11.678 0 0 1-.251-.377c-.494-.805-.632-1.905-.953-2.743l-1.069-2.618a3.573 3.573 0 0 0-.487-.874l.115-.351c.199-.532.074.207.14-.346.084-.694-.533-1.717-.667-2.415-.193-.991-.619-2.779-.917-3.644-.461-1.353-1.63-5.947-1.602-7.394-1.852-1.324-2.109-8.769-2.842-11.132l-1.738-9.025c-.234-1.279-.703-2.596-.759-3.879-.068-1.61-.843-3.151-.297-6.745l-.006-.003Zm30.321 4.447c.917-.887 3.37-1.259 4.944-1.175-.709.508-3.77 1.014-4.944 1.175Zm49.211 1.474c-1.99.186-10.02 3.681-12.167 4.659l-6.674 2.96c-2.664 1.245-6.599 2.695-8.295 4.055.064-1.984.12-3.767.784-5.387.39-.425 3.477-.537 4.144-.785l1.103-.573c1.617.14 2.106-.422 3.253-.861 1.049-.402.397-.351 1.322-.708 1.617-.624 4.062-.963 7.949-2.512.849-.338.991-.211 3.042-1.057l5.604-2.605c1.08-.571 1.734-1.233 2.677-1.704-.194.967-.813 2.873-.8 3.703-.81.17-1.355.486-1.94.815h-.002Zm-67.293-6.364c-.003-.255.418-.258.321-.013-.081.204-.316.359-.321.013Zm46.189 11.293c-2.026-.14-3.095.232-4.924.337-.13-2.779-.738 1.304-.384-3.396 2.249-.509 4.561-1.084 7.02-1.564 2.004-.392 5.909-.58 7.452-1.08-2.453-.021-5.017.28-7.384.749l-6.989 1.429c-.074-1.138.176-1.627-.741-1.956-.27.52-.01.555-.397 2.226l-7.083 1.584.127.927c.624.007 2.125-.81 3.09-1.06 1.105-.283 2.58-.777 3.698-.894-.043.621-.214.802-.214 1.436 0 .642-.015.828-.018 1.534-1.459.092-1.424.453-2.541.489l.437.808c-.766.066-.777.025-1.403.288l-1.429.384c.632.449 3.306-.443 4.76-.665l-.318 5.379c-.387.224-5.891 1.283-6.426 1.324 1.895.137 4.213-.476 6.347-.578l.158 6.184c-3.02-.148-4.431-.136-7.297.142-.109-.825-.022-1.864-.743-1.905-.907-.05-.726 1.006-.846 1.819l-1.533.12c.935.152 1.097-.237 1.678.392.387-.761.1-.779.713-1.337.576 1.892.434 4.613 1.009 6.38l-3.614.092-.952-12.849 4.177.02c-.046-.064-.114-.16-.14-.117l-3.978-.415c-.607-.703-.041-.93-1.233-.917l-.41.938-.82-.041-.403-4.589c.81-.082 1.414-.051 2.138.148.799.219.835-.003 1.954.036.978.036 3.609.257 4.515-.415l-1.796-.294c.608-.132.318.151.907-.236-2.585-.443-7.712 1.225-8-1.072-.028-.217.022-.596.028-.828.015-.635-.102-1.113-.171-1.676 1.205-.403 2.442-.709 3.8-1.07 4.529-1.207 7.526-2.445 12.412-2.516 1.36-.021.637-.133.532-.31-.43-.722-.387.409-.122-.161l10.395-.552c2.05.39 3.484-.12 5.784-.92 2.358-.82 4.803-1.332 7.228-2.015 2.138-.601 4.697-2.325 6.73-2.338-.245.914-.372.471-.627.866-.356.542-.127.644-.308 1.278-.573.212-.812.094-1.434.472l-3.733 2.417c-1.949 1.093-3.653 1.691-5.726 2.457-2.552.945-1.283 1.081-5.754 2.267-1.304.347-5.618 1.342-6.38 1.806l2.051-.074c-.591.555-1.793.395-2.865 1.113l-.004-.001Zm-57.943-13.211c.453-.487.408-.453 1.212-.064 1.554.753 3.734.369 4.901 1.049 2.193 1.281 13.099 2.835 16.397 3.092.945.072 3.065.069 3.604.505-.567.161-7.819.718-10.682 1.199l-2.522.546c-.835.374-.27-.084-.517.511.726.421 3.145-.522 4.162-.743 4.134-.899 6.466-.639 10.175-.981l3.703-.028c1.233.018 1.034.153 1.296.36l-2.814 1.108c-.828.474-.484.007-.525.902 2.451.381 6.393-1.88 9.085-1.556 1.725.206 3.673.121 5.237.359.876.132 1.164.323 2.282.397.933.064 1.753.077 2.743.099-.637.469-.601.319-1.5.489-2.73.52-8.484 2.532-10.259 2.649-.018-.833.12-1.79-.151-2.506l-.552.408.015.151c.084.738.283.58.248 2.121l-3.24.38-.003.7c.81.446 1.605-.053 2.404-.267 1.271-.344.933.236 1.19 1.393.303 1.35.201 1.702-1.162 1.615-2.168-.137-7.322-1.047-9.197-1.513-1.039-.26-4.044-.794-4.762-1.207-.955-.553-7.392-2.711-8.907-3.199-1.842-.596-2.825-1.152-4.44-1.717-1.615-.567-4.669-2.109-5.904-3.107-.673-.545-1.175-1.136-1.602-1.467l.539-.736a6.388 6.388 0 0 1-.384-.459c-.199-.417-.003.112-.082-.234-.009-.041.026-.181.01-.248l.002-.001Zm87.965 18.937-5.382 1.9c-1.131.489-4.35 2.147-5.099 2.088-.235-1.401.412-1.469 1.05-4.058.427-1.744.275-1.279 2.984-2.585 1.274-.611 2.333-1.062 3.65-1.666 2.311-1.059 3.563-.917 3.953-1.624-.316-.192.41-.252-.595-.165l-4.743 2.029c-1.256.622-4.264 2.252-5.55 2.25.362-1.386.069-3.171.95-4.022-.096 1.571-.695 1.052-.455 3.668 1.021-.619 1.311-3.074 1.512-4.267.716-.31 4.325-1.747 4.697-2.289-1.426.394-2.893 1.258-4.297 1.739.007-.451 2.641-9.513 2.613-10.17-.099-2.28 1.887-2.106 3.504-2.799.62-.267.813-.529 1.454-.809 1.407-.611 1.714-.306 3.083-1.218l4.024-2.537c.752-.585.313-.629 1.149-1.103-.115 1.437-2.033 5.031-2.333 6.052l-2.47 8.173c-.461.823-.428.369-.66 1.6l-3.039 9.813Zm-104.951-28.331c1.375.718 1.673 2.355 3.002 3.212 2.407 1.548.994.195 1.625 1.456.306.607.537.4 1.121.54.662.161.53.27 1.133.471 1.791.598 2.996 1.075 4.689 1.683 1.564.561 3.566.632 5.013 1.338-.441.622-.212.122-.861.639-.115.616.064 1.365.025 1.915l-.295 1.289c-.094.207-.125.081-.211.436-.54 2.206 1.523 13.356 2.432 15.771.914 2.425.736 3.955 1.156 5.835.122.55.397 1.143.552 1.681.688 2.374.713 5.417 1.452 7.774.767 2.445 1.256 4.923 1.826 7.396.438 1.908.097 1.589.951 3.785.486 1.253.557 2.285 1.094 3.408 1.5 3.145-.117 1.77 2.988 6.246l.861 1.395c.232.384.415 1.169.713 1.753 1.589.318 1.156.486 2.468 1.215.976.539 1.704.703 2.825 1.074 1.967.65 3.576 1.324 5.634 1.944.923.278 1.424.751 2.606 1.108 1.971.594 8.464 1.518 9.301 2.094-1.307.236-2.659-.038-3.787.379l14.895.774c.58-.086 1.075-.374 1.88-.499l-.351 5.158c-.054.983.127.963.908.952.008-.619-.099-1.174-.099-1.808.003-1.037.27-.943.387-1.73.306-2.066-.341-2.256 2.384-3l2.893-1.205c.555-.247.846-.137 1.024-.651 3.227.226 7.274-3.551 8.703-3.945.682-.191.84.061 1.332-.548.369-.458.896-1.577 1.289-2.193 1.757-2.758 3.882-2.427 5.779-4.276l.539-.494c-1.286.53-3.708 2.181-4.744 2.478 0-1.136 1.383-3.978 1.839-5.379.181-.555.227-1.288.026-1.558-.357.731-.393 1.999-.908 2.745-1.074 1.562-1.477 3.266-2.409 4.946-.48.861-1.432 1.113-2.234 1.478l-7.183 3.879c-1.094.697-1.291.532-2.249 1.003-.297.146-.216.12-.369.258.523.219 2.797-.36 3.24-.639l8.006-4.89c-.856 2.524-4.473 2.738-6.501 4.307l2.927-.815c-3.026 2.826-5.967 2.397-9.638 3.789-1.757.667-1.813.723-3.861.983.046-.899.331-2.126.431-3.148l.611-10.28 3.056.242.137 1.134c.894-.046.155.007.95-.35.212.125.655.252.647.536v.094c-.015.303-.139-.049-.036.384.851-.176 1.86-.622 2.641-.558 1.71.136 1.281.782 2.283 1.22.753.332 1.869.398 2.723.775 1.118.492 1.291 1.258 1.999 1.441 1.138-1.729-4.896-2.807-6.077-4.07 2.794-2.16 6.237-3.423 9.215-5.267.792-.492 2.557-1.442 3.212-1.661l-.291 1.233c-.012.321.044.28.094.397.13-.151.133-.105.27-.357.273-.499.298-1.224.622-1.648.58-.764 3.028-1.428 3.935-2.017.415-.27.369-.369.889-.586.394-.165.738-.17 1.156-.349-.688-.252-4.391 1.791-5.772 2.132.168-1.156 1.119-2.782.775-3.724-.701.387-.26-.17-.474.726-1.136 4.734-.321 3.328-8.201 7.404-1.246.642-2.402 1.516-3.961 1.954l.499-3.757c.171-.611.28-.136-.12-.793-.127 1.478-.922 3.536-.687 4.875-2.557 1.496-2.639 1.539-5.634.695.028-1.77.094-3.665.061-5.02l.441-5.107c.672-.58 5.843-3.476 6.739-3.647l-.397 4.824c.31-.42.493-1.508.567-2.221.115-1.065.128-1.996.25-3.099 2.038-.555 3.889-2.618 5.991-2.825l.226-.372c1.755-.634 3.016-1.782 4.74-2.33-.121.723-.318 1.059-.532 1.818-.053.184-.211.627-.252.793-.319 1.347-.028.736.099.911 1.103-1.856.138-4.195 2.83-4.492-.09.677-.4 1.311-.639 1.951-.252.667-.285 1.465-.551 2.132-.812 2.025.046 2.702-2.348 3.336.13-1.5.464-1.192.53-2.559-.512.489-.502 1.158-.81 1.716-.387.709-.117-.078-.558.675-.279.477-.028.543-.492.94l-2.442 1.273c-.886.28-.509.199-.774-.214-.219 1.093-1.747 1.546-2.705 2.046-.884.458-2.287 1.143-2.878 1.824l-.408.226c-1.284.413-2.267 1.452-3.403 2.127-.517.305-.651.318-.853.815.78-.268 1.279-.63 2.125-.983.766-.322 1.255-1.137 2.096-1.055.199.021.136-.435.316-.608.734-.708 4.475-2.71 5.222-3.033.025.038.058.064.064.122l.14.445c.911-1.326-.765-.247 2.71-2.134l3.65-1.768c.173.387.068.665.409.922.856-.43.571-.486.666-1.612.241-.142.331-.229.616-.408l1.452-.639c.527-.279.209.059.477-.318-.492.288-1.738.741-2.42.939.196-.802.542-3.296 1.078-3.683.028-.021.102-.058.132-.086.034-.026.092-.062.125-.092.558-.53.563-1.279.693-2.107.257-1.623.726-1.383 1.887-2.073.994-.589 4.236-1.995 4.674-2.776-1.984.629-4.04 2.251-5.963 3.074.26-.808.357-.52.583-1.425.166-.665.079-1.125.217-1.818.102-.523.341-.938.422-1.409.105-.614.059-1.208.189-1.925 2.061-.784 7.715-3.653 9.923-3.619-.293 2.881-1.711 6.171-2.366 8.96-.311 1.324-.657 1.524-1.088 2.807l-5.183 15.557c-.474 1.187-.12.578-.043 1.276l-3.426 11.637c-.418.808-2.919 3.671-3.536 4.055-1.39.866-3.683 1.704-5.193 2.384-1.694.759-3.708 1.462-5.341 2.254-2.641 1.279-5.02 2.494-7.807 3.477-.97.341-2.038.545-3.003.889-.802.285-2.07.966-2.626 1.1l-7.562.105c-1.082-.13-.935-.66-3.052-.927-1.016-.127-1.548-.596-2.842-.838-1.08-.204-2.215-.377-3.265-.623-2.318-.545-3.793-1.243-5.955-1.826l-14.76-4.129c-1.1-.303-1.995-.479-2.797-1.108-.746-.583-1.658-.469-2.585-1.111-.509-.353-1.539-1.41-1.828-2.07l-2.624-6.819c-.344-.794-.349-.481-.713-1.113-.331-.578-.858-2.169-1.022-2.896l-5.404-17.342c-.331-.914-.762-1.989-.952-2.764-.28-1.138-.525-1.92-.841-3.041l-3.135-12.027c-1.034-4.213-2.17-7.932-3.227-11.959-.553-2.101-2.203-10.519-2.451-12.995l.002.001Zm52.843 2.552.193-3.655 8.988-.222c3.405-.278 15.451.697 18.924 1.446 2.596.558 4.121 1.147 6.009 1.6.771.186 1.472.102 2.369.331-.675.667-2.7.639-4.499.932-7.816 1.279-21.012 2.575-27.783 4.208-1.19.285-3.51.942-4.526.995l-.094-1.797c1.472-1.037-.097-.638 3.16-1.253l11.281-1.918c2.442-.311 5.035-.741 7.621-.973 1.088-.097 7.954-.484 8.168-.57-2.318-1.648-28.675 3.571-29.641 3.405l-.133-1.969c1.363-.749 11.294-1.862 14.138-2.325 1.07-.174 1.353-.125 2.015-.591-.823.043-1.312.16-2.079.29l-6.005.759c-2.771.397-5.361.948-8.108 1.307h.002Zm48.531-11.301c.709.074 1.152.148 1.625.581-.54.223-1.276-.258-1.625-.581Zm-49.088 7.076c-3.629.25-6.775.635-10.269.979-.986.099-1.457.275-2.28.409-1.115.181-1.35-.107-2.58.326l-4.684 1.08c-1.577.388-4.501 1.671-5.082 1.623-1.049-.089-.152.003-1.881.425-1.338.326-3.772 1.612-4.855 2.305-1.574 1.007-2.03 1.366-3.126 2.573-1.041.015-8.621-2.514-10.144-3.678-.698-.53-2.376-1.162-3.143-1.58-.03-.381-.346.143.224-.362.031-.028.112-.078.143-.102.03-.025.109-.064.158-.104-.884-.255-2.423-1.317-2.581-2.382-.26-1.745.464-2.514 1.921-3.021-.043 1.18-.066 4.015.504 4.977.296-.657-.343-2.767-.117-4.444.13-.968-.043-.635.667-1.009.168.186.176.099.331.527.421 1.153.227 4.734.994 5.112l-.418-6.045 5.527-2.5c-.076 1.694-.458 8.695.54 9.691.081-.165.122-.051.125-.418.015-1.266-.65-2.783-.094-7.534.05-.443.066-.818.216-1.212l.573-1.138c1.72-.449 2.983-.713 4.575-1.34l17.632-5.364c1.131-.195.723.031 1.422.108.486.053 3.904-.849 5.076-.973.669-.071 2.175-.357 2.697-.331.726.033.48.204 1.024.236.003 0 5.402-.896 7.048-.394.211 1.041-.137 5.4-.059 6.863.127 2.328.209 4.419-.084 6.696v.001Zm31.896-11.622c.54-.229 3.749.413 4.386.821-.557.31-3.789-.553-4.386-.821Zm-5.376 1.803c.005-.644.461-2.682 1.88-1.533-1.564.904-.624 1.006-1.88 1.533Zm-.849.248.81.613c.919-.318.939-.97 1.66-1.421.021.752-.343 1.465.013 2.038.65-.754.347-1.908 1.228-2.985 2.343-.272 6.823 2.045 9.024 1.989 1.589-.037 7.269 1.572 8.793 2.252 1.864.831 4.157 1.24 5.85 2.346l1.841 1.067c1.719 1.714 5.769 1.744 6.309 4.765l-.683.573c-.155.191-.269.507-.552.874-.963 1.251-2.259 2.608-3.64 3.346-1.034.553-.068.137-.752.693-.099.082-3.311 1.521-3.774 1.758-.774.397-.579.552-1.686.973-.894.336-1.268.616-2.326.619-.44-1.2-.983-1.36-1.35-2.241-.328-.036-1.94-.041-2.226.025.27 1.075 1.806 1.215 2.971 2.764-.709.239-4.144 1.108-4.462 1.291-.889.509-.508.535-1.89.988l-7.04 1.967c-5.122 1.268-10.947 1.757-16.301 1.581-3.703-.12-8.043.14-11.545-.356l7.891-1.88c2.826-.555 5.517-.97 8.374-1.51 5.089-.966 12.526-1.949 18.061-1.646l-.701.667c.955-.053 1.141-.002 1.485-.641-2.091-1.882-22.001 1.839-26.587 2.712l-10.042 2.098c-.912.165-4.241-.14-5.804-.089-.016-.028-.016-.115-.018-.092-.003.022-.018-.081-.023-.097-.366-.942-1.961-.499-2.856-.606.533-.393 1.267-.533 2.514-.818 4.549-1.042 9.116-2.354 13.756-3.123 1.011-.168 1.661-.316 2.723-.52l2.071-.39c.068-.02.27-.078.334-.104.3-.118.344-.176.476-.26-4.73.397-22.918 5.168-24.401 4.883l1.009-.464c.787-.26.403.048.723-.406-2.366.68-2.832.698-5.186.379-.743-.102-.955.115-1.828.062-4.725-.298-17.381-3.594-22.004-3.93.278-.476.759-1.059 1.138-1.291.624-.375.635-.168 1.383-.428l-.769-.176c.772-.438.784-.12 1.409-.438.511-.263 1.016-.576 1.452-.78-.321-.204.033-.081-.489-.117-.227-.018.048.127-.471-.015l3.395-1.51c-.405.326-1.085.567-1.424 1.001.797.188 1.94-.655 2.826-1.081 1.798-.861 7.88-2.483 10.107-3.012 2.284-.543 5.137-.592 7.523-1.088 1.121-.232 2.094-.069 3.64-.306 1.274-.193 2.909-.366 4.302-.31l-.054 1.709-.114 2.116c-3.573.663-17.113 3.031-19.172 5.261.718-.006 7.228-2.374 9.07-2.81 2.113-.496 8.198-2.051 10.2-1.977l.207 2.117c-1.098.481-2.494.537-3.673.846-1.466.381-9.413 2.251-10.383 3.3 1.602-.028 5.03-1.373 6.686-1.872 2.34-.706 4.62-1.324 7.095-1.757-.061.97-.05 1.796.186 2.481-1.342.338-5.962 1.627-6.82 2.168.843.316 5.3-1.289 6.482-1.683l.565.405.18-.474c.555-1.31 29.773-5.272 34.745-5.835 3.452-.392 4.921.523 7.824 1.773.49.208.652.262 1.131.511l1.34.138-.958-.723c-2.111-1.246-5.769-2.805-8.021-3.461l-11.128-2.176c-2.621-.458-9.339-.662-12.335-.796-2.54-.115-6.913.394-8.986-.044-.858-.178-1.849.097-2.687-.058l-.377-.125c.229-3.367.01-6.658.056-10.048.015-1.138.219-2.231.227-3.191 2.977-.752 16.262.337 20.48 1.047l3.013.456c.853.074.769-.128 1.39-.016l.065.245c-.003.033-.509 1.549-.494 2.28h-.001Zm-79.386 8.749c.153 1.48.698 2.274.895 3.336.198 1.075.127 2.787.455 3.811l1.149 4.024c.166 1.556-.511-.117.362 2.479l1.623 6.808c.823 4.994 2.283 8.102 2.615 9.852.227 1.189-.425-.357.65 3.27.627 2.112 1.368 4.106 1.969 6.426l3.789 13.033c.428 1.143.561 2.053.966 3.156.379 1.026.805 2.012 1.172 3.12l3.352 9.18c.845 2.241 1.286 5.677 4.788 7.9 2.083 1.324 6.54 3.003 8.981 3.505 1.268.263 2.083.665 3.198 1.11 1.554.624 5.174 1.22 6.523 1.939.985.524.01.52 1.022 1.013l3.296 1.024c2.055.25 1.449-.021 1.67-.306-1.133-.25-3.306-.081-3.705-1.279 4.075.468 8.889 2.717 11.789 3.285 3.031.591 1.933.604 3.895 1.238l8.517-1.508c.557-.176 1.568-.876 3.547-1.576 2.761-.979 8.166-4.173 10.398-4.731 1.367-.344 2.391-1.103 3.591-1.579l5.088-2.488c1.044-.683.441-.648 1.327-1.351.382-.303 1.174-.651 1.416-1.047.496-.807-.165-.443.555-1.291l.551-.876c.022-.026.084-.059.112-.084.952-.907 1.056-3.533 1.492-4.87.372-1.147.573-4.127 2.045-7.606.354-.84.571-.83.732-1.877.524-3.418 2.493-8.298 3.377-12.043.595-2.512 2.844-8.96 3.576-11.826.573-2.252 1.788-5.379 2.569-7.661l2.305-7.952c.174-1.062.323-1.115.594-1.9.451-1.314-.068-.547.737-1.884.377-.629.109-.158.341-.93l4.207-9.956-1.428-.995c-.164-1.088-.054-1.45-1.62-2.856-.53-.473-.861-.573-1.338-.914-.58-.41-.67-.738-1.131-1.115l-6.077-3.154c-2.213-.896-4.63-1.466-6.912-2.325-3.042-1.147-1.989-.446-3.607-.871l-3.596-1.154c-2.382-1.041-12.552-2.44-15.687-2.544-4.796-.161-14.088-1.296-17.238-1.266-3.021.028-6.006.01-9.035.13-3.938.155-12.108 1.184-15.532 2.391l-11.066 2.687c-3.663 1.039-14.238 4.623-17.042 6.133-1.813.978-2.639 1.047-3.127 1.381-1.231.84-2.912 1.48-3.095 1.581v.003Z" clip-rule="evenodd"/><path fill="#000" fill-rule="evenodd" d="M156.587 250.563c1.169.212 3.458-1.038 4.775-1.464l7.894-2.339c2.41-.731 9.006-2.086 11.889-2.46.756-.099 1.097-.036 1.714-.487-7.195.367-16.607 3.498-23.572 5.484-1.515.431-2.47.505-2.699 1.266h-.001ZM168.294 288.973c.099-.293.152-1.118.115-1.339l-1.442-9.325c-.107-.666-.264-1.085-.349-1.676-.316-2.219-.892-4.17-1.383-6.25-.377-1.597-.861-3.042-1.026-4.672-.122-1.187.196-1.166-.952-1.169l3.647 14.709 1.391 9.722h-.001ZM159.53 268.606c-.007.038-.021.061-.018.112.005.049-.003.089.005.107.146.441-.04-.13.168.367.22.524.161.397.28.998.204 1.026.102 1.301.173 2.249.592-.105.037.125.484-.65 1.248 2.015 1.71 11.849 2.728 13.329.165-.851-1.119-6.423-1.33-8.043l-1.273-8.533c-.803-.239-.576-.264-1.218.064h.001ZM205.03 250.499c1.961-.082 11.452-1.623 15.486-1.925.92-.069 1.737-.156 2.662-.184 1.951-.058 2.088.059 2.781-.15.038-.01.099-.046.148-.074-.285-.227.034-.156-.474-.25l-10.236.876c-1.739.222-3.643.438-5.217.693l-3.818.52c-1.143.176-.947.193-1.332.494ZM184.615 311.124c.523.247 3.635-.136 4.911.022.512.064.588.235 1.296.306 1.564.155 4.114-.31 4.775-.224 1.971.265 1.016.181 1.48-.12l-.362-.759c-1.334-.236-1.769.074-2.924.298-3.173.611-7.33-.273-9.177.477h.001ZM147.301 235.991c-.436.886-.298 4.007-.385 4.992-.076.889-.053 1.968.049 2.853.122 1.062.189 1.655 1.118 1.279-.102-.431-.074-.235-.191-.433-.264-.452.033.226-.245-.36-.387-.812-.254-2.87-.195-3.746.188-2.812.412-2.832.669-4.539l-.82-.046ZM187.54 322.47c1.256.202 2.466-.178 4.756.25.889.165 1.128.449 1.869.378l-.046-1.001c-2.153-.341-6.763-.512-8.196.099l1.617.275v-.001ZM156.697 278.289c.245-.679.115-1.1-.02-1.81l-.859-5.935c-.186-1.716-.486-6.704-1.146-8.018-.183.235-.298-.547-.25.583l2.274 15.18h.001ZM195.438 235.217c-1.116-3.3-.787-4.09.201-6.922-1.503-.564-1.541 1.525-1.536 3.051.003 1.441.033 3.619 1.335 3.872v-.001ZM167.788 235.45l-.7-.307c-.7-.533-.451-1.738-.28-2.507.54-2.427 1.1-2.078 1.088-3.026-1.037-.201-.973.25-1.296 1.144-1.373 3.774-.258 6.051 1.189 4.696h-.001ZM166.746 305.541c-.557-.861-1.694-8.42-1.862-10.004-.178-1.666-.394-3.545-.738-5.221-.344-1.676-.422-4.05-.823-5.023-.046 1.574.509 4.256.772 5.81l2.083 14.087c.272 1.75-.044 1.992 1.021 1.934l-.453-1.582v-.001ZM191.739 228.56c-.265 1.739-.077 4.396.422 5.875l.775-.055c-.591-1.454-.53-1.037-.527-2.826l.26-2.954-.93-.041v.001ZM174.902 234.778c-.436-1.199-.655-1.05-.561-2.825.094-1.737 1.314-2.715.369-2.955-.318-.081-.183-.025-.461-.005-.667 1.095-1.347 5.763.652 5.784l.001.001ZM149.956 244.166c.163-.286-.148-2.888-.115-3.592.089-1.973.222-2.282.68-3.835-.265-.013-.866-.342-1.131 1.22-.201 1.192-.347 5.509.565 6.206l.001.001ZM171.965 234.674c-.27-.583-.056-.201-.695-.769.003-.919-.13-1.824.033-2.73.136-.752.66-1.406.647-1.923l-.733-.056c-.723.846-1.725 5.899.749 5.478h-.001ZM178.398 234.536c.053-1.029-.58-.352-.163-2.965.14-.879.797-2.185.774-2.82-1.187-.152-1.174.691-1.447 2.677-.17 1.248-.502 3.09.836 3.108ZM157.539 239.147c-1.184-2.86 1.152-6.008.579-6.891-1.345 1.413-1.806 5.598-1.394 6.479.341.731-.097.402.815.412ZM162.929 237.033c.351.074.127.145.563.069.382-.072.285-.09.471-.207-.05-.291-.216-.219-.659-.624-.136-1.023-.069-2.139.229-3.033.306-.914 1.077-1.745.576-2.455-1.376.66-1.658 4.717-1.18 6.25ZM142.775 245.642l.161-.744c.012-1.704-.242-1.933-.044-4.734.064-.917.319-1.147.276-2.02-1.297.226-.925 1.342-.899 3.461.012 1.23.12 2.983.507 4.037h-.001ZM204.404 320.848c.357-.272.813-.359 1.23-.606.444-.26.741-.497 1.119-.728 1.263-.787 2.911-1.574 3.599-2.346 1.243-1.394 1.819-1.353 3.278-2.458-.464-.005-9.019 5.423-9.225 6.138h-.001ZM141.453 245.034c-.308-1.028-.487-1.839-.571-3.012-.107-1.498.217-2.455.209-3.428-.866.107-.794.217-.836 1.152-.05 1.151.01 5.242 1.197 5.289l.001-.001ZM201.304 234.672c-.318-.945-1.1-.219-.594-2.608.235-1.103.683-1.671.79-2.802-1.268.283-1.171 1.469-1.383 2.835-.188 1.233-.468 3.064 1.187 2.575ZM198.61 234.7c-.245-.586-.023-.074-.304-.418-.213-.263-.529-.038-.425-1.911.062-1.106.497-1.816.406-2.578-1.137.09-1.027 1.411-1.088 2.591-.074 1.367.033 2.73 1.411 2.315v.001ZM155.066 240.584c-.163-.879 0-.053-.224-.591-.323-.78-.254-1.612.023-2.488.211-.667.865-2.109.626-2.82-1.029.849-1.385 3.294-1.403 4.659-.016 1.085.048 1.256.978 1.24ZM180.66 234.785c-.137-.79-.341-1.882-.056-2.934.078-.285 1.276-2.29.102-1.75-.545.25-.747 1.569-.877 2.364-.18 1.128-.399 2.299.831 2.32ZM177.236 278.816c.165-.502-.224-5.417.613-6.913.958.611.996 3.075 1.082 4.155.454-1.258.013-1.608-.191-2.769-.191-1.095.41-1.987-1.095-2.361l-.422 1.568c-.105.645-.077 1.444-.099 2.122-.028.787-.056 3.655.112 4.198ZM152.583 242.597c-1.095-2.535.226-3.347-.026-5.621-.723.334-.852 1.902-.899 2.776-.109 2.083-.259 2.975.925 2.845ZM209.725 232.278c-.539.034-.279.097-.993.413.012-1.638.338-1.584.532-2.145.14-.408.015.397.079-.278.025-.295-.054-.293-.094-.397-1.248-.214-1.903 4.071-.319 3.617.632-.181.497-.648.794-1.21h.001ZM160.145 238.69c-.22-1.722-.94-.739.25-3.872.022-.062.18-.543.183-.629.041-.853-.061-.418-.163-.601-1.103.942-2.122 4.89-.27 5.102ZM189.953 233.295c0-.003.364-4.453 0-4.954l-.583-.015c-.14.725.01 2.007.03 2.826.021.744-.022 1.696.553 2.142v.001ZM186.681 301.484c1.22-.756 2.43-.678 2.524-.919.026-.069.09-.069.13-.108-.58-1.268-1.48.229-2.875.173l.089-1.492c-.183.29-.163-.224-.293.723l.078 1.739c.158.907.224 1.54.52 2.152l-.173-2.269v.001ZM203.49 233.512l.608-.28c-.54-1.121-.688-.102.382-3.209-1.044-.092-1.004.492-1.289 1.438-.341 1.119-.489 1.536.298 2.051h.001ZM206.962 232.812c-.222-.474.056-.137-.677-.642.124-1.047.603-1.482.402-2.373-.892.232-.948.753-1.009 1.966-.074 1.439.301 1.674 1.283 1.05l.001-.001ZM182.57 233.359c.242-.206.105.094.28-.297l.433-1.788c.313-.976.846-1.34.859-2.107-1.742-.112-1.615 4.093-1.572 4.192ZM202.434 243.057l2.853-.041c-.092-.607-.016-.764-2.102-.275l-.751.316ZM187.901 297.124c.453-.272.331.136.374-.759.023-.476-.084-.861-.188-1.202-.723.367-.537 1.279-.186 1.961Z" clip-rule="evenodd"/><path fill="#000" d="M125.007 338.141H125v-.007l.007-.004v.004h-.003v.007h.003ZM125.017 338.138h-.004v.004h-.004v-.008h.008v.004Z"/><path fill="#000" d="M125.024 338.138h-.004v.004c.002 0 .004-.001.004-.004v.004h-.008v-.004l.004-.004c.002 0 .004.002.004.004Z"/><path fill="#000" d="M125.032 338.138v.004h-.008v-.004h.004v-.004l-.004.004v-.004h.008v.004ZM125.036 338.134h.004v.004h-.004v.004h-.004v-.008h.004Z"/><path fill="#000" d="M125.047 338.138h-.004v.004c.002 0 .004-.001.004-.004v.004h-.008v-.004l.004-.004c.002 0 .004.002.004.004ZM125.055 338.134v-.004.011h-.007v-.003l.004-.004h.003Zm-.003.007.003-.003h-.003v.003ZM125.065 338.141h.004v-.003a.004.004 0 0 0-.004-.004v.007Zm0-.007h.004v.007h-.007v-.011h.003v.004ZM125.07 338.134h.004v.004l.004-.004-.004.007v.004h-.004v-.004h.004l-.004-.007ZM125.09 338.141h-.007l.004-.011h.003l.004.011h-.004Zm-.003-.003h.003l-.003-.004v.004Z"/><path fill="#000" d="M125.093 338.13h.004v.011h-.004v-.011ZM125.106 338.138h-.004v.004c.002 0 .004-.001.004-.004v.004h-.008v-.004l.004-.004c.002 0 .004.002.004.004Z"/><path fill="#000" d="m125.109 338.138-.004-.004h.004v.008h-.004l.004-.004ZM125.118 338.13h.004l.004.008v-.008h.003v.011-.007l-.003.007-.004-.007v.007h-.004v-.011ZM125.131 338.138v-.004h.004v.008l.004-.004v-.004.008h-.008v-.004ZM125.148 338.138h-.004v.004h-.004v-.008h.008v.004Z"/><path fill="#000" d="M125.154 338.138v.004h-.008v-.004h.004v-.004l-.004.004v-.004h.008v.004ZM125.155 338.134h.004v.004l.004-.004-.004.008-.004-.008ZM125.171 338.138h-.004v.004c.002 0 .004-.001.004-.004v.004h-.008v-.004l.004-.004c.002 0 .004.002.004.004ZM125.173 338.134h.004v.004l.004-.004-.004.008-.004-.008ZM125.007 338.143v.007h-.003v.004H125v-.007l.004-.004h.003Z"/><path fill="#000" d="M125.014 338.15h-.004v.004h-.004v-.008h.008v.004Z"/><path fill="#000" d="M125.016 338.15v.004l.004-.004h-.004Zm0-.004c.002 0 .004.002.004.004v.004h-.008v-.004l.004-.004ZM125.028 338.146h.004v.004h-.008v.004h-.003v-.008h.007ZM125.042 338.146h.004v.004h-.004v.004h-.004v-.008h.004Z"/><path fill="#000" d="M125.051 338.15h-.003v.004h-.004v-.011h.004v.004h.003v.003ZM125.062 338.15h-.004v.004c.002 0 .004-.001.004-.004v.004h-.008v-.004l.004-.004c.002 0 .004.002.004.004ZM125.066 338.143h.004l.004.007v-.007h.004v.011h-.004l-.004-.007v.007h-.004v-.011Z"/><path fill="#000" d="M125.081 338.15v.004l.004-.004h-.004Zm0-.004c.002 0 .004.002.004.004v.004h-.008v-.004l.004-.004ZM125.086 338.15v-.004h.004v.008l.004-.004v-.004.008h-.008v-.004ZM125.103 338.15h-.004v.004h-.004v-.008h.008v.004ZM125.108 338.143h.004c.002 0 .004.002.004.004v.003h-.004v.004h-.004v-.011Zm.004.004v.003h.004v-.003h-.004ZM125.126 338.15h-.004v.004h-.004v-.008h.008v.004Z"/><path fill="#000" d="M125.128 338.15v.004l.004-.004h-.004Zm0-.004c.002 0 .004.002.004.004v.004h-.008v-.004l.004-.004ZM125.133 338.147h.004v.007a.004.004 0 0 1-.004.004v-.011Zm0-.004h.004v.004h-.004v-.004ZM125.145 338.15h-.004v.004c.002 0 .004-.001.004-.004v.004h-.008v-.004l.004-.004c.002 0 .004.002.004.004ZM125.154 338.146v.004h-.004v.004c.002 0 .004-.001.004-.004v.004h-.008v-.004l.004-.004h.004Z"/><path fill="#000" d="M125.157 338.146h.004v.004h-.004v.004h-.004v-.008h.004Z"/><path fill="#000" fill-rule="evenodd" d="M73.975 517.841c-.203.551.392.296-.64.411l.64-.411Zm1.036-1.685c1.193.695-.76-.573.299.18.028.019.121.18.144.132.023-.051.094.097.138.145-.392.665-.337.768-1.186.61.08-1.357.363-.951.605-1.067Zm.981.887c.582-.228 2.18-.192 3.11-.388 1.142-.244 1.576-.869 2.406-.537-2.25.907-2.656 1.325-4.38 1.271-1.12-.036-.718.617-1.136-.344v-.002Zm2.74-1.025c-.029-.888.785-.624 1.225-.248l-1.225.248Zm3.611-2.425c.348-1.296 3.245-.971 4.422-.975 4.467-.007 1.267-1.634 4.358-1.509-.492.923-3.045 2.515-4.158 2.869.238-.338.337-.403.495-.865-1.592.627-3.119.717-5.116.478v.002Zm10.118-3.216c-.727.351-.367.243-.877-.01.028-.026.418-.141.485-.144.583-.029.141-.016.392.154Zm-6.577 1.141c.892-1.009 6.819-4.811 8.503-4.959-.218.678-.302.598-.92 1.19l.278 1.186c-.907.662-1.506.688-2.664.746-1.382.068-.263.534-2.879.473.123.872.74.782-.305 1.338-.768.412-1.402.351-2.014.026h.001Zm8.407-3.148c-.125-.727.013-.833.756-1.229 3.692-1.965.805-.347 1.852-1.525.353-.402.724-.446 1.257-.386-.846.685-2.563 2.923-3.866 3.139l.001.001Zm3.313-4.233c.544-.563 1.979-1.31 2.814-1.402-.425.932-.932 1.112-1.65 1.852-.142-.035-.698-.148-.724-.161-.598-.218-.074.039-.44-.289Zm10.067-43.404c.399.618.421.287-.027.888-.16-.199-.578.251.027-.888Zm-5.49 6.002c-.074-.968-.141-2.085-.199-2.982-.068-1.09.305-1.241.804-1.901 1.287-1.701 1.753-2.852 3.088-2.704-.171.713-.521.798-.772 1.495 1.386.074.627-.766 2.312-1.636l.232.984c-.84.431-.676.271-1.409.994-.57.56-.653.422-1.003 1.2.801-.171.56-.183 1.213-.462-.032.967-.316.986-.814 1.53-.489.531-.566.708-1.1 1.306-.675.756-1.251 1.956-2.351 2.178l-.001-.002Zm-.512-6.983c.477-.672 1.001-1.022 1.593-1.746.697-.849.774-1.592 1.743-1.158.383 1.029-.678 2.026-1.219 2.644-.627.714-1.052 1.852-1.956 2.148l-.161-1.888Zm4.12-3.219c.036-.412.261-.387.637-.461l-.637.461Zm.039-1.342c.023-.282.168-.36.242-.028.063.298-.255.164-.242.028Zm-25.986-1.2c.023-.023-.168-.801.817-.061-.508.383-.173.441-.817.061Zm-9.369-.238c.016-.586.242-.219.302-.003.061.215-.312.418-.302.003Zm-9.323-.042c.84-.489 2.991-.66 3.657.039l-3.657-.039Zm-5.172-.2c.051-.022.122-.058.154-.063l.498-.048c.296.003.414.067.858.067.386.003.537-.087.97-.013.65.11.278.087.567.299-1.036.598-1.206.023-1.804 1.174l-.183-.27c-.583-.756-.67-.479-1.061-1.146Zm9.494-.478c.032-.383-.244-.055.212-.062.36-.003-.247.466-.212.062Zm8.6-.242c.344-.341-.048-.257.681-.328.207-.019.46.097.66.141-.273.515-.82 1.007-1.341.187Zm-6.31 0c.25-.173.083-.192.543-.286.403-.081.052-.028.46-.019.213.003.83.157 1.097.203-.238.601-1.643 1.353-2.1.102Zm-20.29 0c.063-.035-.226-.531.533 0-.396.322.048.38-.534 0Zm-3.117-.637 1.07.476c1.32-.225 1.05-.942 1.22.059l-2.688.202.399-.736-.002-.001Zm32.707.302c.805.023 1.74.228 2.474.074.65-.138.74-.533 1.364-.219-.537.952.067.334-1.287.509-.489.063-1.077.215-1.733.241-.103 1.056.228.952-.47 1.56-.34-.515-.19-1.302-.348-2.164v-.001Zm-21.944.576c-.44.218.74.441-.59.093l.59-.093Zm-3.203-.618-1.138.826-1.87-.787 3.008-.039Zm49.218 1.02c.987-.756 1.315-1.949 2.448-2.265-.759 1.608-.289.302.081 1.917l-1.978 3.271c1.55-.215.492-1.721 2.739-1.514.354-.927.078-.865 1.151-1.167-.225-1.001-.212-.467-.425-1.248.364.144.238-.058.498.626.119.318.242.756.309 1.178-1.592.711-.965-.055-1.541.907-.585.978-1.846 3.567-2.914 3.866l-.37-5.571h.002Zm-16.93-2.595-.659 1.85c-.206.328-.152.16-.457.363l-.441-1.476 1.557-.736v-.001Zm.39.293c.424-.605 1.2-.927 1.897-.498-.607.633-1.071.823-1.897.498Zm-45.458-.261c.087-.083-.28-1.042 1.402-.318-.505.402-.779.531-1.402.318Zm48.273-.72c.093-.657 1.27-.551 1.984-.496-.316.572.215.353-.81.66-.99.293-1.123-.126-1.174-.164Zm-55.946.868c-.016-2.573.026-1.495.357-1.894.099.071.804.058.106 1.361-.286.531-.126.192-.463.533Zm44.419-1.827c-.004-.064.097-.328.196.02.122.437-.19.125-.196-.02Zm15.148-.023c-.66.228-.273.322-.794.023.688-.447.399-.244.794-.023Zm-14.06-.701c.668.251.55.228.931.698-1.338.152-.89.402-.932-.698Zm-26.589 1.483c.142-.93.254-.99 1.112-1.492.38.297 1.04.332 1.852.293-.875.387-.582-.038-1.166.904l-1.799.296.001-.001Zm41.411-1.479c.283-.768.563-.623 1.229-1.135l.81.415c-.457.595-1.232 1.286-2.039.72Zm-45.06 1.158c.556-1.441 1.929-1.968 3.959-2.026-.332.749-1.078 1.537-2.075 2.177l-1.885-.151Zm-15.325-3.262.63.623c-.807-.083-.52.209-.63-.623Zm18.327.109c2.503-.986 1.56-.347 1.83-.164-.562.946-.617.408-1.74.733-.768.222-.804.371-1.768.496l1.678-1.065Zm-21.133.158c-.055-.387-.129-.528-.032-.971.25-1.162-.004-.184.37-.646 1.01.894.023 1.26-.337 1.617H28.6Zm56.87-.036c.534-.849 1.811-2.319 2.64-1.726-.559.421-.626.357-1.118.942-.64.756-.254.65-1.522.786v-.002Zm-55.093-1.601c-.795-.588-.551-.798-.158-1.798l.763.334c-.171.787.077-.171-.318.697-.142.309-.174.496-.286.766l-.002.001Zm68.044-1.084c-.501-1.604.623-.318-.353-1.662l.897-.228c-.026 1.943-.518 2.566-1.4 3.76-.681-.393-.782-.721-1.412.051.325.978-.093.167.83.697l-.724 1.174-1.753-.164c-.038-1.85.502-.533.878-2.206.28-1.232-.11-1.448 1.18-1.962l-.514 1.608 1.8.223-.496-.966c-.019-.113-.074-.129-.109-.192 1.74.363.74.141 1.174-.133h.002Zm-49.586 2.161c.306-1.048 1.001-1.987 1.522-3.071.508-1.052 1.419-1.421 2.798-1.547l-1.316 3.751a2.202 2.202 0 0 1-.19.048l-2.814.82v-.001Zm51.275-4.561c.004-.298.113-.27.164-.007.062.306-.164.165-.164.007Zm-8.709 1.901c.267-1.405.746-3.473 2.303-3.548.264 1.94-.388 2.551-2.303 3.548Zm7.767-1.894c-.743-.177-.611-.367-1.502-.113-.064-.778-.415-1.659-.415-2.386l.421-.004c.216 1.146-.662.982.373 2.078.81-.37.184-.443 1.075-.752l.048 1.177Zm-18.624 5.287c-.145-1.421.653-2.055 1.27-3.056.662-1.071 4.059-7.288 4.715-7.558 1.292-.045 2.794.334 3.853.743.872.334 1.933 1.284 2.657 1.937-.187.45-.463.379-1.515 2.116-.36.591-1.058 1.148-1.617 1.708.692.461.386-.212.942.962-.762.373-1.36.756-2.36.904.212-.801 1.222-1.852 1.643-3.049-2.286-2.232-2.81-.492-4 .534-.76.656-1.307.351-1.995 1.161-.322.38-.322.517-.801.878-.95.707-.325-.255-.766.916l2.206-.219.302-1.396 1.756-.396c.479-1.729-.797-.716 2.341-1.682-.09 1.284-.016.653-.926 1.216l-3.162 3.317c-1.29-.357-1.971.379-2.489 1.537.853.376.662.129 1.08.678l-5.051.907c.411-.672.399-.315.91-1.257.441-.81.055-.605 1.007-.9v-.001Zm14.173-10.333c.244-.164-.054-.154.47-.193 1.197-.093.125-.039.35.193-.26.637-.26.515-.82 0Zm-1.736-1.139c1.08-.016.787-.46.63.498l-.63-.498Zm-1.628 1.107c-1.302-.637-3.165-.66-4.361-1.167.19-1.342 1.836-.878 2.727-.537 1.135.438 1.068 1.096 1.907 1.444 1.67.695 3.013 1.248 4.47 2.213.216 1.326.583 2.348.477 3.628-1.033.723-1.734.951-1.991 2.592-.29 1.872-.875 1.11-2.258 1.979-.724.457-.97 1.057-2.782 1.785l-6.753 2.106c-3.663 1.685-4.496.977-7.198 1.225-1.319.122-2.046-.403-3.889-.039l-10.797.485c-1.306.267-3.203 1.017-5.615-.047-2.994-1.322-4.69-.216-7.653-.698-2.666-.434-6.118-.498-6.932-1.994 1.238.298 2.226.575 3.6.752l7.907.823c3.663.122 5.715-.216 8.4-.207 4.05.013 8.263.461 12.524-.292l.672.543c1.017-.656.145-.559 2.034-.801l7.046-1.322c2.254-.406 2.593-.981 4.13-1.617.913-.376 1.255-.087 2.305-.592 1.554-.743 4.01-2.1 4.992-3.403 1.38-1.835.299-5.274-2.962-6.859Zm.283-1.405c.173-.103-.042-.087.353-.11.035-.003.258.074.332.103-.1.058.312.633-.685.007Zm-1.862-2.088.23 1.025-1.064-.446.834-.579Zm-2.612.222c-.334.865-.274.772-1.123.427.058-.383.662-.418 1.123-.427Zm-24.874-1.727c2.29-.031-.071.322 2.991-.096.209-.027 2.406.109 3.02.125 2.043.046 4.542-.051 6.471.212 1.28.177 1.409.556 3.123.547 1.505-.007 1.705.406 2.875.37.322-.711.31-1.077 1.126-1.315 0 .84-.817 1.901-1.366 2.583-1.631.086-4.242-.859-5.783-.913-5.85-.216-9.577-.466-15.57.125-.418.039-1.18.099-1.556.196-.666.173-.692.337-.916.567 1.617.096 4.255-.232 5.998-.38 4.525-.386 13.005.171 17.183 1.036-.434 1.917-3.239 6.12-4.255 7.867l-3.043 5.834c-.306.766-.505 1.357-.936 1.933-3.13.309-6.28.192-9.35.063-1.869-.08-3.209-.012-5.05.064-1.608.064-3.29-.244-4.859.007.383-.826-.325-.228.657-.704.536-.261 1.444-.19.63-1.001 1.36-.203.669.09.88-.64l-2.91.328c.328-.81.492-.842.787-1.695 1.091-3.145 1.402-6.502 4.426-7.59 1.834-.656 2.508-.337 4.238-.051-.817-2.01-4.625-.254-5.985-.007.128-1.306.042-.711 1.048-1.366 2.376-1.554 4.097-.634 4.831-1.068-.708-.862-1.956-.518-3.048-.254-1.68.402-1.28.492-2.583 1.274l.119-1.866c.685-.379 1.65-.653 2.48-.872l2.164-.437c.476-.097.356-.097.536-.18-2.942-.126-2.884.453-5.05.93l-.06-3.622 6.733-.004h.004Zm-9.227.602c-.048-.019-.129-.07-.187-.093l-.411-.106c-.38-.103-.036.145-.67-.171.193-1.277.979-1.135 2.503-1.119.58 2.305.547 4.312.165 6.764-.408 2.612-.737 3.791-3.4 4.151l.643-3.569c.408-1.544 1.572-1.013 1.836-2.38l-1.679.724.138-1.209c1-.733 1.486-.27 2.106-1.2-.61-.312-1.347.083-2.19.254l-.023-1.564c.768-.109.762 0 1.347-.372-.058-.039-.132-.09-.18-.11h.002Zm23.81-1.373c.778.293.41-.364.707.708-.872-.036-.47.231-.708-.708Zm2.045.283c.643-.258 1.419-.113 2.007.234l-2.007-.234Zm-21.815-.351c.055-.56.399-.56.508-.563l-.508.563Zm-.88-.371c-.043.048.057.27-.486.399-.66.157-.136.035-.502-.157.344-.244-.02-.81.987-.242Zm17.588.029c-1.228.222-1.041.695-1.698-.512.798-.009 1.49.113 2.19.238.876.161 1.088-.003 1.377.727-.842.392-1.28-.106-1.869-.453Zm-7.088.324c.99-.476.17-.035.61-.935l4.214-.046c-.457.971-1.093 1.75-2.323.666-.045-.039-.26-.136-.29-.242-.022-.086-.105-.081-.163-.116l-.313.238-.128.119-1.609.315.002.001Zm-.83-.591c-.505.247-.553.348-.846-.332.244.032.138-.022.409.071.344.122.317.173.437.261Zm-5.024-.479c.968-.646 2.258.094 3.474.306l-.607.778-.177-.57c-.007-.083-.039-.116-.064-.171-1.022.106-.817.097-1.525.532l.1-.65c-1.197-.026-.81.026-1.2-.226v.001Zm-.84.062c-.437.958.036.653-.855.942-.58-.482-.228.094-.406-.855l1.26-.087h.002Zm-5.965-.952c.183 1.628-1.017 1.303-2.538 1.576l-.72-2.846c.53-.537 1.893-.692 2.778-.441l.086.919c-1.508.708-1.389-.437-2.023.962.502.228-.806.508 1.185-.09.672-.203.515-.161 1.232-.081v.001Zm-.904-2.949c-.332.74-.531.501-2.66.943-.209-.412-.29-.537-.454-.943.556-.434.856-.515 1.692-.57 1.311-.083.977-.219 1.42.57h.002Zm77.054-.688c.321-.228-.521-.238.711-.293 1.219-.055.533.125.759.261-.83.266-.673.408-1.47.032Zm-80.675-.512c.412-.199 1.11-.399 1.698-.553 1.09-.282.978-.312 1.22.553-.583.302-.618.173-1.437.251-1.666.154-1.126.061-1.48-.251Zm-.443-.512c-1.53-2.07-1.02-.521-1.917-2.367.364-.392.576-.649 1.534-.823-1.276-.254-1.177-.243-2.164.013l-.637-.865 3.171-.219c.029.036.078.103.113.138l.567.373c.601.379.44.212.84.868l.63 1.039c.25.389.282.457.453.991l-2.589.852h-.001Zm-21.835 7.191c-1.444-.508-3.618-4.432-3.987-5.352-1.184-2.961-4.23-8.322-1.055-9.734 2.277-1.013 5.93-.657 8.41-.646 2.164.006 1.898.61 2.367 2.096-1.769 2.184-2.515 6.895-3.161 9.041-.238.788-.447.72-.673 1.756-.372 1.705-.235 2.399-1.9 2.84v-.001Zm15.678-13.925c1.007-.531 3.28-.872 4.445-.877l1.373 2.125c-.64.547-1.322.641-2.21.807-1.396.261-1.415.309-1.855-.823l2.863-.582c-2.3-.763-2.718.804-4.616-.65Zm63.05 72.972.083-1.112c.444-.328.985-.656 1.805-.643l-.924 2.969c-.395.567-3.461 1.425-4.174 3.19 1.2-.282 1.18-.861 2.383-1.186-3.193 3.802-13.714 7.77-14.489 8.555.872.425 8.536-3.461 10.016-4.406l3.791-1.592-.775-.556c2.286-.711.496-.872 2.323-1.656-.286 1.241-.418.492-.692 1.334-.231.708.136.682-.347 1.566-.493.907-1.148 1.615-1.656 2.429-.18-.042-.103-.097-.531-.083-1.065.026-.255.028-.615.157-.787 1.129-1.881 1.772-2.685 2.847 1.01-.29 2.325-1.335 2.759-1.82-.141.826-.81 1.759-1.444 1.91-.045.012-.132.039-.186.051l-.805.136c-2.885.575-2.422 2.068-3.31 2.953-.515.511-.79.328-1.396.997-.894-.373.129-.45-.97-.29-2.56.371-4.366 2.399-6.569 3.557a57.14 57.14 0 0 1-2.054 1.048c-.859.403-1.361.412-1.811 1.04-.775 1.08-2.612 1.334-3.451 2.37 1.724.441 3.63.313 5.522.325-2.316 1.174-2.159.84-4.442.807-1.29-.016-1.232.187-1.466-.618-.01-.032 0-.116-.007-.141-.007-.026-.007-.106-.01-.129-.047-.351-1.013-.058-1.309-.026.148 1.225.052 1.791-1.708 2.062l-.637-.775c-2.078-.016-1.788-.165-2.394 1.463l-1.884-.392c.003-.932.533-1.252.199-1.979-.524.486-.746 1.232-1.184 1.82-.63.843-1.126.638-1.255 1.679 1.451-.282 2.573-2.194 2.376.611-1.726.392-2.508.187-4.303.106.454-.731 2.563-3.01 2.203-4.091-.862.405-.895 1.451-1.55 2.284-.482.617-1.075.842-1.412 1.524-.01.023-.11.348-.154.467l-3.313.109 1.126-2.194-.132 1.737c1.49-.37 2.676-3.377 2.743-3.837-1.592.75-.79 1.421-1.885 2.274-.07-2.065.785-4.076.515-6.436-.804 1.238-.263 3.341-1.02 4.744-.334.618-.533.486-1.083 1.808-.457 1.096-.431 1.306-1.573 1.37.026-.759.074-.657.206-1.342.351-1.8.113-.762-.145-1.167-.633.56-.778 1.448-1.07 2.431-.172.572-.1.309-.371.579-1.274-.544-.798-1.569-.66-2.959-1.402.615-.231 1.85-.978 2.496-1.318.528-1.44-2.106-1.961-3.174-.302.302-.521-.807-.312.933.09.755.588 1.472.752 2.155-2.4.093-2.033-1.46-2.84-3.13-.477.376-.711.337-.344 1.331.135.367.353.662.517 1.033-1.647-.145-2.21-2.249-3.294-3.1-.157.328-.367-.461-.112.66.196.856 1.479 2.229 2.139 2.656-2.727-.196-4.113-3.171-5.811-3.193.18 1.1 1.186 1.138 1.765 1.975-.605-.498-2.05-1.345-3.193-1.483.88.498.293-.048.704.763-3.442-.297-5.117-1.522-7.812-3.149-4.316-2.609-6.226-4.499-9.874-8.118l-5.269-5.535c-2.068-2.141-4.843-8.882-5.645-12.112-1.147-4.641-1.646-8.031-1.219-13.186.794-9.555 2.355-14.557 5.79-23.017.974-2.399 2.18-5.05 3.727-7.07 1.096-1.431 1.293-.437 1.573-1.855-1.22-.316-1.553.496-2.097 1.331-2.393 3.689-3.158 6.889-4.942 10.166-1.39 2.544-1.676 5.571-2.837 8.185-1.293.042-6.644-3.126-7.668-4.065-3.28-3.01-2.949-2.155-5.708-6.046-1.177-1.663-1.26-1.76-2.139-3.862-.57-1.358-1.142-2.824-1.444-4.307-1.161-5.689.048-6.452.422-10.729l-.364-.212c-.003-.026-.039-.016-.058-.026.242-4.796 1.717-3.193.987-5.47 1.112-1.804 2.07-3.509 3.188-5.088-.13-.282-.103-.212-.2-.411-.009-.026-.058-.078-.067-.152-.01-.077-.048-.102-.07-.154 1.189-.826.617-.697 1.29-1.761 1.166-1.856 2.93-3.052 4.527-4.343 4.059-3.274 13.636-6.045 18.352-5.669 8.407.672 4.937.894 7.438 1.419l1.727.457c.733.36.067.012.406.298-.978.383-3.14.328-4.194.962.623.344 4.93-.747 4.93-.747.84.013 2.405 1.296 3.055 1.785l.807.682c-1.499-.332.113-.302-1.232-.364l-1.283.415c.826.219.328.074 1.216-.013-.618.154-.856.207-1.31.641.95.341 2.464-.187 3.631-.209.505.579.943.756 1.544 1.091-6.008 1.165-2.624 1.061-6.928-.607-.951-.367-1.894-.679-2.8-1.065-5.13-2.174-11.72-2.573-16.96-.759-.536.184-.926.274-1.509.441-1.959.556-.894.846-2.319 1.975-1.781 1.409-4.718 3.718-5.899 5.384-4.69 6.615-6.879 12.311-5.339 21.146.273 1.566.743 1.968 1.325 3.242.45.99.753 2.348 1.132 3.428.505 1.428 2.865 4.281 3.94 5.181.57.479.717.418 1.354 1.039l2.502 2.058c.92.807 2.982 2.773 4.168 2.043-.61-.904-2.2-1.303-3.158-2.094-.688-.57-.408-.623-1.402-1.241-1.167-.727-3.103-2.37-3.897-3.534-.666-.974-1.792-2.033-2.219-2.82-.666-1.226-.83-2.629-1.421-3.859-1.914-3.995-2.756-8.095-1.799-12.84 1.178-5.841 3.204-7.457 4.934-10.43.97-1.663 1.255-1.489 2.383-2.656.425-.441 1.107-.837 1.377-1.245.489-.739.045-.563 1.325-1.334 2.168-1.306 4.326-2.759 6.812-3.28 1.689-.351 2.47-.916 4.078-.968l.212 1.058c1.283-.325 1.798.309 2.628-.325l.492-.517c1.354.141 2.158-.068 2.178 1.221-2.187 1.148-7.401-.836-10.565 1.451-1.087.785-1.396 3.188-.849 4.425.618 1.393 1.11 3.162 1.702 4.316.984 1.93.787 2.046 2.058 3.921.817 1.202 1.312 2.965 2.66 3.351 2.27.653 2.843-1.041 3.094-2.792.228-1.572.997-2.969 1.29-4.762.498.36.231.315.868.489l.207-1.257c.37-.046.646-.058 1.209-.094l1.28-.411c-.486-.325-.106-.145-1.03-.277-.61-.09-.392.039-.93-.203.133-.978-.093-.591 1.113-.775-.425-1.058-.364.009-.46-1.251l1.401-.387c-.17-.376-.083-.241-.353-.501-.517-.502.746.64-.263-.203-.029-.023-.119-.039-.138-.116-.02-.081-.094-.081-.158-.126l-.08-2.238c1.244.103 4.139.083 4.753-.64-.685-.396-3.528.097-4.425.199-.704-.826.106-.28-.833-1.048-.592-.486-.55-.258-.987-.833l.353-.786c2.38-.051 4.506 1.29 6.654 2.075.821.298 1.316.626 1.625 1.2-1.402.231-1.602-.062-1.566 1.382 1.527.099.771-.122 1.341-.406 1.93-.955 3.123.962 4.213 2.052.891.894 1.37 1.241 2.104 2.464 1.132 1.894 3.097 2.749 3.892 8.615-3.905.145-2.959.711-4.078 1.148-1.415.035-2.612-.032-3.071.967.312.138 3.071-.263 3.731-.536 1.087-.451 1.666-1.238 3.666-.827l.02 4.548c-.85-.193-1.93-.971-2.332.176 1.02.364 1.055-.048 2.151.72.168 3.091-4.1 11.459-5.123 11.993-1.656.296-5.841-.766-7.368-1.287-.814-.28-2.023-1.11-2.637-1.659-1.907-1.702-.959-1.746-1.995-2.101-.566.837-.286 1.238.341 1.834.219.206.55.431.782.657 1.495 1.475 2.235 1.524 4.21 2.273-.306.216.531.328-.74.281-.653-.027-1.366-.647-2-.911-1.521-.63-1.33-.228-2.464-1.37-1.99-2.007-1.228-3.161-2.882-4.673.415-.72.496-.263.884-1.074-.951-.242-1.115.109-1.73.656-1.002-.727.103-.575-1.205-.762-.2 1.572.411.73-.263 2.104-.74 1.505-.956 3.502-1.425 5.039l-1.926 6.818c.678-.572.247-.028.614-1.142l1.268-3.209c.222 2.016-.717 3.255.302 4.238.28-.333.405.371.157-1.235-.296-1.94.222-6.603 2.242-7.625 1.96 2.203.732 6.515.376 8.776-.161 1.022-.117 9.443.102 9.906.521-.869.364-4.162.344-5.458l.64-4.859c.103 5.882-1.868 18.766-.7 21.808.344-.641.026-5.384.138-6.66.206-2.341.443-4.461.681-6.68.357-3.297-.176-10.829 1.538-13.125 1.077.184 1.784.634 2.817.93 3.106.895 2.113 1.271 5.84 1.843 1.66.254 1.185.617 2.38 1.145 1.358-.347 1.013-.37 2.657-.154 1.76.232 1.122.367 2.38.814.697.097 2.64-.778 4.94-.228 2.374.566 1.389 1.354 2.981 2.106.862-.422.801-.81 1.437-1.486 1.573-.251 3.666-.463 5.271-.389 1.2.059 1.071.232 2.383-.099.875-.222 1.373-.351 2.399-.19 1.772 3.586.219 10.594.985 12.08 1.106-1.816.334-7.86.704-10.208 1.769-2.022 1.534-1.984 4.815-2.196 1.785.849 1.03.608 1.705 2.145 1.003.064.946-.176 1.656-.798 2.358.334 1.408-.196 2.884-.292 1.29-.084 1.769.276 2.493-.682 1.74-2.293.34-1.765 3.638-2.827 6.46-2.081 5.293-2.268 6.78-2.847 1.279-.498 1.302.208 2.44.318 1.036-1.406.553-1.222 2.223-3.075 1.048-1.165.38-2.547 2.215-3.236-.27.927-.392.737-.782 1.49.373.73.235.154.399.971l-1.611 2.344c1.579-.331.946-1.573 2.296-1.779.74 1.197-.93 1.834-1.29 2.973 1.235-.064.627-.998 1.975-1.061.118 1.193-.916 1.89-1.322 2.846 1.499-.55 1.135-1.784 2.21-1.595.653.334-.171 1.636-.496 2.081-.36.498-1.071 1.505-1.435 1.781-.521-1.251-.392-3.023-1.85-2.904-.054.878 1.017 2.12 1.033 3.696-.678-1.135-.47-2.242-1.695-2.621.512 1.929 2.503 6.787 2.345 8.757-5.94 3.248-13.112 3.603-13.888 4.203 4.692.685 13.115-3.602 14.064-3.454.959 2.151.161 2.238-.63 3.802l1.052-.364c.402 1.138.422 3.174-.103 4.113 1.48-.055.348.187 1.203-.618 1.376-1.295 2.698-2.383 3.827-3.83.572-.736.945-1.001 1.835-1.145.461 1.929 1.023 5.251.843 7.448-.911-.302-.637-.257-.364-1.17-.058-.039-.145-.067-.187-.09-.039-.026-.132-.062-.176-.094-.207-.148-.149-.022-.306-.222-.672-.836.212-1.35.373-2.248-.885.16-2.344 2.167-3.451 2.804.524.47.415.122 1.033.329-1.146 2.171-3.931 3.173-4.837 4.599 1.852-.495 3.936-2.958 5.394-3.158-.152.908-.325.701-.463 1.296-.19.817-.009.994-.007.768 0-.028-.007.083-.023.126-.414.765-1.65 1.82-2.447 2.605-.802.791-2.03 1.312-2.888 2.167 1.286-.386 2.28-.981 3.152-1.666.884-.695 1.749-1.994 2.84-1.945-.406.891-.251 1.003-.154 1.779-1.28 1.016-.042 1.26-3.733 4.162-2.184 1.714-1.582 1.788-4.902 2.763-2.129.626-10.861 3-12.79 2.186l.505-7.522c.118-1.437.57-2.332.46-3.831-.087-1.186-.164-2.534-.25-3.849-.525-1.299-1.146.18-2.034-6.642-.138-1.065.087-1.538-.602-2.062-.353.724.02 1.859.004 2.702-.029 1.566.602 3.39.775 5.52l.167 2.151c.084.461.103.322.254.57.136-.215.154-.071.248-.56.02-.083.026-.372.028-.466.023-.37-.016-.727.013-1.154 1.354 2.309-.344 12.411-.344 16.325l.315-.286c.048-.035.117-.093.164-.129.36-.266.148-.135.534-.298 3.837.845 11.247-1.702 14.46-2.911.755-.282.945-.476 1.565-.82.657-.364.891-.223 1.38-.772 2.104-2.348 2.32-1.634 3.799-2.685.872-.618 2.415-2.653 2.792-3.676-1.181-.103-.875.054-1.55.839.016-1.11.406-.215.572-1.306.129-.833-.553-.27.47-1.173-.313-.769-.932-1.492.27-1.933.54.951 1.087 6.827-.029 7.625-.951.682-1.418 1.518-2.25 2.3-1.698 1.596-3.265 3.065-5.352 4.245-.775.438-2.792 1.197-3.188 1.589 3.569-.862 6.104-3.119 6.873-3.297.408-.094.004-.029.325.042.046.009.406.132.486.141.974-.884 1.791-1.996 2.679-2.54l-.19-.325c-.02-.042-.064-.122-.084-.16-.063-.138-.096-.081-.128-.457l1.055-1.01c.122 1.255-.099 1.781-.325 2.955-.07.353-.164 1.257-.219 1.431-.286.901.023.567-1.18.615.328-.913.566-.698.707-1.596-1.087-.164-.861.981-2.865 2.48-1.26.949.479 1.557-5.708 4.85-.872.463-2.663 1.393-3.287 1.917 2.83-.36 6.925-3.479 9.154-5.172 1.167-.887 1.271-1.636 2.868-1.975-.09 1.953-1.122.968-1.38 2.551l1.077-.396-.055 1.185c-2.961.344-2.621 1.788-4.299 3.083l-7.394 4.782c.845-.238 1.862-.701 2.66-1.115 2.125-1.107 5.441-3.651 6.952-4.358l.008-.009Zm-2.178-87.785c-.392 1.029-.36.82-1.682.897-2.309.132-1.556.334-1.675.766.801.331 1.202-.283 2.56.047-.447.846-.689 1.091-1.097 2.191-1.296.039-1.897-.376-2.624.161.595.607.974.392 1.991.566-.968 1.82-.345-.055-1.804.872.26.527.003.173.485.482l.521.238c-.563 1.582-1.73.57-2.94 1.2.444.846.805.454 1.921.486-.18.759-.113.527-.517 1.131-1.409.232-1.03-.351-1.933.302.299.338-.103.174.582.415.007 0 .763.116.876.138-.203.746-.152.621-.57 1.216-1.1.122-1.87-.261-2.161.63.73.396.916-.061 1.611.479-.752 1.174-1.795-.351-2.405.962.697.367.99.167 1.862.238-.28.946-.63.891-.768 2.039-.834-.136-1.518-.312-2.58-.306l-.59 1.811c3.07-.431 1.18-.077 2.575-.981-.302.821-.798 1.527-1.132 2.37-1.197-.035-2.351-.434-2.395.756l1.678-.074c-.697 2.386-1.08.351-2.464 1.582.505.501.795.263 1.35.482-.437 1.29-.665.192-1.893.958.586 1.02.183.068 1.131.673-.984 1.167-1.675.081-2.308 1.486.302.196-.048.37 1.2.045-.425 2.239-1.435-.298-2.149 1.637 1.042.575.406-.247 1.315.238-.813 1.788-1.524-.042-2.543 1.441l1.318.383c.032-.055.11.061.161.096-.724 1.383-1.17-.058-2.171 1.2-1.537 1.933-1.312.724-1.112 2.197-1.007.196-.747-.048-1.11.681.353.231-.048.177.511.219.85.058.807-.567 1.608.023-.56 1.274-.315.144-1.498.351-.74.128-1.033.579-1.084 1.306.277-.062 1.71-.833 1.564.164-.277 1.83-2.442-.415-2.72 2.097l1.479-.553c-.232 2.386-1.924-.132-2.435 2.168 1.287.028.274.012 1.412-.341-.187.637-.44.994-.752 1.46l-1.689.263c-.087 1.331.168.662.482 1.451-1.212.524-1.131.492-1.505 1.833-.251.904-.547 1.512-.666 2.505-2.515-.238-2.158.039-3.573.933-.614.383-.122.176-1.164.28-.258.768-.023.591-.717 1.071-.364-.762.035-.861.479-2.023.328-.855.585-.958.71-1.932.193-1.525 1.058-2.332 1.763-3.515.765-1.283 1.46-2.03 2.12-3.4.543-1.131 1.228-2.303 1.868-3.419.676-1.18 1.373-2.219 2.069-3.444.727-1.276 1.27-2.07 1.987-3.297l5.754-10.314c1.35-1.849 4.313-7.696 4.847-8.356 2.512-3.087 2.814-5.489 4.966-8.474 1.544-2.145 3.553-6.272 3.865-6.667.689.441 2.262 2.827 2.429 3.618-1.287.058-2.354-.086-3.197.727l.02 1.139 2.003.012c-.447.987-.743 1.284-1.444 1.984h-.006Zm25.219 20.313c-1.509-2.187-2.802-4.265-3.998-7.002-1.155-2.634-2.628-4.342-3.824-6.976-1.129-2.485-2.483-5.136-3.823-7.207-.907-1.396-2.992-3.933-1.94-5.509.768-1.158.56.544 1.319-1.322.402.157.57.226.965.72.328.415.402.624.512 1.206l-1.036.46c1.1.122 2.178-.093 2.75 2.034-2.097-.133-.11-.171-1.73-.805a21.522 21.522 0 0 0-1.792-.588c.447.878.627.884 1.547 1.119-.254.662-.145.184-.533.962 2.215.152 2.447-.643 3.274.418-.881.701-1.084.207-2.567.164.367 1.187.412.705 2.959.817l.849 1.097c-.833-.267-1.926-1.052-2.593-.157 1.033.54 2.207.826 3.181.637.187.711.717 1.396.454 1.897-.827-.161-.11.154-.721-.84l-2.595-.298c.251.868.039.243.579.861 1.174 1.338-.617.431 2.833 1.001 1.068.176.94.263 1.187 1.216-.962-.071-2.187-.389-2.754.325.583.392.531.247 1.229.273 2.492.099 2.03-.145 2.399.949-1.322-.003-1.956-.466-2.81.235.637.57 2.344.415 3.348.477.814 1.634 1.846 3.56 2.734 5.184-1.499.064-2.778-.913-3.219.302 1.125.37 2.695.45 3.801.289.798 1.268 2.136 2.721 2.261 3.686-1.29.373-1.888.058-2.75.161-.942.113-.153-.004-.572.203.348.732-.595.372.779.547.009 0 .891-.052.99-.055a15.65 15.65 0 0 1 2.196.016l.492 1.366c-.833.039-1.826.184-2.624-.042-.177-.051-1.547-.9-1.193.222.312 1.001 3.502.441 4.544.547.299.518.65 1.093.676 1.956-.868.842-.695.72-2.171.727-.586.004-.91.09-1.36.122-.856.062-.277.351-.714-.37.56-.496.932-.441 1.814-.551l.985-.164c.566-.254.228.02.489-.54-.602-.219-3.123-.032-3.823.231l-.004-.001Zm-19.706-27.247c.427-.312.199.434.406-.501.138-.627-.637-3.963-.805-4.554.678-.457 1.582-.544 2.63-.567.396 1.949-.218 4.12-.414 6.221.746-.354.328.074.688-.548.039-.067.167-.73.18-.82.077-.486.136-.987.193-1.451.135-1.142.266-2.058.405-3.177.888-.007 1.178.231 1.714.527-.128.422-.215 1.01-.351 1.564-.501 2.003-.261 1.039-.086 1.382.582-.469.321-.112.685-1.041.138-.364.312-.811.469-1.142 1.049.367 1.444.775.731 2.106-1.933 3.595-.371 1.456-2.992 2.814-.611.318-.498.473-1.377.414-4.425-.282-2.601 2.754-5.399-.822-.441-.56-1.1-1.631-1.335-2.367.496-1.476 1.573-2.277 2.978-2.895l.759.952c.627 1.041.425 2.91.92 3.904l.001.001Zm-9.992 42.823c-1.213-1.409-3.29-2.547-4.816-3.583-1.978-1.345-2.65-2.27-5.525-2.879.277-1.943 3.683-6.638 4.802-8.989 1.415-2.978 2.762-4.87 4.737-9.172l1.656-2.911c.605-1.052.489-.28.965-1.415.383-.92.136-.782 1.245-.99-.251-1.386-.154-1.139.566-2.496 1.241-2.335 2.754-4.32 4.155-6.549.766.299.36.334 1.197.351 1.364-3.168 2.496-2.106 5.477-1.279 1.17.324.463-.203 1.084.621 1.721 2.28 4.541 7.673 5.738 10.324.798 1.769 1.589 2.612 2.344 4.146 1.049 2.12 6.075 11.877 7.004 12.391 1.347.75 3.248-1.221 4.655-1.373-.046-1.354.154-.572.386-1.779-1.393-1.103-2.621-4.753-3.74-6.506-.54-.846-.235-.524-.551-1.409-.309-.861-1.022-1.698-1.556-2.483-.531-.782-.856-1.817-1.296-2.805-.833-1.869-.65.518-1.875-1.701-1.084-1.956-4.492-8.506-5.83-10.243-.791-1.026-.849-1.026-1.65-2.438-.807-1.421-1.052-.199-1.354-2.544-.57-4.437-8.285-4.225-11.029-2.28-.891.63-1.385 1.244-2.051 2.03-.821.971-.556 2.644-3.297 6.541-1.444 2.055-2.46 4.165-3.641 6.436-1.744 3.351-4.206 7.004-5.754 10.321-.373.797-1.162 1.508-1.695 2.383L86.83 423.1c-.557.907-.888 1.839-1.396 2.685-.567.942-.888 1.878-1.402 2.676-.605.932-1.017 1.167-1.564 2.245l-6.792-1.145c-3.603-.772-6.783-.422-10.508-.595-1.4-.064-2.194-.454-3.348-.496-2.01-.081-5.105 1.425-6.757.563.122-.627.489-.496.579-.862.02-.074.1-.058.141-.096-.997-.641-.656.328-1.28-1.093-1.077-2.473-2.007-5.603-4.139-7.368-1.048-.869-.28-.515-.766-1.654-.183-.427-.607-.807-.89-1.26-1.166-1.869-3.425-2.821-5.314-4.037-4.194-2.702-9.272-4.258-14.456-4.078-5.67.196-9.938 1.75-14.866 3.686-1.762.692-6.638 4.676-7.761 6.136l-2.03 2.534c-2.37 3.568-3.747 9.816-4.222 14.305-.389 3.666 1.237 11.842 3.209 14.897 2.43 3.767 5.13 7.082 9.014 9.462.917.563 1.992.978 3.036 1.521.744.383 2.46 1.084 3.084 1.499-.222 1.781-.935 3.966-1.196 6.027-.689 5.423-.978 11.405.356 16.644.244.958.518 1.846.727 2.872.341 1.65 1.383 3.611 2.059 5.12.43.968.849 1.58 1.141 2.47l.622 2.55c.215.821.962 1.19 1.814 1.711 1.515.923 2.367 2.483 3.56 3.643l5.432 5.126c2.974 2.982 9.902 6.899 13.713 7.889 2.72.704 5.36 1.975 8.443 2.367 1.02.132 2.196.09 3.228.376 4.882 1.347 1.846.563 4.46.476l8.173-.399c7.744-.739 16.103-4.132 20.918-7.876 2.872-2.232 5.59-4.383 7.687-6.714 2.387-2.654 2.817-3.464 4.757-6.041.599-.794.846-1.331 1.296-2.07.316-.525.383-.779.727-1.187.916-1.096 1.084-2.374 1.421-3.888.232-1.022.646-1.866.853-2.708.787-3.262 1.955-13.215 1.691-16.064-.087-.965-.443-2.113-.476-3.117-.039-1.268-.046-2.145-.152-3.364-.193-2.219-.681-4.133-1.142-6.175-.45-2.003-1.103-3.638-1.611-5.551-.602-2.28-1.502-3.412-1.476-5.555-1.66-1.975-1.727-3.45-2.872-5.708l-3.229-5.172.005.002Z" clip-rule="evenodd"/><path fill="#000" fill-rule="evenodd" d="M30.586 434.731c.7.684-1.322.28 2.194.254 3.117-.027 13.817.517 14.777 2.499.779 1.599-1.784 5.161-2.485 6.255-1.248 1.943-1.943 1.582-3.364 1.975-.862.238-.087.399-2.695.371-1.007-1.178-1.582-1.435-2.754-2.29-.932-.681-2.023-1.691-2.711-2.563-.81-1.032-1.846-1.788-2.531-2.753-.531-.752-.524-.779-1.116-1.522-.505-.633-.544-1.244-1.428-.697-.672.63.623 1.846.82 2.277.023.055.046.118.064.173l.078.396c.016.067.023.144.035.206.152.669 2.351 1.996 3.063 2.45 1.122.711 1.745 1.441 2.89 2.152l2.866 2.167c.826.621 2.737.997 3.85 1.232l.478-1.039c2.808-.747 1.444-.618 2.879-1.329.527.634.64.572 1.592.762-.36-1.913-.062-.552-1.283-1.311.282-.621.331-.685.806-1.283.679-.85.422-.631 1.312-1.116-.007-.759-.71-1.776.521-2.348.611-.282.141.141.858-.293-.43-.653-.392-.215-.602-.787-.151-.408.029-.588-.243-1.22-.22-.501-.971-1.103-1.682-1.437-2.297-1.074-12.935-2.199-16.19-1.18l.001-.001ZM34.974 421.625l.235 1.232-2.02 2.997c-.864 1.146-1.366 1.631-2.144 2.946l.238.142c.023.012.141.061.212.097-.305.858-.47 1.382-.968 1.826-.379.341-.672.103-.836 1.255.351-.286.051.046.46-.443l1.257-1.56c.599-.817.878-1.965 1.402-2.728.624-.912 1.084-1.276 1.679-2.158.438-.643 1.27-1.882 1.54-2.547.191-.476.071-1.727 1.42-2.409 3.441-1.75 8.693 4.512 8.696 4.512.588.398.434-.184 1.222.707 1.637 1.847.681 3.831-1.04 5.333-.907.794-2.064.575-3.157.91-.425.132-.878.447-1.347.567-1.785.443-3.519.614-5.446.582-1.49-.026-4.409-.692-6.008-.244-1.206.334-.405.026-.771.479.727.427 2.718.099 3.663.118 3.135.071 4.612.788 7.46-.099 4.31-1.347 5.951-.171 7.974-4.261.88-1.785-.869-4.303-1.67-5.496-1.154-.277-.415-.171-1.158 0-.595-1.13.763.591-1.599-2.23-1.576-1.888-5.148-2.483-6.901-1.691-1.303.588-1.425 1.467-2.394 2.164l.001-.001ZM8.086 444.431c.544.586 1.075 1.49 1.601 2.18 1.107 1.451 1.47.602 1.257 2.361 1.22.61 2.418 1.489 3.705 2.27.92.563 3.114 2.07 3.86 1.071-.786-1.075-2.39.064-5.517-3.01-1.72-1.691-3.798-4.608-4.042-4.811.219-2.085-.505-3.569 3.634-4.686.878-.238 1.412-.36 2.19-.698 2.657-1.154 5.542-2.007 8.646-2.605l.242.724c1.312-.608 3.207-.251 2.683 1.151-.712-.669-.107-.682-.971-.885-.313 1.473.026 1.831-.637 3.416-1.003 2.395-3.912 5.77-4.651 7.777 1.576-.643 4.924-6.587 5.484-8.141.605-1.685 1.63-1.865 1.4-3.348l-1.365-.84c.974-1.949-2.164-.57-4.346-.116-3.959.829-6.608 2.061-10.642 3.512-3.18 1.146-1.666 2.069-2.53 4.676l-.001.002ZM23.855 433.12c-1.733 1.737-8.623 2.406-11.722 2.441-6.053.067-1.93-8.442-.367-11.217.282-.498 1.434-1.354 2.016-1.631 1.636-.775 3.103 1.615 4.162 2.448 1.112.872 2.399 2.206 3.264 3.696.733 1.257 2.425 2.955 2.647 4.264v-.001Zm.888.621c.051-1.933-1.907-3.624-2.72-4.981-1.017-1.695-2.239-2.943-3.638-4.284-2.664-2.547-4.455-5.603-8.365 1.717-.466.876-1.882 4.87-1.94 5.989-.116 2.264 1.255 4.291 3.56 4.245 4.667-.099 6.39-.817 10.266-1.525 1.113-.206 1.86-.72 2.837-1.161ZM82.955 494.3c.277-.66-.031-3.178-.019-3.663.039.048.087.125.113.148l.563.357c.17-1.257.7-2.148.183-3.197-.035.502.027.508-.148.994l-.427.743c-.02-.039-.094.113-.141.171.328-5.188.727-9.42.388-14.742-.151-2.371-.665-4.793-.766-6.953-.063-1.444.122-6.291-.489-7.156-.955.457-.466 2.316-.485 3.309-.01.576-.122 1.435-.103 1.94.068 1.737.184.531.463 1.29.267.731-.055 2.48 0 3.333.048.79.293.498.38 1.36.106 1.04-.239.283.173 1.47 1.257 3.615.27 16.322-.396 20.596-.38 2.441-2.518 9.33-3.36 11.314-.708 1.672-1.946 3.275-2.413 4.798 1.11-.067 1.11-.495 1.527-1.357 1.396-2.898 3.798-9.828 4.255-12.778.154-1.009.142-1.386.701-1.975l.001-.002ZM56.855 497.728c.164-1.245-.55-5.069-.695-6.773-.125-1.479-.058-1.991.013-3.49.047-.935-.133-.344-.332-1.325-.254-1.248.118-8.275.11-10.073l-.01-3.232c-.662-2.049-.07-1.444-.318-3.502l-.347-1.03c0 5.143.128 10.688-.075 15.727-.112 2.708-.517 8.897.31 11.299.495 1.444 1.434.946 1.344 2.399ZM87.168 476.13c2.853-.29 3.878-.869 6.162-1.889l6.895-3.261c3.338-.895 5.101-3.788 5.786-4.23.66-.425.563-.173 1.19-.72.501-.438.743-.711 1.132-1.032l-.689-1.518c-2.547 1.112.312 3.099-8.88 7.542-3.734 1.807-7.16 3.477-11.034 4.815-.476.167-.28.093-.563.293h.001ZM34.227 501.774c-.27-.787-.435-.672-.708-1.472-.203-.586-.122-1.161-.215-1.924-.117-.955-.643-2.453-.924-3.447-.623-2.222-1.112-6.683-1.521-7.011-.79.881.373 4.731.563 6.017-.242-.305-.154-.058-.441-.707l-.788-2.551c-.118-.544-.282-1.193-.363-1.781-.141-1.013.083-1.193-.457-1.792-.747 1.76.923 6.034 1.573 7.841.446 1.255.785 2.521 1.27 3.763.242.607.482 1.064.752 1.647.892 1.906.486 1.264 1.257 1.419l.002-.002ZM85.327 505.868c3.881.007 7.358-1.631 10.324-2.927.946-.415 3.73-1.608 4.3-2.178.993-.987 1.035-.813 1.884-1.47.415-.318.505-.453.881-.836.403-.408.334-.136.516-.714-1.056-.102-2.203 1.682-4.422 3.075-1.37.858-6.224 2.859-8.111 3.399-1.09.316-2.29.348-3.229.634-2.319.714-4.245.357-6.76-.09.157.228.2.512.852.762l3.767.345h-.002Z" clip-rule="evenodd"/><path fill="#000" fill-rule="evenodd" d="m55.574 468.002.232-6.983c.804 1.419-.164 9.481-.09 9.768.17.678.022.176.337.531.152-.351.09.022.167-.544.013-.081.04-.586.046-.697l.766-10.845c-2.323.341-1.781 2.238-1.804 3.638l.051 4.56c.119.467.138.338.296.573v-.001ZM86.54 497.675c1.08-.093 4.46-1.996 6.487-2.887 1.197-.525 5.638-2.474 6.226-3.345-1.817.414-4.834 2.077-6.494 2.846-1.636.756-5.47 2.268-6.22 3.387l.001-.001ZM85.742 456.192c.822-.09 9.612-3.953 11.372-5.04l.717-.617c-.602.125-11.25 4.483-12.09 5.657ZM88.469 439.795c1.66-.135 1.28-.19 3.097-.009a8.84 8.84 0 0 0 .376-.524c.345-.553.283.055.261-.759-1.322-.55-1.209-.055-2.21.193-1.2.296-1.514-.338-1.524 1.099ZM24.488 457.353c.209.949.389.309.283 1.65 0 0-.733-.682-.717.226 0 .038.016.112.023.153l.508 1.541c.113-.425.168-1.032.337-1.553.351-1.064 1.271-3.608 1.271-4.535l-1.705 2.519v-.001ZM103.809 402.425l.598-1.486-1.795-.27-.37.717c-.704 1.11-.402-.064-.798 1.022.56.267 1.596.09 2.364.016l.001.001ZM54.38 442.488c1.303-.148 1.831-1.181 3.831-1.219 1.09-.02.913.148 1.44-.232-1.212-.891-4.416-.151-5.27 1.451ZM53.89 445.058c.72-.273 1.084-.755 2.13-1.157.826-.318 1.894-.154 2.582-.463-.958-.853-4.547-.203-4.711 1.62ZM105.448 393.005c.685 1.299.408-.688 1.496 1.959l.462.807c.209-.348.461.66.177-.92-.122-.685-.93-2.865-2.136-1.846h.001ZM105.989 490.21c-.403 1.115-1.437 1.54-2.139 2.386 1.093-.106 1.784-.884 2.605-1.647.559-.524.537-.173.418-1.129l-.884.388v.002ZM128.684 417.074c-.805-.171-.435-.242-1.4-.328.157.849.261 1.009 1.222 1.093 1.122.102 1.408-.097 1.772-.316-.395-.29.013-.168-.791-.353-.196-.048-.528-.039-.804-.097l.001.001ZM56.998 445.595c-1.173-.836-3.142.45-3.537 1.39l3.537-1.39ZM125.851 412.531c-1.8-.151-1.311.586-1.331.676.662.261 2.191.297 2.724 0-.353-.505-.531-.605-1.393-.676ZM106.274 479.791c.606-.251 2.634-2.483 2.818-3.258-1.049.196-2.692 2.814-2.818 3.258ZM126.942 415.723c-.438.164-.193.129-.434.36.505.406-.547.177.798.367.437.062 1.521.007 2.077-.367-.267-.206-.183-.254-.752-.405l-1.689.045ZM17.606 451.693c.94-.373.563-.386 1.284-1.033.466-.421.842-.478 1.158-1.232-1.197.261-2.196 1.142-2.442 2.265ZM45.698 434.319c.367.216-.498.302.673.173l2.164-.653c-.85-.669-2.2-.241-2.837.479v.001ZM126.102 411.764c-.493-.579-1.582-.994-2.355-.479.184.161-.316.441.985.643l1.37-.164ZM34.227 418.241c.54.219 1.599.019 2.125-.238-.003-.004-.097-1.026-1.653-.238-.689.347-.27.141-.473.476ZM123.753 409.844c.402.325 1.431.833 2.206.479-.476-.736-1.492-1.087-2.206-.479ZM48.543 422.322c.399.223-.489.287.72.184.689-.055 1.28-.479 1.589-.949-.756.097-1.769.176-2.309.765ZM103.804 489.407c.762-.266.302-.492 1.193-1.115.443-.309.952-.583 1.382-.895-.813.122-2.917 1.096-2.575 2.01ZM47.82 435.04c.254.171.57.814 1.749 0-.466-.572-1.023-.662-1.75 0ZM52.15 439.136c1.002-.187 1.491-.38 1.479-1.402-.482.238-1.155.733-1.48 1.402ZM44.634 447.541c.372.113-.297.325.556.126 1.17-.274.16.022.605-.392-.553-.592-.119-.389-1.064-.516l-.097.782ZM37.702 418.722c.428-.141.521.354.614-.505.1-.935-.318-.591-.498-.665l-.116 1.17ZM58.107 462.715c-.187-1.11.097-.701-.61-1.119-.062.125-.615-.277-.084.607.528.878.016.126.695.512ZM32.675 411.394c1.026.16 1.071.099 1.785-.325l-1.785.325ZM37.118 413.048c.724.141.875.187 1.601.09l-1.6-.09Z" clip-rule="evenodd"/><path stroke="#232323" stroke-dasharray="10 10" stroke-linecap="round" stroke-width="3" d="M154.5 90.372c10.907 0 30.508-2.778 38.603 6.667 4.107 4.79 10.996 7.613 14.732 13.118 4.995 7.362 8.345 15.548 11.506 23.764 4.533 11.788 2.903 24.839 2.903 37.313 0 5.144-.365 8.443-2.903 13.012-2.117 3.81-6.891 5.07-8.71 8.71M111.918 293.604c-27.012 0-46.088 16.247-60.97 37.743-10.94 15.804-12.58 32.595-12.58 51.292"/></svg>