<svg xmlns="http://www.w3.org/2000/svg" width="645" height="434" fill="none"><g fill="#232323" clip-path="url(#a)"><path d="M530.643 49.839a2.551 2.551 0 0 1 2.58-2.544 2.552 2.552 0 0 1 2.544 2.58 2.553 2.553 0 0 1-2.581 2.544c-1.328-.01-2.554-1.157-2.543-2.58ZM638.142 78.42a2.551 2.551 0 0 1 2.58-2.543 2.552 2.552 0 0 1 2.544 2.58 2.553 2.553 0 0 1-2.581 2.544 2.55 2.55 0 0 1-2.543-2.58ZM509.209 258.073a.852.852 0 0 1 .86-.848.85.85 0 0 1 .848.861.85.85 0 0 1-.86.848.852.852 0 0 1-.848-.861ZM22.203 245.442a1.298 1.298 0 0 1 1.338-1.319c.76.006 1.325.579 1.32 1.338a1.297 1.297 0 0 1-1.339 1.319c-.758-.1-1.323-.674-1.319-1.338ZM77.188 384.292a1.328 1.328 0 1 0-.02 2.655 1.328 1.328 0 0 0 .02-2.655ZM286.603 426.231a2.149 2.149 0 0 1 2.198-2.167 2.148 2.148 0 0 1 2.167 2.199 2.147 2.147 0 0 1-2.198 2.166c-1.234-.008-2.175-1.059-2.167-2.198ZM2.794 42.51a1.701 1.701 0 0 1 1.72-1.695 1.701 1.701 0 0 1 1.696 1.72 1.701 1.701 0 0 1-1.72 1.696 1.701 1.701 0 0 1-1.696-1.72ZM549.176 6.51a2.551 2.551 0 0 1 2.58-2.543 2.552 2.552 0 0 1 2.544 2.58 2.551 2.551 0 0 1-2.581 2.544c-1.329.085-2.554-1.157-2.543-2.58ZM640.13 39.717a2.148 2.148 0 0 1 2.199-2.166 2.147 2.147 0 0 1 2.166 2.198 2.147 2.147 0 0 1-2.198 2.166 2.147 2.147 0 0 1-2.167-2.198ZM583.677 287.65c.013-1.708 1.351-3.027 3.059-3.015 1.708.013 3.027 1.351 3.014 3.059-.012 1.708-1.35 3.026-3.058 3.014-1.708-.012-3.027-1.35-3.015-3.058ZM343.285 382.799a3.502 3.502 0 0 1 3.536-3.485 3.504 3.504 0 0 1 3.486 3.536c-.015 1.993-1.544 3.5-3.537 3.486-1.897-.109-3.499-1.639-3.485-3.537ZM447.327 403.954c.019-2.657 2.216-4.729 4.778-4.71 2.657.019 4.729 2.217 4.711 4.779-.02 2.657-2.217 4.729-4.779 4.71-2.562-.018-4.729-2.217-4.71-4.779ZM489.552 207.542a3.511 3.511 0 1 0-.052 7.022 3.511 3.511 0 0 0 .052-7.022ZM612.846 217.164a4.354 4.354 0 0 1 4.396-4.334 4.356 4.356 0 0 1 4.334 4.397 4.354 4.354 0 0 1-4.397 4.333c-2.466-.112-4.351-2.024-4.333-4.396ZM143.696 425.577a2.182 2.182 0 1 0-.031 4.365 2.182 2.182 0 0 0 .031-4.365ZM538.428 416.759c.016-2.182 1.736-3.878 3.918-3.862 2.183.016 3.879 1.736 3.863 3.919-.016 2.182-1.736 3.878-3.919 3.862-2.087-.015-3.877-1.831-3.862-3.919Z"/></g><defs><clipPath id="a"><path fill="#fff" d="M641.647 433.543 0 428.907 3.099.003l641.647 4.636z"/></clipPath></defs></svg>