<svg width="777" height="765" viewBox="0 0 777 765" fill="none" xmlns="http://www.w3.org/2000/svg">
<g opacity="0.4" clip-path="url(#clip0_586_567)">
<path d="M585.269 85.8589C585.288 83.2426 587.098 81.1625 589.34 81.1787C591.583 81.1949 593.362 83.3009 593.343 85.9172C593.324 88.5335 591.515 90.6136 589.272 90.5974C587.179 90.5823 585.251 88.4752 585.269 85.8589Z" fill="#232323"/>
<path d="M766.553 135.608C766.572 132.992 768.381 130.911 770.623 130.928C772.866 130.944 774.645 133.05 774.626 135.666C774.607 138.283 772.798 140.363 770.555 140.346C768.313 140.33 766.534 138.224 766.553 135.608Z" fill="#232323"/>
<path d="M547.617 454.93C547.623 454.182 548.225 453.588 548.973 453.594C549.72 453.599 550.314 454.202 550.309 454.949C550.303 455.697 549.701 456.29 548.953 456.285C548.206 456.279 547.612 455.677 547.617 454.93Z" fill="#232323"/>
<path d="M171.415 752.257C171.431 749.976 172.906 748.231 174.808 748.245C176.709 748.259 178.159 750.025 178.142 752.306C178.126 754.588 176.651 756.332 174.749 756.318C172.848 756.305 171.399 754.363 171.415 752.257Z" fill="#232323"/>
<path d="M615.424 9.37811C615.443 6.76441 617.252 4.68641 619.494 4.70262C621.737 4.71884 623.516 6.82279 623.497 9.43648C623.478 12.0502 621.669 14.1281 619.426 14.1119C617.332 14.271 615.405 11.9918 615.424 9.37811Z" fill="#232323"/>
<path d="M769.735 67.6827C769.752 65.4012 771.227 63.6567 773.128 63.6705C775.029 63.6842 776.479 65.4498 776.463 67.7314C776.446 70.0129 774.971 71.7574 773.07 71.7437C771.168 71.7299 769.719 69.9643 769.735 67.6827Z" fill="#232323"/>
<path d="M672.372 506.96C672.394 503.933 674.766 501.595 677.793 501.617C680.821 501.639 683.158 504.01 683.137 507.038C683.115 510.065 680.743 512.403 677.716 512.381C674.688 512.359 672.35 509.988 672.372 506.96Z" fill="#232323"/>
<path d="M267.5 675.585C267.524 672.312 270.162 669.549 273.599 669.574C276.872 669.598 279.635 672.236 279.61 675.673C279.585 679.109 276.948 681.709 273.511 681.684C270.24 681.497 267.476 678.858 267.5 675.585Z" fill="#232323"/>
<path d="M443.497 712.514C443.53 707.993 447.269 704.468 451.628 704.5C456.149 704.533 459.674 708.272 459.642 712.631C459.61 717.152 455.871 720.677 451.511 720.645C447.152 720.614 443.466 716.873 443.497 712.514Z" fill="#232323"/>
<path d="M513.951 365.882C510.607 365.858 507.876 368.549 507.852 371.893C507.828 375.237 510.519 377.968 513.863 377.992C517.207 378.016 519.938 375.325 519.962 371.981C519.986 368.637 517.295 365.906 513.951 365.882Z" fill="#232323"/>
<path d="M723.064 381.522C723.093 377.501 726.335 374.146 730.518 374.176C734.539 374.205 737.894 377.447 737.864 381.629C737.835 385.651 734.593 389.006 730.411 388.976C726.229 388.785 723.035 385.544 723.064 381.522Z" fill="#232323"/>
<path d="M596.72 735.15C596.748 731.376 599.723 728.443 603.497 728.471C607.271 728.498 610.203 731.473 610.176 735.247C610.148 739.021 607.173 741.953 603.399 741.926C599.789 741.9 596.694 738.76 596.72 735.15Z" fill="#232323"/>
</g>
<defs>
<clipPath id="clip0_586_567">
<rect width="770.545" height="758.848" fill="white" transform="translate(771.424 764.669) rotate(-179.586)"/>
</clipPath>
</defs>
</svg>
