<svg width="811" height="570" viewBox="0 0 811 570" fill="none" xmlns="http://www.w3.org/2000/svg">
<path d="M667.623 65.2995C667.637 63.3551 668.982 61.8092 670.648 61.8213C672.315 61.8333 673.637 63.3985 673.623 65.3429C673.609 67.2872 672.264 68.8331 670.598 68.8211C669.042 68.8098 667.609 67.2439 667.623 65.2995Z" fill="#232323"/>
<path d="M802.359 102.275C802.374 100.33 803.718 98.7843 805.385 98.7964C807.051 98.8084 808.373 100.374 808.359 102.318C808.345 104.262 807.001 105.808 805.334 105.796C803.667 105.784 802.345 104.219 802.359 102.275Z" fill="#232323"/>
<path d="M639.639 339.604C639.643 339.049 640.091 338.607 640.646 338.611C641.202 338.615 641.643 339.063 641.639 339.619C641.635 340.174 641.187 340.615 640.632 340.611C640.076 340.607 639.635 340.16 639.639 339.604Z" fill="#232323"/>
<path d="M28.7455 322.687C28.7517 321.83 29.3993 321.192 30.2564 321.198C31.1135 321.204 31.7517 321.851 31.7455 322.709C31.7393 323.566 31.0918 324.204 30.2347 324.198C29.3783 324.084 28.7401 323.437 28.7455 322.687Z" fill="#232323"/>
<path d="M96.924 505.685C96.0956 505.679 95.4193 506.345 95.4133 507.174C95.4073 508.002 96.0739 508.678 96.9024 508.684C97.7308 508.69 98.4072 508.024 98.4132 507.195C98.4192 506.367 97.7525 505.691 96.924 505.685Z" fill="#232323"/>
<path d="M360.034 560.588C360.046 558.893 361.143 557.596 362.556 557.607C363.969 557.617 365.046 558.929 365.034 560.625C365.022 562.32 363.925 563.617 362.512 563.606C361.099 563.596 360.023 562.154 360.034 560.588Z" fill="#232323"/>
<path d="M3.67301 55.9985C3.68105 54.8874 4.57632 54.005 5.68739 54.013C6.79846 54.021 7.68094 54.9163 7.67291 56.0274C7.66487 57.1385 6.76954 58.0209 5.65847 58.0129C4.54739 58.0048 3.66498 57.1095 3.67301 55.9985Z" fill="#232323"/>
<path d="M690.035 8.4564C690.049 6.51395 691.393 4.96961 693.06 4.98167C694.727 4.99372 696.049 6.55733 696.035 8.49978C696.021 10.4422 694.676 11.9865 693.009 11.9745C691.453 12.0927 690.021 10.3988 690.035 8.4564Z" fill="#232323"/>
<path d="M804.724 51.7903C804.737 50.0947 805.833 48.7983 807.246 48.8085C808.659 48.8187 809.737 50.1309 809.724 51.8265C809.712 53.5221 808.616 54.8186 807.203 54.8083C805.79 54.7981 804.712 53.486 804.724 51.7903Z" fill="#232323"/>
<path d="M732.362 378.276C732.378 376.026 734.141 374.289 736.391 374.305C738.641 374.321 740.378 376.084 740.362 378.334C740.345 380.584 738.583 382.321 736.333 382.305C734.083 382.288 732.346 380.526 732.362 378.276Z" fill="#232323"/>
<path d="M431.448 503.603C431.465 501.171 433.426 499.117 435.98 499.136C438.413 499.153 440.466 501.114 440.448 503.668C440.429 506.222 438.469 508.154 435.915 508.136C433.484 507.996 431.43 506.036 431.448 503.603Z" fill="#232323"/>
<path d="M562.253 531.05C562.277 527.69 565.056 525.07 568.296 525.093C571.656 525.117 574.276 527.896 574.253 531.136C574.228 534.496 571.449 537.116 568.209 537.093C564.969 537.069 562.229 534.29 562.253 531.05Z" fill="#232323"/>
<path d="M614.617 273.422C612.132 273.404 610.102 275.404 610.085 277.889C610.067 280.374 612.067 282.403 614.552 282.421C617.037 282.439 619.066 280.439 619.084 277.954C619.102 275.469 617.102 273.44 614.617 273.422Z" fill="#232323"/>
<path d="M770.037 285.046C770.059 282.057 772.468 279.563 775.577 279.586C778.566 279.607 781.059 282.017 781.037 285.125C781.015 288.114 778.606 290.608 775.497 290.585C772.389 290.443 770.016 288.035 770.037 285.046Z" fill="#232323"/>
<path d="M180.539 559.29C179.158 559.28 178.029 560.615 178.017 562.272C178.005 563.929 179.115 565.28 180.495 565.29C181.876 565.3 183.005 563.965 183.017 562.308C183.029 560.652 181.919 559.3 180.539 559.29Z" fill="#232323"/>
<path d="M676.134 547.874C676.155 545.069 678.366 542.89 681.17 542.91C683.975 542.93 686.154 545.141 686.134 547.946C686.114 550.751 683.903 552.93 681.098 552.91C678.415 552.89 676.115 550.556 676.134 547.874Z" fill="#232323"/>
</svg>
