<svg xmlns="http://www.w3.org/2000/svg" width="914" height="588" fill="none"><path fill="#232323" d="M751.934 63.111c0-1.95 1.622-3.509 3.65-3.509 2.027 0 3.649 1.56 3.649 3.51 0 1.95-1.622 3.509-3.649 3.509-1.892 0-3.65-1.56-3.65-3.51ZM905.349 101.194c0-1.95 1.622-3.51 3.65-3.51 2.027 0 3.649 1.56 3.649 3.51 0 1.949-1.622 3.509-3.649 3.509-2.028 0-3.65-1.56-3.65-3.509ZM723.549 348.536c0-.65.541-1.17 1.217-1.17s1.216.52 1.216 1.17c0 .65-.54 1.17-1.216 1.17-.676 0-1.217-.52-1.217-1.17ZM29.737 336.058c0-1.04.81-1.819 1.892-1.819 1.082 0 1.893.779 1.893 1.819s-.811 1.82-1.893 1.82c-1.081-.13-1.892-.91-1.892-1.82ZM109.486 525.691c-1.046 0-1.893.815-1.893 1.82 0 1.005.847 1.82 1.893 1.82 1.045 0 1.892-.815 1.892-1.82 0-1.005-.847-1.82-1.892-1.82ZM408.205 581.061c0-1.69 1.352-2.99 3.109-2.99s3.109 1.3 3.109 2.99c0 1.689-1.352 2.989-3.109 2.989s-3.109-1.43-3.109-2.989ZM0 58.302c0-1.3 1.081-2.34 2.433-2.34 1.352 0 2.433 1.04 2.433 2.34 0 1.3-1.081 2.34-2.433 2.34-1.352 0-2.433-1.04-2.433-2.34ZM777.887 3.583c0-1.95 1.622-3.51 3.649-3.51 2.028 0 3.65 1.56 3.65 3.51 0 1.95-1.622 3.51-3.65 3.51-1.892.13-3.649-1.56-3.649-3.51ZM907.782 48.164c0-1.69 1.352-2.989 3.109-2.989s3.109 1.3 3.109 2.99c0 1.69-1.352 2.989-3.109 2.989s-3.109-1.3-3.109-2.99ZM829.926 388.308c0-2.339 1.893-4.159 4.326-4.159s4.325 1.82 4.325 4.159c0 2.34-1.892 4.16-4.325 4.16-2.433 0-4.326-1.82-4.326-4.16ZM488.494 521.013c0-2.6 2.162-4.81 5.001-4.81 2.703 0 5.001 2.08 5.001 4.81 0 2.729-2.163 4.809-5.001 4.809-2.703-.13-5.001-2.21-5.001-4.809ZM636.907 548.957c0-3.639 3.109-6.499 6.758-6.499 3.785 0 6.759 2.99 6.759 6.499 0 3.639-3.109 6.499-6.759 6.499-3.649 0-6.758-2.99-6.758-6.499ZM695.029 279.519c-2.762 0-5.001 2.153-5.001 4.809s2.239 4.81 5.001 4.81c2.762 0 5.001-2.154 5.001-4.81 0-2.656-2.239-4.809-5.001-4.809ZM870.747 291.477c0-3.249 2.704-5.979 6.218-5.979 3.379 0 6.218 2.6 6.218 5.979 0 3.25-2.704 5.979-6.218 5.979-3.514-.13-6.218-2.729-6.218-5.979ZM204.643 581.581c-1.717 0-3.109 1.338-3.109 2.989 0 1.651 1.392 2.99 3.109 2.99s3.109-1.339 3.109-2.99c0-1.651-1.392-2.989-3.109-2.989ZM766.803 565.594c0-2.99 2.433-5.329 5.542-5.329s5.542 2.339 5.542 5.329c0 2.989-2.433 5.329-5.542 5.329-2.974 0-5.542-2.47-5.542-5.329Z"/></svg>