<svg xmlns="http://www.w3.org/2000/svg" width="344" height="335" fill="none"><path fill="#232323" fill-rule="evenodd" d="M188.485 328.282c-.517 1.403.999.755-1.632 1.048l1.632-1.048Zm2.64-4.295c3.04 1.772-1.934-1.457.761.459.072.05.31.459.368.337.058-.131.239.247.352.369-.999 1.696-.86 1.957-3.023 1.556.206-3.458.926-2.424 1.542-2.721Zm2.5 2.263c1.484-.581 5.555-.491 7.924-.991 2.91-.621 4.016-2.212 6.13-1.367-5.735 2.311-6.769 3.377-11.162 3.237-2.852-.09-1.827 1.574-2.892-.877v-.002Zm6.981-2.614c-.073-2.262 2-1.588 3.121-.63l-3.121.63Zm9.202-6.179c.885-3.302 8.267-2.474 11.266-2.483 11.383-.017 3.229-4.164 11.105-3.844-1.255 2.352-7.76 6.408-10.596 7.308.607-.859.859-1.025 1.263-2.204-4.057 1.597-7.947 1.827-13.038 1.22v.003Zm25.78-8.194c-1.853.894-.935.621-2.236-.023.072-.067 1.065-.36 1.237-.369 1.484-.073.36-.041.999.392Zm-16.758 2.909c2.271-2.572 17.373-12.259 21.665-12.637-.557 1.728-.769 1.525-2.343 3.032l.706 3.023c-2.312 1.687-3.836 1.753-6.786 1.902-3.523.171-.671 1.358-7.335 1.205.31 2.221 1.884 1.992-.779 3.409-1.957 1.048-3.571.894-5.13.066h.002Zm21.421-8.023c-.32-1.852.032-2.122 1.925-3.13 9.408-5.006 2.05-.886 4.719-3.885.9-1.025 1.844-1.138 3.203-.985-2.155 1.746-6.531 7.449-9.85 7.998l.003.002Zm8.441-10.784c1.385-1.435 5.041-3.337 7.169-3.572-1.083 2.375-2.375 2.834-4.205 4.719-.36-.09-1.777-.378-1.843-.41-1.525-.557-.189.099-1.124-.737h.003Zm25.649-110.591c1.016 1.574 1.074.729-.067 2.262-.409-.508-1.475.639.067-2.262Zm-13.987 15.291c-.189-2.465-.36-5.311-.509-7.596-.171-2.779.779-3.162 2.051-4.844 3.278-4.335 4.466-7.268 7.866-6.89-.436 1.817-1.327 2.032-1.966 3.809 3.531.189 1.597-1.951 5.892-4.169l.589 2.508c-2.14 1.098-1.722.689-3.589 2.532-1.452 1.426-1.664 1.075-2.555 3.058 2.041-.435 1.426-.467 3.089-1.179-.081 2.466-.804 2.515-2.073 3.9-1.246 1.353-1.443 1.803-2.802 3.328-1.722 1.925-3.188 4.983-5.99 5.549l-.003-.006Zm-1.304-17.792c1.214-1.713 2.549-2.604 4.056-4.448 1.777-2.163 1.975-4.057 4.443-2.95.976 2.622-1.728 5.162-3.107 6.736-1.597 1.818-2.68 4.719-4.983 5.474l-.409-4.812Zm10.497-8.203c.09-1.048.665-.984 1.623-1.173l-1.623 1.173Zm.099-3.417c.058-.72.426-.918.615-.073.163.761-.647.418-.615.073Zm-66.212-3.058c.058-.058-.427-2.041 2.082-.157-1.295.976-.441 1.124-2.082.157Zm-23.872-.607c.041-1.492.616-.557.77-.009.157.549-.796 1.066-.77.009Zm-23.755-.107c2.14-1.246 7.622-1.682 9.318.098l-9.318-.098Zm-13.178-.509c.131-.058.311-.148.392-.162l1.269-.122c.755.009 1.057.171 2.187.171.984.009 1.367-.22 2.474-.032 1.655.279.705.221 1.443.761-2.64 1.525-3.072.058-4.597 2.991l-.467-.688c-1.484-1.925-1.705-1.22-2.704-2.919h.003Zm24.191-1.219c.082-.976-.621-.139.541-.157.917-.009-.631 1.188-.541.157Zm21.913-.616c.877-.868-.122-.656 1.736-.836.526-.049 1.173.247 1.681.36-.697 1.313-2.09 2.564-3.417.476Zm-16.079 0c.639-.441.212-.49 1.385-.729 1.025-.206.131-.072 1.174-.049.54.009 2.114.401 2.793.517-.607 1.533-4.187 3.45-5.352.261Zm-51.698 0c.162-.09-.575-1.353 1.359 0-1.008.819.121.967-1.359 0Zm-7.943-1.623 2.73 1.214c3.36-.575 2.672-2.402 3.107.148l-6.85.517 1.016-1.876-.003-.003Zm83.339.77c2.05.058 4.434.58 6.301.188 1.655-.351 1.885-1.359 3.476-.557-1.368 2.425.171.851-3.278 1.295-1.246.163-2.744.549-4.417.616-.261 2.688.581 2.424-1.196 3.975-.869-1.313-.485-3.319-.886-5.514v-.003Zm-55.912 1.466c-1.124.558 1.884 1.124-1.507.238l1.507-.238Zm-8.162-1.574-2.901 2.105-4.762-2.006 7.663-.099Zm125.405 2.599c2.515-1.925 3.351-4.965 6.238-5.77-1.934 4.098-.738.77.206 4.884l-5.041 8.334c3.949-.549 1.254-4.384 6.981-3.859.9-2.361.197-2.204 2.932-2.973-.575-2.55-.54-1.188-1.083-3.18.927.369.607-.148 1.269 1.597.302.81.616 1.925.787 3-4.056 1.812-2.459-.14-3.926 2.311-1.492 2.492-4.704 9.089-7.425 9.85l-.943-14.194h.005Zm-43.135-6.612-1.681 4.713c-.526.836-.386.409-1.164.926l-1.124-3.76 3.966-1.876.003-.003Zm.99.747c1.083-1.542 3.058-2.361 4.835-1.269-1.548 1.614-2.729 2.096-4.835 1.269Zm-115.823-.665c.22-.212-.715-2.654 3.571-.811-1.286 1.025-1.983 1.354-3.571.811Zm122.997-1.836c.238-1.672 3.238-1.402 5.055-1.263-.804 1.458.549.9-2.064 1.681-2.524.747-2.861-.319-2.991-.418Zm-142.548 2.213c-.04-6.557.067-3.81.91-4.826.252.18 2.05.148.27 3.467-.73 1.353-.32.491-1.18 1.359Zm113.177-4.655c-.008-.162.247-.836.5.05.311 1.115-.485.319-.5-.05Zm38.597-.058c-1.681.581-.696.819-2.024.058 1.754-1.138 1.017-.621 2.024-.058Zm-35.826-1.786c1.705.639 1.402.581 2.375 1.778-3.409.386-2.27 1.025-2.375-1.778Zm-67.745 3.778c.36-2.369.647-2.523 2.834-3.801.967.755 2.648.845 4.719.746-2.23.985-1.484-.098-2.974 2.303l-4.582.755.003-.003Zm105.513-3.769c.72-1.957 1.435-1.588 3.13-2.892l2.065 1.057c-1.164 1.516-3.139 3.278-5.195 1.835Zm-114.813 2.95c1.417-3.67 4.917-5.014 10.088-5.162-.845 1.91-2.744 3.917-5.285 5.549l-4.803-.387Zm-39.046-8.31 1.605 1.588c-2.055-.212-1.327.531-1.605-1.588Zm46.698.278c6.377-2.514 3.975-.885 4.663-.418-1.434 2.41-1.574 1.04-4.434 1.867-1.957.567-2.05.944-4.506 1.263l4.277-2.712Zm-53.848.401c-.14-.984-.328-1.344-.081-2.474.638-2.959-.009-.467.943-1.646 2.573 2.279.058 3.211-.86 4.12h-.002Zm144.904-.09c1.359-2.163 4.614-5.909 6.728-4.399-1.426 1.074-1.597.909-2.851 2.401-1.632 1.925-.648 1.655-3.877 2.001v-.003Zm-140.377-4.08c-2.024-1.498-1.402-2.032-.4-4.582l1.942.851c-.436 2.006.198-.436-.81 1.777-.36.787-.441 1.263-.729 1.951l-.003.003Zm173.375-2.761c-1.278-4.089 1.588-.81-.9-4.237l2.285-.581c-.067 4.951-1.318 6.54-3.566 9.58-1.736-.999-1.992-1.835-3.597.131.827 2.491-.238.427 2.114 1.777l-1.844 2.991-4.466-.418c-.099-4.713 1.277-1.359 2.236-5.622.714-3.139-.279-3.688 3.008-4.997l-1.313 4.097 4.588.566-1.263-2.46c-.049-.287-.188-.328-.278-.49 4.434.926 1.884.36 2.99-.337h.006Zm-126.342 5.505c.778-2.671 2.549-5.064 3.876-7.825 1.295-2.68 3.616-3.621 7.129-3.941l-3.351 9.556a5.13 5.13 0 0 1-.485.122l-7.169 2.091v-.003Zm130.646-11.621c.009-.76.288-.688.418-.017.157.778-.418.418-.418.017Zm-22.191 4.844c.68-3.581 1.902-8.851 5.869-9.04.671 4.943-.99 6.499-5.869 9.04Zm19.789-4.826c-1.893-.45-1.556-.935-3.827-.288-.162-1.983-1.057-4.228-1.057-6.08l1.075-.009c.548 2.918-1.687 2.5.949 5.294 2.065-.944.468-1.13 2.738-1.917l.122 3Zm-47.453 13.47c-.369-3.621 1.664-5.235 3.238-7.785 1.687-2.73 10.34-18.569 12.012-19.258 3.293-.116 7.12.851 9.818 1.894 2.221.85 4.925 3.269 6.769 4.933-.476 1.147-1.179.967-3.859 5.392-.918 1.507-2.695 2.924-4.121 4.353 1.763 1.173.985-.54 2.402 2.451-1.943.949-3.468 1.925-6.014 2.303.54-2.042 3.113-4.719 4.187-7.768-5.825-5.688-7.161-1.254-10.195 1.359-1.934 1.673-3.328.895-5.082 2.959-.819.967-.819 1.318-2.041 2.236-2.419 1.803-.828-.647-1.951 2.335l5.621-.558.77-3.557 4.475-1.008c1.219-4.408-2.033-1.826 5.964-4.286-.229 3.27-.041 1.664-2.361 3.099l-8.055 8.45c-3.287-.909-5.023.967-6.342 3.917 2.172.958 1.687.328 2.753 1.727l-12.872 2.312c1.048-1.713 1.016-.804 2.32-3.203 1.124-2.065.139-1.542 2.564-2.294v-.003Zm36.114-26.328c.621-.418-.139-.392 1.196-.491 3.049-.238.32-.099.895.491-.665 1.623-.665 1.312-2.091 0Zm-4.425-2.901c2.752-.041 2.006-1.173 1.606 1.269l-1.606-1.269Zm-4.147 2.819c-3.319-1.623-8.064-1.681-11.112-2.973.485-3.418 4.678-2.236 6.948-1.368 2.893 1.115 2.721 2.794 4.858 3.679 4.254 1.772 7.678 3.18 11.392 5.639.549 3.378 1.484 5.982 1.214 9.243-2.631 1.844-4.417 2.425-5.073 6.607-.738 4.768-2.23 2.828-5.753 5.04-1.844 1.165-2.474 2.695-7.088 4.548l-17.207 5.366c-9.333 4.295-11.456 2.491-18.341 3.122-3.359.31-5.212-1.026-9.907-.099l-27.511 1.237c-3.327.679-8.162 2.59-14.306-.122-7.629-3.368-11.949-.549-19.502-1.777-6.792-1.107-15.587-1.269-17.661-5.082 3.154.761 5.671 1.467 9.17 1.917l20.149 2.096c9.333.311 14.563-.549 21.404-.525 10.317.032 21.052 1.173 31.91-.747l1.713 1.385c2.59-1.672.369-1.425 5.18-2.041l17.954-3.368c5.744-1.034 6.606-2.5 10.523-4.121 2.326-.958 3.197-.22 5.874-1.507 3.958-1.893 10.219-5.351 12.719-8.67 3.516-4.678.761-13.439-7.547-17.479Zm.72-3.58c.442-.261-.107-.221.9-.279.09-.008.657.189.845.262-.252.148.796 1.614-1.745.017Zm-4.744-5.32.589 2.614-2.712-1.138 2.123-1.476Zm-6.656.567c-.851 2.204-.697 1.965-2.86 1.089.148-.976 1.687-1.066 2.86-1.089Zm-63.378-4.4c5.834-.081-.18.819 7.623-.246.531-.067 6.13.278 7.695.319 5.204.116 11.571-.131 16.488.54 3.261.45 3.589 1.417 7.956 1.394 3.836-.017 4.344 1.034 7.326.944.819-1.812.787-2.744 2.869-3.351 0 2.14-2.082 4.843-3.481 6.58-4.156.22-10.808-2.187-14.734-2.326-14.905-.549-24.403-1.188-39.671.319-1.066.099-3.008.253-3.966.5-1.696.441-1.763.859-2.335 1.443 4.12.247 10.843-.59 15.283-.967 11.531-.985 33.138.435 43.783 2.639-1.107 4.884-8.253 15.594-10.843 20.045l-7.753 14.865c-.779 1.951-1.287 3.458-2.384 4.924-7.975.787-16.003.491-23.823.163-4.762-.206-8.177-.032-12.867.163-4.097.162-8.383-.622-12.381.017.975-2.105-.828-.581 1.672-1.795 1.368-.665 3.679-.485 1.606-2.549 3.467-.517 1.704.229 2.245-1.632l-7.417.836c.837-2.064 1.255-2.146 2.007-4.318 2.779-8.014 3.571-16.569 11.275-19.339 4.672-1.673 6.391-.86 10.799-.131-2.082-5.122-11.784-.647-15.251-.017.328-3.328.108-1.812 2.672-3.482 6.054-3.958 10.439-1.614 12.309-2.721-1.803-2.195-4.983-1.318-7.767-.647-4.278 1.025-3.261 1.254-6.58 3.246l.302-4.753c1.745-.967 4.204-1.664 6.318-2.222l5.514-1.115c1.214-.246.909-.246 1.368-.458-7.497-.32-7.349 1.155-12.867 2.369l-.157-9.228 17.159-.009h.008Zm-23.509 1.534c-.122-.05-.328-.18-.476-.238l-1.048-.271c-.967-.261-.09.369-1.705-.435.491-3.252 2.492-2.892 6.377-2.852 1.475 5.875 1.394 10.988.418 17.235-1.039 6.655-1.876 9.66-8.661 10.578l1.637-9.095c1.04-3.934 4.007-2.581 4.678-6.063l-4.277 1.844.351-3.081c2.55-1.867 3.787-.688 5.367-3.057-1.557-.796-3.433.212-5.582.647l-.058-3.984c1.958-.279 1.943 0 3.433-.949-.148-.099-.337-.23-.459-.279h.005Zm60.666-3.499c1.983.746 1.048-.927 1.803 1.803-2.221-.09-1.196.589-1.803-1.803Zm5.212.72c1.638-.657 3.615-.288 5.113.598l-5.113-.598Zm-55.584-.895c.14-1.425 1.017-1.425 1.295-1.434l-1.295 1.434Zm-2.244-.943c-.108.122.148.688-1.237 1.016-1.682.401-.346.09-1.278-.401.877-.621-.049-2.064 2.515-.615Zm44.816.072c-3.13.567-2.654 1.772-4.326-1.303 2.033-.024 3.795.287 5.581.606 2.23.41 2.77-.008 3.508 1.853-2.146.999-3.261-.27-4.763-1.156Zm-18.061.828c2.523-1.214.435-.09 1.556-2.384l10.735-.116c-1.164 2.474-2.784 4.457-5.918 1.696-.116-.099-.665-.346-.737-.616-.058-.221-.27-.206-.418-.296l-.796.607c-.081.072-.247.229-.328.302l-4.097.804.003.003Zm-2.114-1.507c-1.286.63-1.408.885-2.155-.845.622.081.352-.058 1.04.18.877.311.81.441 1.115.665Zm-12.8-1.22c2.465-1.646 5.752.238 8.85.779l-1.547 1.983-.45-1.452c-.018-.212-.099-.296-.163-.436-2.605.27-2.082.247-3.885 1.354l.252-1.656c-3.049-.066-2.064.067-3.057-.575v.003Zm-2.14.157c-1.115 2.442.09 1.664-2.181 2.402-1.475-1.229-.581.238-1.034-2.181l3.212-.221h.003Zm-15.201-2.425c.467 4.147-2.59 3.319-6.467 4.016l-1.835-7.253c1.353-1.368 4.826-1.763 7.079-1.124l.221 2.343c-3.845 1.804-3.54-1.115-5.154 2.451 1.277.581-2.056 1.295 3.017-.229 1.713-.517 1.312-.41 3.139-.206v.002Zm-2.303-7.514c-.845 1.884-1.353 1.278-6.777 2.401-.532-1.048-.738-1.367-1.156-2.401 1.417-1.107 2.181-1.313 4.309-1.452 3.342-.212 2.492-.558 3.621 1.452h.003Zm196.33-1.754c.819-.58-1.327-.607 1.812-.746 3.107-.14 1.359.319 1.934.665-2.114.68-1.713 1.04-3.746.08Zm-205.555-1.304c1.048-.508 2.828-1.016 4.327-1.408 2.778-.72 2.491-.796 3.107 1.408-1.484.77-1.574.442-3.662.639-4.245.392-2.869.157-3.769-.639h-.003Zm-1.13-1.304c-3.899-5.276-2.598-1.327-4.884-6.03.927-1 1.467-1.656 3.909-2.097-3.252-.648-3-.622-5.515.032l-1.623-2.204 8.081-.558c.073.09.198.261.288.352l1.443.949c1.533.967 1.124.54 2.14 2.213l1.606 2.648c.639.99.72 1.164 1.156 2.523l-6.598 2.172h-.003Zm-55.633 18.323c-3.68-1.295-9.22-11.293-10.16-13.637-3.017-7.546-10.776-21.206-2.69-24.803 5.802-2.582 15.112-1.673 21.43-1.647 5.515.018 4.835 1.557 6.032 5.343-4.507 5.564-6.409 17.568-8.055 23.035-.607 2.007-1.139 1.836-1.714 4.475-.95 4.344-.598 6.113-4.843 7.236v-.002Zm39.947-35.481c2.564-1.353 8.357-2.221 11.324-2.236l3.499 5.416c-1.632 1.393-3.368 1.632-5.63 2.055-3.557.665-3.607.787-4.727-2.096l7.294-1.484c-5.86-1.942-6.926 2.05-11.76-1.655Zm160.648 185.93.212-2.834c1.13-.836 2.509-1.672 4.597-1.637l-2.352 7.564c-1.008 1.443-8.818 3.63-10.637 8.128 3.058-.72 3.009-2.195 6.072-3.023-8.136 9.687-34.941 19.798-36.915 21.799 2.221 1.083 21.749-8.819 25.518-11.227l9.661-4.056-1.975-1.417c5.825-1.812 1.263-2.222 5.918-4.219-.729 3.162-1.066 1.254-1.763 3.4-.589 1.803.346 1.736-.885 3.99-1.255 2.311-2.924 4.114-4.22 6.188-.458-.108-.261-.247-1.353-.212-2.712.066-.647.072-1.565.4-2.006 2.878-4.794 4.516-6.841 7.254 2.573-.738 5.924-3.4 7.03-4.637-.36 2.105-2.065 4.483-3.679 4.866-.116.032-.337.099-.476.131l-2.05.346c-7.35 1.466-6.171 5.27-8.433 7.523-1.313 1.304-2.015.836-3.557 2.541-2.28-.949.328-1.147-2.474-.738-6.522.944-11.122 6.113-16.735 9.063-1.516.804-3.76 1.974-5.235 2.671-2.187 1.025-3.468 1.049-4.615 2.649-1.974 2.752-6.655 3.4-8.792 6.039 4.393 1.124 9.251.796 14.069.828-5.901 2.991-5.5 2.14-11.316 2.056-3.287-.041-3.139.476-3.737-1.574-.024-.081 0-.296-.018-.36-.017-.067-.017-.27-.023-.328-.122-.895-2.582-.148-3.337-.067.378 3.122.131 4.565-4.352 5.253l-1.624-1.975c-5.293-.04-4.556-.418-6.097 3.729l-4.803-.999c.008-2.375 1.359-3.188.508-5.041-1.336 1.237-1.902 3.139-3.017 4.637-1.606 2.146-2.869 1.624-3.197 4.278 3.696-.721 6.557-5.59 6.054 1.556-4.399.999-6.391.476-10.964.27 1.155-1.861 6.53-7.669 5.613-10.424-2.196 1.034-2.28 3.696-3.95 5.819-1.228 1.574-2.738 2.146-3.597 3.885-.024.058-.279.886-.392 1.188l-8.441.279 2.869-5.59-.337 4.425c3.795-.943 6.818-8.603 6.989-9.776-4.056 1.91-2.015 3.621-4.803 5.793-.18-5.262 2.001-10.384 1.313-16.398-2.05 3.153-.671 8.513-2.599 12.088-.851 1.574-1.359 1.237-2.761 4.606-1.165 2.793-1.098 3.327-4.008 3.49.067-1.934.189-1.673.526-3.418.894-4.588.287-1.942-.369-2.973-1.614 1.426-1.983 3.688-2.729 6.193-.436 1.458-.253.787-.944 1.476-3.247-1.385-2.033-3.999-1.681-7.539-3.572 1.565-.59 4.713-2.492 6.359-3.359 1.345-3.67-5.366-4.997-8.087-.77.77-1.327-2.055-.796 2.376.23 1.925 1.498 3.751 1.917 5.491-6.113.238-5.181-3.72-7.237-7.974-1.213.958-1.812.859-.877 3.391.346.935.901 1.687 1.319 2.631-4.196-.369-5.631-5.729-8.392-7.898-.401.836-.935-1.173-.288 1.681.5 2.181 3.769 5.68 5.451 6.769-6.949-.5-10.48-8.081-14.807-8.136.459 2.802 3.023 2.9 4.498 5.032-1.542-1.269-5.221-3.427-8.136-3.778 2.245 1.269.746-.122 1.795 1.943-8.77-.755-13.038-3.877-19.905-8.023-10.997-6.647-15.864-11.465-25.159-20.684l-13.424-14.104c-5.27-5.456-12.342-22.631-14.383-30.861-2.924-11.824-4.196-20.463-3.107-33.597 2.024-24.345 6-37.09 14.752-58.647 2.482-6.113 5.554-12.867 9.498-18.012 2.793-3.647 3.292-1.115 4.007-4.727-3.107-.805-3.958 1.263-5.343 3.391-6.098 9.4-8.046 17.553-12.594 25.902-3.54 6.481-4.268 14.194-7.227 20.855-3.293.107-16.929-7.965-19.536-10.358-8.357-7.669-7.515-5.491-14.545-15.405-3-4.236-3.212-4.483-5.45-9.84-1.452-3.459-2.91-7.196-3.68-10.974-2.959-14.496.122-16.438 1.075-27.336l-.927-.54c-.008-.067-.098-.041-.148-.067.616-12.22 4.376-8.136 2.515-13.938 2.834-4.596 5.276-8.94 8.122-12.963-.328-.72-.261-.54-.508-1.048-.023-.067-.148-.197-.171-.386-.024-.198-.122-.261-.18-.392 3.031-2.105 1.573-1.777 3.287-4.49 2.973-4.727 7.465-7.776 11.537-11.063 10.34-8.343 34.743-15.405 46.759-14.446 21.42 1.713 12.579 2.28 18.953 3.615l4.399 1.164c1.867.918.171.032 1.034.761-2.492.976-7.998.836-10.686 2.45 1.588.878 12.561-1.901 12.561-1.901 2.14.032 6.13 3.301 7.785 4.547l2.056 1.737c-3.818-.845.288-.77-3.139-.927l-3.269 1.057c2.105.558.836.189 3.098-.032-1.574.392-2.181.526-3.337 1.632 2.419.868 6.278-.476 9.252-.531 1.286 1.475 2.401 1.925 3.934 2.779-15.309 2.967-6.687 2.703-17.652-1.548-2.424-.935-4.826-1.728-7.137-2.712-13.07-5.54-29.863-6.557-43.211-1.934-1.368.468-2.361.697-3.845 1.124-4.991 1.417-2.28 2.154-5.909 5.032-4.539 3.59-12.022 9.472-15.03 13.717-11.949 16.857-17.527 31.37-13.604 53.879.697 3.99 1.893 5.015 3.377 8.261 1.147 2.524 1.916 5.982 2.883 8.735 1.287 3.638 7.3 10.907 10.038 13.201 1.452 1.219 1.827 1.065 3.45 2.648l6.377 5.244c2.343 2.056 7.596 7.065 10.619 5.204-1.557-2.303-5.605-3.319-8.046-5.335-1.754-1.451-1.04-1.588-3.572-3.162-2.974-1.852-7.907-6.04-9.93-9.004-1.696-2.483-4.565-5.181-5.654-7.187-1.696-3.122-2.114-6.696-3.621-9.833-4.876-10.177-7.022-20.625-4.582-32.714 3-14.882 8.162-19.001 12.57-26.575 2.474-4.236 3.197-3.795 6.072-6.769 1.083-1.123 2.82-2.13 3.507-3.17 1.246-1.885.117-1.435 3.377-3.4 5.524-3.329 11.023-7.03 17.357-8.358 4.303-.894 6.292-2.334 10.39-2.465l.54 2.695c3.27-.828 4.582.787 6.696-.828l1.254-1.318c3.45.36 5.5-.171 5.55 3.113-5.573 2.924-18.858-2.132-26.919 3.696-2.77 2.001-3.557 8.122-2.163 11.276 1.574 3.548 2.828 8.055 4.335 10.996 2.51 4.916 2.007 5.213 5.245 9.99 2.081 3.063 3.342 7.555 6.777 8.539 5.784 1.664 7.245-2.654 7.883-7.114.581-4.007 2.541-7.564 3.287-12.135 1.27.918.59.805 2.213 1.246l.526-3.203c.943-.116 1.646-.148 3.08-.238l3.261-1.048c-1.237-.828-.27-.369-2.622-.706-1.556-.23-.998.099-2.37-.517.338-2.491-.237-1.507 2.835-1.974-1.083-2.695-.926.023-1.173-3.188l3.572-.985c-.436-.958-.212-.615-.9-1.277-1.319-1.278 1.901 1.631-.671-.517-.073-.058-.302-.1-.352-.297-.05-.206-.238-.206-.4-.319l-.207-5.703c3.171.261 10.547.212 12.112-1.632-1.745-1.008-8.99.247-11.275.508-1.795-2.105.27-.714-2.123-2.671-1.507-1.237-1.403-.656-2.515-2.123l.9-2c6.063-.131 11.482 3.286 16.956 5.284 2.091.761 3.351 1.597 4.138 3.058-3.572.59-4.08-.157-3.99 3.522 3.891.253 1.966-.31 3.418-1.033 4.916-2.434 7.956 2.45 10.735 5.226 2.27 2.28 3.49 3.162 5.36 6.278 2.883 4.826 7.892 7.007 9.916 21.952-9.948.369-7.538 1.812-10.39 2.925-3.606.09-6.655-.082-7.825 2.465.796.351 7.825-.671 9.507-1.368 2.77-1.147 4.245-3.153 9.341-2.105l.049 11.586c-2.163-.491-4.916-2.474-5.941.45 2.599.926 2.689-.122 5.483 1.835.427 7.876-10.448 29.198-13.055 30.556-4.22.755-14.882-1.951-18.773-3.278-2.074-.714-5.154-2.828-6.72-4.228-4.858-4.335-2.442-4.448-5.081-5.351-1.443 2.131-.729 3.153.868 4.672.558.525 1.403 1.097 1.992 1.672 3.81 3.761 5.694 3.886 10.727 5.793-.778.549 1.353.837-1.885.715-1.664-.067-3.481-1.647-5.096-2.32-3.876-1.606-3.391-.581-6.278-3.491-5.073-5.113-3.13-8.055-7.344-11.906 1.058-1.835 1.264-.67 2.254-2.738-2.425-.615-2.843.279-4.408 1.673-2.555-1.853.261-1.467-3.072-1.943-.508 4.007 1.048 1.861-.671 5.36-1.885 3.836-2.433 8.924-3.63 12.841l-4.907 17.373c1.728-1.458.63-.073 1.565-2.91l3.229-8.177c.566 5.137-1.826 8.293.77 10.799.714-.851 1.033.944.4-3.148-.755-4.942.567-16.824 5.712-19.429 4.997 5.613 1.867 16.601.958 22.362-.41 2.605-.296 24.06.262 25.239 1.327-2.212.926-10.604.876-13.906l1.632-12.381c.262 14.989-4.762 47.816-1.785 55.566.877-1.632.067-13.717.351-16.969.526-5.965 1.13-11.366 1.737-17.02.908-8.4-.45-27.591 3.917-33.442 2.744.467 4.547 1.614 7.178 2.369 7.915 2.28 5.383 3.238 14.882 4.696 4.228.647 3.017 1.574 6.063 2.918 3.458-.886 2.581-.944 6.769-.392 4.483.59 2.86.935 6.063 2.073 1.777.247 6.728-1.983 12.588-.58 6.048 1.443 3.539 3.449 7.596 5.366 2.195-1.075 2.042-2.065 3.662-3.787 4.007-.639 9.341-1.179 13.43-.99 3.057.148 2.729.59 6.071-.252 2.23-.567 3.499-.895 6.113-.485 4.515 9.138.557 26.993 2.509 30.779 2.819-4.628.85-20.027 1.794-26.008 4.507-5.155 3.909-5.056 12.269-5.596 4.547 2.163 2.622 1.548 4.344 5.465 2.555.162 2.41-.45 4.219-2.033 6.008.851 3.589-.499 7.349-.746 3.287-.212 4.507.706 6.351-1.736 4.434-5.843.868-4.498 9.269-7.205 16.462-5.302 13.488-5.778 17.274-7.253 3.261-1.269 3.319.531 6.22.81 2.64-3.581 1.408-3.113 5.663-7.835 2.671-2.967.966-6.489 5.644-8.243-.688 2.36-.998 1.875-1.992 3.795.95 1.861.599.392 1.017 2.474l-4.106 5.973c4.025-.845 2.41-4.007 5.851-4.533 1.885 3.049-2.369 4.672-3.287 7.573 3.148-.162 1.597-2.54 5.032-2.703.302 3.04-2.335 4.817-3.368 7.254 3.818-1.403 2.892-4.548 5.63-4.066 1.664.851-.435 4.17-1.263 5.303-.918 1.269-2.729 3.836-3.656 4.538-1.327-3.188-.999-7.703-4.713-7.399-.139 2.236 2.591 5.401 2.631 9.417-1.727-2.892-1.196-5.711-4.318-6.678 1.304 4.916 6.377 17.292 5.973 22.313-15.134 8.275-33.407 9.179-35.385 10.709 11.955 1.745 33.416-9.18 35.835-8.802 2.442 5.482.41 5.703-1.606 9.687l2.681-.926c1.025 2.9 1.074 8.087-.262 10.48 3.769-.14.886.476 3.064-1.574 3.507-3.302 6.876-6.072 9.75-9.76 1.458-1.876 2.411-2.549 4.678-2.918 1.174 4.916 2.605 13.38 2.146 18.979-2.32-.77-1.623-.657-.926-2.983-.148-.098-.369-.171-.476-.229-.099-.067-.337-.157-.45-.238-.526-.378-.378-.058-.779-.566-1.713-2.132.541-3.441.95-5.729-2.253.409-5.973 5.523-8.793 7.146 1.336 1.196 1.057.31 2.631.836-2.918 5.532-10.015 8.087-12.323 11.72 4.718-1.263 10.029-7.539 13.743-8.046-.386 2.311-.827 1.786-1.179 3.301-.485 2.082-.023 2.532-.017 1.957 0-.072-.018.212-.058.32-1.057 1.951-4.205 4.637-6.238 6.638-2.041 2.015-5.171 3.342-7.358 5.523 3.279-.984 5.811-2.5 8.032-4.245 2.254-1.772 4.458-5.082 7.237-4.957-1.034 2.271-.639 2.555-.392 4.533-3.261 2.59-.108 3.211-9.513 10.605-5.564 4.367-4.031 4.556-12.49 7.038-5.424 1.597-27.673 7.646-32.589 5.573l1.287-19.168c.302-3.662 1.452-5.941 1.173-9.76-.221-3.023-.418-6.458-.639-9.808-1.336-3.311-2.918.458-5.18-16.924-.352-2.712.22-3.917-1.534-5.253-.9 1.844.05 4.736.009 6.885-.072 3.99 1.533 8.636 1.975 14.063l.427 5.482c.212 1.173.261.819.647 1.452.346-.549.392-.18.63-1.426.05-.212.067-.949.073-1.187.058-.944-.041-1.853.032-2.942 3.449 5.883-.877 31.622-.877 41.597l.804-.729c.122-.09.296-.238.418-.328.918-.68.378-.346 1.359-.761 9.777 2.155 28.658-4.335 36.843-7.416 1.925-.72 2.41-1.214 3.99-2.091 1.672-.926 2.27-.566 3.516-1.966 5.36-5.982 5.909-4.164 9.679-6.841 2.221-1.574 6.153-6.76 7.114-9.368-3.008-.261-2.23.139-3.949 2.14.04-2.828 1.034-.549 1.457-3.328.329-2.122-1.408-.688 1.197-2.99-.796-1.958-2.375-3.802.688-4.925 1.376 2.424 2.77 17.396-.073 19.429-2.424 1.737-3.615 3.868-5.734 5.86-4.327 4.065-8.317 7.808-13.637 10.817-1.974 1.115-7.114 3.049-8.122 4.047 9.095-2.195 15.553-7.947 17.513-8.4 1.04-.238.009-.073.828.107.116.023 1.033.337 1.237.36 2.482-2.253 4.565-5.087 6.827-6.472l-.485-.828c-.05-.107-.163-.311-.212-.409-.163-.352-.247-.206-.328-1.165l2.688-2.572c.311 3.197-.252 4.538-.827 7.529-.18.9-.418 3.203-.558 3.647-.729 2.294.058 1.443-3.008 1.565.836-2.326 1.443-1.777 1.803-4.065-2.77-.418-2.195 2.5-7.3 6.319-3.211 2.418 1.22 3.966-14.544 12.358-2.222 1.179-6.787 3.548-8.375 4.884 7.21-.917 17.643-8.865 23.323-13.177 2.973-2.262 3.238-4.17 7.309-5.033-.23 4.975-2.861 2.466-3.517 6.499l2.744-1.008-.139 3.017c-7.547.877-6.679 4.556-10.956 7.858l-18.84 12.184c2.155-.607 4.745-1.786 6.778-2.843 5.415-2.819 13.865-9.301 17.716-11.104l.019-.021Zm-5.549-223.674c-.999 2.622-.917 2.091-4.286 2.286-5.883.336-3.966.85-4.268 1.95 2.041.846 3.063-.72 6.522.123-1.139 2.154-1.754 2.779-2.794 5.58-3.301.1-4.835-.957-6.687.41 1.516 1.548 2.482 1 5.073 1.444-2.466 4.637-.877-.14-4.597 2.22.665 1.345.009.442 1.237 1.23l1.327.606c-1.434 4.03-4.408 1.452-7.489 3.058 1.13 2.154 2.05 1.155 4.893 1.237-.459 1.934-.287 1.344-1.318 2.883-3.589.59-2.622-.894-4.925.77.761.86-.261.441 1.484 1.057.017 0 1.943.296 2.23.351-.517 1.902-.386 1.583-1.452 3.098-2.802.311-4.762-.665-5.505 1.606 1.861 1.008 2.334-.157 4.106 1.22-1.917 2.99-4.574-.895-6.13 2.45 1.777.936 2.523.427 4.745.607-.715 2.41-1.606 2.271-1.958 5.195-2.122-.345-3.867-.795-6.571-.778l-1.507 4.614c7.826-1.097 3.009-.197 6.563-2.5-.77 2.09-2.033 3.891-2.884 6.04-3.049-.09-5.99-1.106-6.103 1.925l4.277-.189c-1.777 6.08-2.753.895-6.278 4.03 1.286 1.279 2.024.672 3.441 1.229-1.115 3.287-1.696.49-4.826 2.442 1.492 2.599.467.171 2.883 1.713-2.509 2.974-4.268.207-5.883 3.787.77.5-.122.944 3.058.116-1.083 5.703-3.656-.76-5.474 4.17 2.654 1.466 1.034-.63 3.351.607-2.073 4.556-3.885-.108-6.481 3.67l3.359.976c.082-.14.279.157.41.247-1.844 3.522-2.982-.148-5.532 3.057-3.917 4.925-3.342 1.844-2.834 5.596-2.564.499-1.902-.122-2.828 1.736.9.59-.122.45 1.304.558 2.163.148 2.056-1.443 4.097.058-1.426 3.246-.804.369-3.819.894-1.884.328-2.63 1.475-2.761 3.328.706-.157 4.359-2.123 3.984.418-.706 4.664-6.22-1.057-6.931 5.343l3.769-1.408c-.59 6.08-4.902-.337-6.203 5.523 3.279.072.697.032 3.598-.869-.476 1.624-1.124 2.533-1.916 3.72l-4.304.671c-.221 3.392.427 1.687 1.228 3.697-3.089 1.335-2.883 1.254-3.835 4.672-.639 2.302-1.394 3.85-1.696 6.382-6.409-.607-5.5.099-9.104 2.375-1.565.976-.31.451-2.967.715-.656 1.957-.058 1.507-1.827 2.729-.926-1.942.09-2.195 1.22-5.154.836-2.181 1.492-2.442 1.812-4.925.491-3.885 2.695-5.941 4.489-8.955 1.951-3.27 3.72-5.172 5.401-8.662 1.385-2.883 3.13-5.868 4.762-8.711 1.722-3.008 3.499-5.654 5.271-8.776 1.852-3.252 3.237-5.276 5.064-8.4l14.661-26.28c3.441-4.713 10.988-19.609 12.35-21.29 6.4-7.867 7.169-13.988 12.652-21.593 3.934-5.465 9.054-15.98 9.849-16.987 1.754 1.123 5.761 7.204 6.188 9.219-3.278.148-5.999-.22-8.145 1.852l.05 2.901 5.104.032c-1.138 2.515-1.893 3.27-3.679 5.056l-.015-.002Zm64.255 51.757c-3.844-5.572-7.137-10.866-10.186-17.84-2.942-6.711-6.696-11.064-9.742-17.774-2.878-6.334-6.327-13.087-9.742-18.364-2.311-3.557-7.622-10.02-4.942-14.037 1.957-2.95 1.426 1.385 3.36-3.368 1.025.4 1.452.575 2.459 1.835.837 1.057 1.025 1.588 1.304 3.072l-2.64 1.173c2.803.311 5.55-.238 7.007 5.18-5.343-.336-.278-.435-4.408-2.05-1.344-.53-3.049-1.056-4.564-1.498 1.138 2.236 1.597 2.254 3.94 2.852-.647 1.687-.369.467-1.359 2.45 5.645.387 6.237-1.637 8.343 1.066-2.245 1.786-2.761.526-6.539.419.935 3.022 1.048 1.794 7.538 2.082l2.163 2.793c-2.122-.68-4.907-2.68-6.606-.4 2.631 1.376 5.622 2.104 8.105 1.622.476 1.812 1.826 3.558 1.155 4.835-2.105-.41-.278.392-1.835-2.14l-6.612-.76c.639 2.212.099.62 1.475 2.195 2.991 3.409-1.574 1.097 7.219 2.55 2.721.45 2.393.67 3.023 3.097-2.451-.18-5.572-.99-7.016.828 1.484.999 1.353.63 3.131.697 6.35.253 5.171-.369 6.112 2.419-3.368-.009-4.983-1.188-7.161.598 1.624 1.452 5.973 1.057 8.532 1.214 2.073 4.164 4.704 9.071 6.966 13.21-3.818.162-7.079-2.327-8.203.769 2.869.944 6.868 1.147 9.687.737 2.033 3.23 5.442 6.932 5.761 9.391-3.287.95-4.812.148-7.007.41-2.401.287-.392-.009-1.458.517.886 1.867-1.515.95 1.984 1.393.023 0 2.271-.13 2.523-.139 1.951-.099 3.589-.122 5.596.04l1.254 3.482c-2.123.1-4.655.468-6.687-.107-.45-.13-3.941-2.294-3.041.566.796 2.55 8.924 1.124 11.581 1.394.76 1.318 1.655 2.785 1.722 4.983-2.213 2.146-1.772 1.835-5.532 1.852-1.493.01-2.32.23-3.467.311-2.181.157-.706.894-1.818-.944 1.426-1.263 2.375-1.123 4.623-1.402.058-.009 2.5-.418 2.509-.418 1.443-.648.58.05 1.245-1.377-1.533-.557-7.956-.081-9.741.59l-.011-.004Zm-50.209-69.424c1.089-.795.508 1.107 1.034-1.277.351-1.597-1.623-10.097-2.05-11.603 1.728-1.165 4.03-1.385 6.702-1.443 1.007 4.965-.558 10.497-1.057 15.848 1.902-.9.836.189 1.754-1.394.098-.171.426-1.861.458-2.09.198-1.238.346-2.515.491-3.697.346-2.91.68-5.244 1.034-8.096 2.262-.017 2.999.59 4.367 1.344-.328 1.075-.549 2.573-.894 3.984-1.278 5.105-.665 2.649-.221 3.523 1.484-1.197.819-.288 1.745-2.654.352-.927.796-2.065 1.197-2.91 2.671.935 3.679 1.975 1.861 5.366-4.925 9.162-.944 3.711-7.623 7.17-1.556.81-1.268 1.205-3.507 1.057-11.276-.72-6.63 7.015-13.758-2.097-1.124-1.426-2.803-4.155-3.401-6.031 1.263-3.76 4.007-5.802 7.588-7.376l1.934 2.425c1.597 2.654 1.083 7.416 2.343 9.948l.003.003Zm-25.46 109.112c-3.09-3.589-8.383-6.49-12.269-9.13-5.041-3.426-6.751-5.784-14.077-7.335.705-4.951 9.382-16.914 12.233-22.904 3.607-7.588 7.039-12.408 12.071-23.37l4.219-7.416c1.542-2.68 1.246-.715 2.46-3.607.975-2.343.345-1.992 3.17-2.523-.638-3.531-.392-2.901 1.444-6.36 3.162-5.95 7.015-11.005 10.587-16.684 1.951.76.917.85 3.049.894 3.475-8.072 6.359-5.366 13.955-3.26 2.982.827 1.179-.518 2.761 1.582 4.385 5.81 11.571 19.551 14.621 26.305 2.032 4.507 4.048 6.656 5.973 10.564 2.671 5.401 15.48 30.263 17.847 31.573 3.432 1.91 8.275-3.113 11.858-3.499-.116-3.45.392-1.458.985-4.533-3.549-2.81-6.679-12.111-9.53-16.578-1.377-2.154-.598-1.335-1.403-3.589-.787-2.195-2.604-4.326-3.966-6.327-1.353-1.992-2.181-4.629-3.302-7.146-2.122-4.762-1.655 1.318-4.776-4.335-2.762-4.983-11.447-21.674-14.856-26.1-2.015-2.613-2.163-2.613-4.204-6.21-2.056-3.621-2.681-.508-3.45-6.482-1.452-11.307-21.11-10.766-28.1-5.81-2.271 1.606-3.531 3.17-5.227 5.172-2.091 2.474-1.417 6.736-8.401 16.667-3.679 5.236-6.269 10.613-9.277 16.398-4.443 8.54-10.718 17.847-14.661 26.297-.95 2.032-2.959 3.844-4.318 6.072l-7.268 12.921c-1.417 2.312-2.262 4.687-3.557 6.842-1.443 2.401-2.262 4.785-3.572 6.818-1.542 2.375-2.59 2.973-3.984 5.72l-17.306-2.918c-9.179-1.966-17.283-1.075-26.773-1.516-3.566-.163-5.59-1.156-8.532-1.263-5.122-.206-13.006 3.63-17.216 1.434.311-1.597 1.246-1.263 1.475-2.195.049-.189.253-.148.36-.247-2.541-1.632-1.673.837-3.261-2.784-2.744-6.301-5.113-14.275-10.547-18.773-2.671-2.213-.714-1.313-1.951-4.214-.468-1.089-1.548-2.055-2.271-3.211-2.968-4.762-8.725-7.187-13.537-10.285-10.686-6.885-23.625-10.85-36.835-10.39-14.446.499-25.32 4.457-37.876 9.39-4.49 1.763-16.915 11.914-19.775 15.634l-5.172 6.458c-6.04 9.09-9.548 25.011-10.759 36.448-.99 9.341 3.154 30.173 8.177 37.958 6.194 9.597 13.07 18.044 22.969 24.107 2.334 1.435 5.073 2.492 7.735 3.877 1.894.975 6.27 2.761 7.858 3.818-.567 4.539-2.384 10.105-3.05 15.358-1.753 13.816-2.49 29.058.91 42.407.62 2.442 1.318 4.704 1.852 7.317.868 4.205 3.522 9.202 5.244 13.047 1.098 2.465 2.164 4.025 2.91 6.292l1.582 6.499c.55 2.091 2.451 3.032 4.623 4.359 3.86 2.352 6.032 6.327 9.072 9.283l13.839 13.061c7.579 7.596 25.23 17.577 34.941 20.1 6.931 1.794 13.659 5.032 21.511 6.031 2.599.337 5.596.229 8.227.958 12.439 3.432 4.704 1.435 11.365 1.214l20.823-1.017c19.731-1.884 41.03-10.529 53.299-20.067 7.317-5.689 14.242-11.168 19.586-17.11 6.08-6.76 7.178-8.824 12.12-15.39 1.525-2.024 2.155-3.391 3.302-5.276.804-1.336.975-1.983 1.852-3.023 2.335-2.793 2.762-6.048 3.621-9.907.59-2.605 1.647-4.754 2.172-6.899 2.007-8.311 4.983-33.673 4.31-40.932-.221-2.459-1.13-5.383-1.214-7.942-.099-3.229-.116-5.465-.386-8.571-.491-5.654-1.737-10.529-2.91-15.733-1.147-5.105-2.811-9.269-4.106-14.144-1.533-5.81-3.827-8.694-3.76-14.153-4.228-5.032-4.399-8.793-7.318-14.545l-8.226-13.177.011.005Z" clip-rule="evenodd"/><path fill="#232323" fill-rule="evenodd" d="M77.933 116.52c1.786 1.745-3.368.714 5.59.647 7.942-.067 35.205 1.319 37.653 6.368 1.983 4.074-4.548 13.151-6.333 15.939-3.18 4.951-4.951 4.03-8.572 5.032-2.195.607-.221 1.016-6.868.944-2.564-3-4.03-3.656-7.015-5.834-2.375-1.737-5.154-4.309-6.908-6.531-2.065-2.631-4.704-4.556-6.45-7.015-1.353-1.917-1.335-1.984-2.842-3.877-1.287-1.614-1.385-3.171-3.639-1.777-1.713 1.606 1.589 4.704 2.091 5.802.058.139.116.302.163.441l.197 1.008c.04.171.058.369.09.526.386 1.704 5.99 5.087 7.802 6.243 2.86 1.812 4.45 3.67 7.367 5.482l7.3 5.523c2.106 1.582 6.975 2.541 9.809 3.139l1.22-2.648c7.155-1.902 3.679-1.574 7.335-3.386 1.344 1.614 1.632 1.457 4.056 1.942-.917-4.875-.157-1.408-3.269-3.342.72-1.582.845-1.745 2.055-3.269 1.728-2.164 1.075-1.606 3.343-2.843-.018-1.934-1.812-4.524 1.327-5.982 1.556-.72.36.36 2.186-.746-1.097-1.664-.999-.549-1.533-2.007-.386-1.039.073-1.498-.621-3.107-.558-1.277-2.474-2.811-4.286-3.661-5.851-2.739-32.958-5.605-41.251-3.009l.003-.002ZM89.113 83.128l.598 3.139-5.145 7.636c-2.204 2.919-3.482 4.156-5.465 7.507l.606.36c.059.032.36.157.54.247-.778 2.186-1.196 3.522-2.465 4.654-.967.869-1.713.262-2.131 3.198.894-.729.13.116 1.173-1.13l3.203-3.975c1.524-2.082 2.236-5.006 3.572-6.95 1.588-2.325 2.761-3.251 4.277-5.499 1.115-1.638 3.237-4.794 3.926-6.49.484-1.213.18-4.399 3.615-6.138 8.769-4.458 22.15 11.496 22.159 11.496 1.498 1.016 1.106-.468 3.113 1.803 4.169 4.704 1.736 9.76-2.649 13.587-2.311 2.024-5.261 1.466-8.046 2.32-1.083.337-2.236 1.138-3.432 1.443-4.547 1.129-8.964 1.565-13.874 1.484-3.796-.067-11.235-1.763-15.31-.622-3.071.851-1.033.067-1.965 1.22 1.853 1.089 6.926.252 9.333.302 7.988.18 11.752 2.006 19.011-.253 10.982-3.432 15.161-.435 20.315-10.857 2.244-4.547-2.213-10.964-4.255-14.005-2.941-.705-1.057-.435-2.95 0-1.516-2.877 1.943 1.507-4.074-5.68-4.016-4.81-13.119-6.327-17.585-4.309-3.319 1.499-3.63 3.738-6.098 5.515l.003-.003ZM20.604 141.237c1.385 1.492 2.738 3.795 4.08 5.555 2.819 3.696 3.745 1.533 3.202 6.013 3.107 1.557 6.162 3.795 9.44 5.784 2.343 1.435 7.933 5.277 9.833 2.73-2.001-2.738-6.09.163-14.054-7.669-4.385-4.309-9.679-11.742-10.3-12.259.558-5.311-1.286-9.094 9.26-11.94 2.236-.607 3.598-.918 5.581-1.777 6.77-2.942 14.118-5.114 22.029-6.638l.615 1.844c3.342-1.548 8.171-.639 6.836 2.933-1.812-1.705-.27-1.737-2.474-2.254-.796 3.752.066 4.664-1.624 8.703-2.555 6.104-9.965 14.701-11.85 19.815 4.016-1.638 12.548-16.784 13.974-20.741 1.541-4.295 4.155-4.754 3.565-8.532l-3.475-2.14c2.482-4.966-5.515-1.452-11.073-.296-10.087 2.114-16.839 5.253-27.116 8.949-8.104 2.918-4.245 5.27-6.449 11.914v.006ZM60.782 112.416c-4.417 4.426-21.97 6.13-29.868 6.22-15.422.172-4.917-21.511-.936-28.581.72-1.27 3.656-3.45 5.137-4.156 4.17-1.974 7.907 4.115 10.605 6.238 2.834 2.221 6.113 5.621 8.317 9.417 1.867 3.202 6.18 7.529 6.745 10.865v-.003Zm2.262 1.583c.13-4.925-4.858-9.234-6.931-12.692-2.59-4.318-5.703-7.498-9.27-10.916-6.785-6.49-11.35-14.275-21.313 4.376-1.188 2.23-4.794 12.408-4.942 15.259-.296 5.77 3.197 10.933 9.071 10.817 11.89-.253 16.281-2.082 26.158-3.885 2.834-.526 4.736-1.835 7.227-2.959ZM211.367 268.3c.705-1.681-.082-8.096-.05-9.333.099.122.221.319.288.378l1.434.908c.436-3.202 1.786-5.473.468-8.145-.09 1.278.066 1.295-.378 2.532l-1.089 1.894c-.049-.099-.238.287-.36.435.837-13.218 1.853-24.002.99-37.563-.386-6.04-1.695-12.21-1.951-17.716-.163-3.679.311-16.028-1.246-18.232-2.433 1.164-1.187 5.9-1.237 8.433-.023 1.466-.31 3.656-.261 4.942.171 4.425.467 1.353 1.179 3.287.679 1.861-.14 6.319 0 8.491.122 2.015.746 1.269.967 3.467.27 2.648-.607.72.441 3.746 3.203 9.211.688 41.587-1.007 52.477-.967 6.22-6.418 23.773-8.564 28.828-1.803 4.26-4.957 8.343-6.147 12.225 2.828-.172 2.828-1.263 3.891-3.459 3.557-7.384 9.678-25.042 10.843-32.557.392-2.572.36-3.531 1.785-5.032l.004-.006ZM144.865 277.034c.418-3.17-1.403-12.916-1.771-17.257-.32-3.769-.148-5.073.032-8.891.121-2.384-.337-.877-.845-3.377-.648-3.18.302-21.084.278-25.666l-.023-8.235c-1.687-5.221-.18-3.679-.81-8.924l-.886-2.622c0 13.102.328 27.232-.188 40.072-.288 6.899-1.319 22.667.786 28.788 1.264 3.679 3.656 2.41 3.427 6.112ZM222.101 222.003c7.268-.737 9.881-2.212 15.7-4.811l17.568-8.311c8.505-2.28 12.997-9.652 14.743-10.776 1.681-1.083 1.434-.441 3.031-1.835 1.278-1.115 1.893-1.812 2.884-2.631l-1.754-3.868c-6.49 2.834.795 7.898-22.627 19.218-9.513 4.605-18.241 8.859-28.114 12.268-1.214.427-.714.238-1.434.746h.003ZM87.21 287.345c-.689-2.007-1.107-1.713-1.804-3.752-.517-1.492-.31-2.959-.549-4.901-.296-2.434-1.637-6.252-2.352-8.784-1.588-5.662-2.834-17.027-3.876-17.864-2.016 2.245.95 12.054 1.434 15.332-.615-.778-.392-.148-1.124-1.803l-2.006-6.499c-.302-1.385-.72-3.04-.926-4.538-.36-2.582.212-3.041-1.165-4.565-1.902 4.483 2.352 15.373 4.007 19.978 1.139 3.197 2.001 6.423 3.238 9.588.616 1.548 1.228 2.712 1.917 4.196 2.27 4.858 1.237 3.22 3.203 3.615l.002-.003ZM217.409 297.774c9.891.018 18.75-4.155 26.306-7.456 2.41-1.057 9.507-4.098 10.956-5.549 2.532-2.515 2.639-2.074 4.802-3.746 1.057-.81 1.287-1.156 2.245-2.132 1.025-1.039.851-.345 1.313-1.817-2.689-.262-5.613 4.286-11.267 7.834-3.49 2.186-15.857 7.285-20.666 8.662-2.779.804-5.834.885-8.226 1.614-5.909 1.818-10.817.909-17.226-.229.401.58.509 1.303 2.173 1.942l9.596.877h-.006Z" clip-rule="evenodd"/><path fill="#232323" fill-rule="evenodd" d="m141.601 201.293.59-17.792c2.05 3.616-.419 24.157-.23 24.888.436 1.728.058.45.86 1.353.386-.894.229.058.427-1.385.032-.206.098-1.492.116-1.777l1.951-27.632c-5.918.868-4.539 5.703-4.597 9.269l.131 11.621c.302 1.188.351.859.755 1.458l-.003-.003ZM220.502 276.901c2.753-.238 11.365-5.088 16.528-7.358 3.049-1.336 14.365-6.302 15.863-8.523-4.628 1.057-12.317 5.293-16.545 7.253-4.17 1.926-13.939 5.779-15.849 8.63l.003-.002ZM218.466 171.202c2.096-.23 24.493-10.071 28.976-12.84l1.826-1.574c-1.533.319-28.665 11.423-30.803 14.414h.001ZM225.416 129.425c4.228-.346 3.261-.485 7.892-.024.032-.04.755-.99.959-1.335.877-1.409.72.139.665-1.934-3.369-1.403-3.081-.14-5.631.49-3.057.755-3.859-.859-3.885 2.803ZM62.396 174.16c.531 2.419.99.787.72 4.205 0 0-1.867-1.737-1.826.575 0 .099.04.287.058.392l1.295 3.926c.287-1.083.427-2.631.86-3.958.894-2.712 3.237-9.193 3.237-11.554l-4.344 6.417v-.003ZM264.502 34.207l1.524-3.787-4.573-.688-.944 1.827c-1.794 2.828-1.025-.163-2.032 2.604 1.425.68 4.065.23 6.022.041l.003.003ZM138.562 136.286c3.318-.378 4.663-3.009 9.759-3.107 2.779-.05 2.326.377 3.671-.59-3.09-2.27-11.253-.386-13.43 3.697ZM137.312 142.835c1.836-.697 2.762-1.925 5.425-2.95 2.105-.811 4.826-.392 6.58-1.179-2.442-2.172-11.587-.517-12.005 4.129ZM268.68 10.204c1.745 3.31 1.039-1.754 3.809 4.992l1.179 2.056c.532-.886 1.173 1.681.45-2.343-.31-1.746-2.369-7.3-5.441-4.705h.003ZM270.055 257.878c-1.025 2.843-3.662 3.926-5.451 6.081 2.785-.271 4.548-2.254 6.639-4.196 1.425-1.336 1.367-.442 1.065-2.878l-2.253.99v.003ZM327.881 71.531c-2.05-.435-1.106-.615-3.566-.836.401 2.163.665 2.573 3.113 2.785 2.861.261 3.589-.247 4.516-.805-1.008-.737.032-.426-2.016-.9-.499-.122-1.344-.099-2.05-.247l.003.003ZM145.229 144.203c-2.991-2.132-8.006 1.147-9.013 3.539l9.013-3.539ZM320.664 59.957c-4.588-.386-3.343 1.493-3.392 1.722 1.687.665 5.581.755 6.94 0-.9-1.286-1.353-1.542-3.548-1.722ZM270.783 231.332c1.542-.638 6.711-6.327 7.178-8.301-2.671.499-6.858 7.169-7.178 8.301ZM323.443 68.09c-1.115.418-.49.328-1.106.917 1.286 1.034-1.394.45 2.033.935 1.115.157 3.876.018 5.293-.935-.679-.526-.467-.647-1.916-1.034l-4.304.117ZM44.86 159.739c2.393-.95 1.435-.984 3.27-2.631 1.188-1.074 2.146-1.219 2.95-3.139-3.049.665-5.595 2.91-6.22 5.77ZM116.438 115.472c.935.548-1.268.769 1.714.441l5.514-1.664c-2.163-1.704-5.604-.616-7.228 1.22v.003ZM321.302 58.002c-1.255-1.475-4.031-2.532-5.999-1.22.467.41-.805 1.124 2.509 1.638l3.49-.418ZM87.209 74.505c1.376.557 4.074.05 5.415-.607-.008-.009-.246-2.614-4.213-.607-1.754.886-.688.36-1.205 1.214h.003ZM315.318 53.11c1.025.828 3.647 2.123 5.622 1.22-1.214-1.875-3.801-2.77-5.622-1.22ZM123.687 84.904c1.016.567-1.246.73 1.835.468 1.754-.14 3.261-1.22 4.048-2.419-1.926.247-4.507.45-5.883 1.951ZM264.487 255.834c1.943-.68.77-1.255 3.041-2.843 1.129-.787 2.424-1.484 3.522-2.279-2.073.31-7.434 2.793-6.563 5.122ZM121.843 117.308c.647.435 1.452 2.073 4.457 0-1.188-1.458-2.605-1.687-4.457 0ZM132.874 127.744c2.555-.476 3.801-.966 3.769-3.571-1.228.607-2.941 1.867-3.769 3.571ZM113.725 149.161c.949.287-.755.827 1.417.319 2.982-.697.409.058 1.542-.999-1.409-1.507-.302-.99-2.713-1.312l-.246 1.992ZM96.063 75.731c1.088-.36 1.327.9 1.565-1.286.252-2.384-.81-1.507-1.27-1.696l-.296 2.982ZM148.054 187.823c-.476-2.828.247-1.785-1.557-2.851-.156.319-1.565-.706-.212 1.548 1.345 2.235.041.319 1.772 1.303h-.003ZM83.255 57.058c2.613.41 2.73.253 4.547-.828l-4.547.828ZM94.576 61.273c1.844.36 2.23.476 4.08.23l-4.08-.23Z" clip-rule="evenodd"/></svg>