<svg width="52" height="52" viewBox="0 0 52 52" fill="none" xmlns="http://www.w3.org/2000/svg">
<path d="M25.9998 26C23.6165 26 21.5762 25.1514 19.879 23.4542C18.1818 21.7569 17.3332 19.7167 17.3332 17.3333C17.3332 14.95 18.1818 12.9097 19.879 11.2125C21.5762 9.51528 23.6165 8.66666 25.9998 8.66666C28.3832 8.66666 30.4234 9.51528 32.1207 11.2125C33.8179 12.9097 34.6665 14.95 34.6665 17.3333C34.6665 19.7167 33.8179 21.7569 32.1207 23.4542C30.4234 25.1514 28.3832 26 25.9998 26ZM12.9998 43.3333C11.8082 43.3333 10.7884 42.9094 9.9405 42.0615C9.09117 41.2122 8.6665 40.1917 8.6665 39V37.2667C8.6665 36.0389 8.98284 34.9101 9.6155 33.8802C10.2467 32.8517 11.0859 32.0667 12.1332 31.525C14.3721 30.4056 16.6471 29.5656 18.9582 29.0052C21.2693 28.4462 23.6165 28.1667 25.9998 28.1667C28.3832 28.1667 30.7304 28.4462 33.0415 29.0052C35.3526 29.5656 37.6276 30.4056 39.8665 31.525C40.9137 32.0667 41.7529 32.8517 42.3842 33.8802C43.0168 34.9101 43.3332 36.0389 43.3332 37.2667V39C43.3332 40.1917 42.9092 41.2122 42.0613 42.0615C41.212 42.9094 40.1915 43.3333 38.9998 43.3333H12.9998Z" fill="#232323"/>
</svg>
