<svg width="186" height="327" viewBox="0 0 186 327" fill="none" xmlns="http://www.w3.org/2000/svg">
<g opacity="0.5">
<path fill-rule="evenodd" clip-rule="evenodd" d="M48.4178 290.824L44.2529 291.283C45.3424 288.718 46.2516 287.449 48.7251 286.961L48.4178 290.824ZM31.9261 290.839C33.3025 288.711 34.326 287.779 36.8071 286.791C36.3424 288.195 35.4383 290.991 33.9044 291.362C31.1389 292.022 32.241 291.012 31.9261 290.839ZM26.7581 291.382L23.1824 291.339C25.5341 289.153 25.9277 288.602 28.7212 287.139L26.7581 291.382ZM30.283 289.455L31.9388 284.381C28.3632 284.609 27.9391 285.542 25.3895 287.075L26.9234 282.187C30.6006 282.395 33.0945 282.144 36.8202 281.763C40.5838 281.382 42.3666 281.46 44.5814 284.272L41.313 286.644C43.6926 287.827 41.407 285.046 44.137 287.088C41.694 288.673 42.2172 289.016 41.3715 291.352L37.7678 291.316C38.2478 289.775 38.4992 290.069 40.0179 289.094C39.2789 284.536 39.6014 287.868 40.5055 283.784C36.2187 283.319 33.7247 287.56 30.2862 289.452L30.283 289.455ZM20.9297 284.99C21.8109 281.427 20.757 281.587 24.1753 281.824C23.6013 283.444 22.6413 284.081 20.9297 284.99ZM115.861 281.064C115.066 283.18 115.079 283.243 113.222 284.389L115.861 281.064ZM13.6548 286.067L15.5036 281.544L18.8076 281.839L13.6548 286.067ZM74.3575 285.602C76.8234 285.216 74.9823 285.315 75.5181 286.255C74.1061 287.888 73.9334 288.19 73.748 290.232C77.6183 290.067 80.6075 282.771 81.3948 279.947L84.8359 278.901C83.9699 282.197 81.4177 285.631 81.791 288.668C85.8822 288.238 86.9234 281.042 90.8927 278.893C90.3619 280.856 89.6534 282.161 88.4268 283.83C86.9158 285.887 85.4454 286.438 86.1259 288.416L88.8839 287.213C91.5428 291.182 92.5815 288.101 100.601 281.824C99.57 284.597 96.4311 287.441 96.5658 290.509C99.2755 291.296 97.5536 290.493 98.473 290.572C100.243 290.722 98.666 289.805 100.014 290.867C98.2291 291.933 68.1942 291.799 63.7018 291.598C64.6414 289.447 65.9798 288.998 67.628 286.968C69.7053 288.904 67.8083 287.822 69.7358 289.993C72.4582 289.528 73.3267 287.806 74.3578 285.6L74.3575 285.602ZM115.859 281.067C115.757 277.527 115.859 279.761 116.583 278.644C118.927 279.848 118.883 279.54 115.859 281.067ZM102.851 290.169C104.449 285.818 108.692 282.522 110.434 280.114C111.988 277.958 111.064 277.313 114.183 278.997C112.755 281.641 105.985 288.508 102.851 290.171L102.851 290.169ZM2.82311 281.597C2.37869 278.458 2.013 279.848 4.2554 277.978L2.82311 281.597ZM100.316 286.73C101.024 284.787 102.208 283.449 103.427 281.691C105.621 278.517 104.976 278.151 108.925 278.044C107.528 281.32 103.091 284.637 100.318 286.729L100.316 286.73ZM92.1612 286.222C93.6951 283.22 97.1488 277.565 100.323 276.246L102.302 277.43C101.535 279.271 94.3605 285.021 92.1612 286.224V286.222ZM93.8017 279.271L96.8187 273.136C99.2134 275.673 95.587 276.318 93.8017 279.271ZM74.3513 285.607L71.1337 287.657C70.7832 285.973 72.2003 285.45 71.0473 283.299C69.0487 284.482 68.2157 285.534 65.859 286.819C66.9993 284.876 67.0475 285.514 67.2863 282.933C63.9392 284.64 69.6861 281.349 66.0241 283.901C62.0548 286.674 65.1632 282.524 61.6891 286.08C61.5951 285.879 61.3945 285.427 61.3158 285.305L60.2618 283.83C59.8174 287.456 56.1198 286.532 57.0798 289.65C59.1953 290.359 59.3578 289.501 61.3082 288.302L60.5996 291.499L50.1925 291.07L54.9008 285.709C51.1448 284.785 52.7371 285.128 49.6617 286.374C48.3005 284.848 45.9768 283.83 45.5832 281.945C50.0477 282.126 57.6157 283.365 61.8311 283.02C64.3529 282.811 74.9682 280.762 77.0889 279.716C79.5903 278.484 80.0271 277.643 81.081 275.216C82.587 271.747 91.351 259.707 95.2921 269.756L88.7707 275.762L90.6195 270.393C86.127 270.888 88.1612 272.105 82.3915 277.824C80.0196 280.181 75.913 282.174 74.3513 285.607ZM5.88675 265.103L8.90371 258.904C9.60715 263.046 8.66754 267.16 9.82813 270.901C10.8465 274.205 13.7187 274.19 15.5548 278.339L8.71096 284.2C9.90705 281.168 11.5857 279.334 11.5426 275.916C9.40678 276.097 8.32497 277.6 6.55488 278.834L8.91919 272.148C6.57517 272.133 7.29135 272.155 5.75744 273.58C8.81758 264.415 8.36534 267.031 5.88675 265.103ZM2.94091 266.028L2.84695 262.523L5.78518 260.258C5.38393 262.731 4.55354 264.506 2.94091 266.028ZM173.117 258.554C173.188 258.102 174.07 257.35 173.656 258.447C173.353 259.25 173.031 259.072 173.117 258.554ZM6.0225 257.508L8.81094 253.071L9.29853 256.992L6.0225 257.508ZM2.77695 259.816L2.17508 256.555L5.61618 253.653L2.77695 259.816ZM173.714 250.907L173.089 245.747C177.137 247.969 174.852 248.111 173.714 250.907ZM3.77164 252.771L8.75933 242.222C9.67613 246.844 7.97716 251.351 3.77164 252.771ZM3.20533 249.046L3.45674 244.452L5.73471 243.477L3.20533 249.046ZM5.7347 240.731C6.29339 238.811 6.14357 239.665 6.98163 238.073C8.61455 234.941 6.86736 236.64 9.46023 234.954C9.73958 239.568 9.73196 238.072 5.7347 240.731ZM3.35511 240.653L2.91069 237.478L5.66865 236.008L3.35258 240.653H3.35511ZM174.039 235.937C175.466 237.585 175.522 237.255 177.15 238.108C176.025 240.366 174.828 243.362 173.201 244.98L173.295 230.624L176.37 231.111L174.041 235.934L174.039 235.937ZM5.17546 233.958C5.51322 230.426 6.88204 231.292 8.00708 225.966C8.7029 222.67 7.38234 224.841 9.33274 222.848L9.43432 230.852L5.17803 233.955L5.17546 233.958ZM3.14129 232.31C2.85431 228.597 1.81562 228.613 4.62435 227.889C5.16273 229.207 4.03772 231.099 3.14129 232.31ZM173.142 227.142L173.041 222.934L176.631 222.124C175.915 224.031 174.747 225.923 173.142 227.14L173.142 227.142ZM173.056 218.5C172.914 215.232 172.934 215.735 176.052 214.092C175.372 216.514 175.077 217.136 173.056 218.5ZM4.53073 220.199C7.21756 220.179 6.69441 219.783 9.12476 218.846C7.91339 221.555 5.35606 225.225 2.7962 226.527L2.76826 215.026C4.22343 214.13 6.70963 213.027 8.50761 212.225C7.28103 215.313 4.51547 217.185 4.53068 220.202L4.53073 220.199ZM173.537 209.04C173.242 206.232 172.605 206.488 174.957 206.031L173.537 209.04ZM3.80909 208.431L4.90617 210.524L3.21481 212.487L3.00657 204.84L8.29644 202.13L3.80909 208.431ZM6.03121 201.041L10.0081 195.192C9.74404 198.933 10.2088 200.31 6.03121 201.041ZM4.00972 200.64C3.67958 197.717 4.11637 197.257 6.87689 196.096L4.00972 200.64ZM173.016 200.345L172.787 196.554L176.363 195.213L173.016 200.345ZM172.328 190.405L172.277 184.879L176.218 185.116C175.114 187.559 174.707 188.879 172.328 190.405ZM7.0467 186.228L9.96973 182.129L10.1627 191.353L6.66579 193.826C7.79083 191.289 8.74313 190.129 9.3755 187.219L7.04676 186.231L7.0467 186.228ZM172.068 180.725C173.673 179.915 172.532 179.879 174.023 180.646C172.819 181.786 173.952 182.215 172.068 180.725ZM172.606 175.966L171.867 172.225L175.344 171.364C174.577 173.642 174.155 174.731 172.606 175.966ZM169.404 226.851C171.016 229.931 170.8 228.644 170.958 232.798C171.059 235.422 171.044 238.081 170.772 240.689C169.175 239.78 151.251 224.334 149.773 221.353C147.464 216.68 156.18 223.854 138.472 208.955C134.373 205.501 131.046 202.571 127.336 198.98C123.996 195.747 108.723 178.948 106.567 177.924C106.669 180.819 110.222 184.202 113.318 187.27L138.401 211.007C140.501 212.919 145.28 216.383 147.03 218.232C150.433 221.843 143.017 217.968 153.229 227.204C158.791 232.235 164.395 237.946 170.851 241.832L170.779 253.844C162.343 248.455 143.23 226.76 141.841 226.519C141.582 230.425 146.428 232.659 148.914 235.455L165.655 251.708C170.442 256.051 172.077 255.721 170.729 263.89C155.055 269.15 160.667 272.776 157.693 274.648C150.986 276.548 139.82 276.555 132.574 277.213C129.377 277.5 131.055 277.579 128.64 275.542C120.663 268.792 101.901 243.729 92.7639 234.219L54.036 189.815C51.8292 187.062 43.545 175.517 40.241 176.799C41.2442 178.899 48.7687 186.109 51.0493 188.862C57.9211 197.169 92.5935 234.945 94.3788 238.571C95.8898 241.639 102.678 248.29 105.423 251.241C108.633 254.71 125.42 274.424 126.694 277.414L108.62 276.375C106.048 269.996 94.5946 256.465 90.2011 249.966C87.9942 246.721 88.7967 246.276 85.7797 243.186L49.2356 201.217C45.6016 197.453 30.867 179.128 26.989 178.978C27.2481 182.003 34.8945 187.556 37.1953 190.173C54.4236 209.752 72.8787 228.88 88.1715 250.014C92.1485 255.497 104.979 270.775 107.091 275.527C98.3323 276.121 100.118 271.806 96.9944 266.897C93.2536 261.029 88.7534 264.985 85.0685 267.951C83.075 269.556 81.5208 269.879 80.1748 272.302C78.6257 275.082 79.451 276.672 76.2335 278.272C68.3787 282.17 44.7584 281.434 41.4668 279.547C41.2585 279.425 31.6206 270.709 31.0953 270.151C27.9768 266.826 24.7389 263.672 21.5567 260.554C18.3315 257.392 13.0414 250.835 11.6807 250.492C12.2191 256.404 37.4087 275.877 39.4306 280.349C35.5832 280.357 32.8071 280.829 28.7874 280.522C25.0898 280.243 22.1718 279.44 18.3243 279.448C16.0159 275.758 20.488 280.337 13.5804 272.482C11.0942 269.658 11.1932 266.46 11.2085 262.542C11.2365 253.92 10.8936 246.215 11.2593 237.565C17.4431 238.383 55.0764 279.318 58.4082 279.062C58.5454 278.833 61.0087 279.29 56.2801 275.994C48.4253 270.511 28.1649 248.409 17.7453 239.96C9.02458 232.887 11.0666 232.278 11.3609 219.291C17.2375 219.484 60.1657 272.052 65.877 273.071C65.3691 271.242 25.2417 229.678 23.0072 227.44C19.6525 224.077 14.9366 220.387 12.6436 216.037L11.8183 214.166C11.3307 212.045 12.156 210.661 11.798 207.05C11.1098 200.135 10.7593 182.419 16.0695 178.526C22.9998 173.437 23.6376 169.409 28.338 168.264C32.9041 167.154 65.0036 166.029 70.0122 166.687C75.2513 167.367 80.7418 170.506 85.0769 173.302C90.0569 176.528 93.2112 183.631 99.3159 177.31C104.74 171.697 100.685 171.454 113.692 170.001L144.639 167.967C171.723 163.408 157.934 169.285 170.037 171.543L170.08 185.856C166.383 182.917 157.903 172.139 154.843 171.522C153.532 173.8 154.048 175.845 155.818 177.678C156.026 177.155 155.767 176.467 155.767 176.317C155.775 176.215 155.752 176.002 155.759 175.893C155.767 175.779 155.775 175.563 155.78 175.449C155.952 173.95 155.599 174.89 156.11 174.115C177.173 193.53 169.857 190.942 170.679 226.303L169.404 226.854L169.404 226.851ZM8.576 174.785L13.391 168.959C13.0887 171.41 10.4679 173.581 8.576 174.785ZM89.9715 172.39C92.9606 173.264 98.1058 169.802 99.8176 167.336C103.015 168.324 101.186 169.091 103.909 167.997C106.631 166.907 105.278 165.81 107.386 168.19C104.821 170.066 103.007 168.977 100.341 172.403C93.8903 180.702 95.3963 178.279 86.2591 171.585C87.5136 169.701 90.0583 168.667 92.0721 167.659C90.6957 170.089 89.6211 169.63 89.9715 172.39ZM164.892 166.206L167.378 165.16L169.133 167.08L172.574 165.947L169.565 169.459C167.279 168.814 166.068 167.984 164.892 166.206ZM144.926 165.691L148.423 163.103C149.893 164.314 149.842 163.999 149.677 164.98C147.778 166.006 147.349 165.66 144.926 165.688V165.691ZM115.95 166.658C118.896 166.316 118.723 165.597 121.196 164.342C122.73 165.475 121.857 165.318 123.835 166.336C133.102 162.694 124.056 169.825 135.717 163.662C140.713 165.856 139.486 164.472 141.228 165.546C140.088 166.493 141.429 166.062 139.651 166.399L125.181 166.793C119.964 167.575 114.51 168.563 109.105 168.39L115.269 163.761C115.964 164.822 115.19 165.122 115.949 166.656L115.95 166.658ZM81.778 169.109L78.8474 167.08L87.5402 162.356L81.7779 169.107L81.778 169.109ZM93.0232 170.061C95.1513 167.375 100.898 163.139 104.332 162.242C103.144 164.162 95.2024 169.287 93.0232 170.061ZM74.6825 165.546C75.9218 163.776 79.4543 161.798 81.605 160.909C80.4648 162.486 79.5912 162.742 78.2656 164.177C76.3584 166.242 77.3186 167.288 74.6825 165.546ZM165.147 163.776C166.996 160.193 170.056 160.472 172.342 158.037C170.792 160.759 168.443 163.382 165.147 163.776ZM4.18311 169.774C4.63515 164.012 9.63805 157.183 15.6799 156.94C14.7911 161.066 14.1028 161.699 11.0071 164.228C9.10754 165.777 5.88202 168.944 4.18311 169.774ZM16.726 159.24C18.331 155.837 18.7119 156.683 22.5948 156.137C25.0607 155.794 27.3184 155.843 29.8196 156.043C28.7809 158.372 29.2686 157.463 25.7412 158.474C20.8678 159.87 23.4404 156.81 16.726 159.24ZM51.4491 161.47C54.0445 162.544 52.4598 161.564 54.3721 161.49C58.2068 161.341 53.1963 161.361 57.2037 162.953C61.7266 161.793 65.2594 157.915 70.5488 156.919C68.6416 159.677 65.3326 159.972 64.1136 163.311C67.4252 164.495 71.0595 161.097 74.1756 159.743C70.3281 166.623 66.4703 164.718 55.19 165.081C8.45455 166.587 32.7152 167.067 13.3233 177.802C10.3216 179.465 11.7183 178.497 9.70448 179.013C5.43298 180.103 8.64297 182.82 4.23682 186.231L4.42221 172.807L8.93751 171.166C7.32488 173.846 6.02717 174.176 5.57006 177.63C10.4155 177.917 9.84158 178.656 16.7645 170.636C17.3944 169.904 20.8507 166.207 21.0945 165.691C22.349 163.032 19.7841 161.806 25.3026 160.774C23.5325 163.111 21.7904 164.228 21.4399 167.001C27.6186 165.948 24.8734 161.927 30.1834 159.512C28.8578 162.163 26.7932 162.191 27.3442 165.03C28.1823 165.338 27.3874 165.373 28.5403 165.094C30.0107 164.743 31.1992 163.497 32.3953 162.499L31.6868 160.464C35.1711 158.501 36.2022 156.3 37.8935 155.898C41.8628 154.946 39.8794 156.178 40.2502 156.96C41.7486 159.883 37.218 159.037 36.0066 162.907C38.1627 163.667 40.6718 161.975 42.1854 160.406C44.8163 157.668 43.346 155.568 46.8378 156.284C44.9179 158.857 42.0431 158.679 41.6926 163.021C47.1907 162.082 50.7157 156.185 56.3913 155.639C54.7787 157.932 52.9223 158.42 51.4544 161.465L51.4491 161.47ZM4.41392 153.029C5.01579 153.71 5.46022 151.48 5.12242 154.807C5.12242 154.814 4.07611 157.128 4.0609 157.229L9.28476 157.41C9.02573 158.743 5.57198 162.004 3.95174 162.656L4.4114 153.031L4.41392 153.029ZM69.4328 155.307C68.6151 155.708 67.9776 156.325 67.325 156.597C63.4191 158.253 65.1384 156.782 64.4502 155.81L69.4302 155.307L69.4328 155.307ZM131.052 112.851C128.779 112.19 129.109 112.421 128.673 109.94L131.052 112.851ZM73.1606 96.9479C77.8689 91.0003 101.677 91.9806 108.879 92.9202C105.755 95.7442 99.9347 94.1468 97.0195 96.2876C99.1476 97.8063 104.25 96.0591 107.167 95.414C115.408 93.5855 114.664 92.2244 116.434 94.962C115.423 98.0653 116.863 94.7182 114.07 96.6685C114.006 96.7117 113.854 96.8336 113.798 96.8844L113.039 97.6006C112.051 98.2456 109.455 98.7408 108.115 99.0405C99.033 101.09 81.5687 100.874 73.1626 96.9479L73.1606 96.9479ZM14.3068 310.605C14.1138 307.961 12.552 306.29 11.7114 303.387C10.9674 300.799 10.6296 296.901 10.401 294.128C20.5287 293.132 44.342 291.885 53.6368 292.944C76.1981 295.532 116.763 291.08 141.651 292.335C147.641 292.637 180.831 291.847 183.396 288.244C181.217 287.083 180.163 288.33 178.38 286.89C180.008 284.168 181.943 284.97 182.286 281.207C180.445 280.303 181.283 280.612 178.962 281.064C179.98 278.197 180.661 279.157 179.269 276.915L174.01 280.584C174.584 276.694 177.499 276.32 178.258 272.199C172.791 273.281 173.156 281.207 166.124 284.181C166.62 282.304 166.907 281.357 166.061 280.003C164.141 279.831 160.37 282.497 158.249 283.394L160.801 279.338C155.054 279.381 157.548 284.204 151.664 285.128C152.753 282.898 155.778 280.994 155.892 278.665C151.885 278.523 151.262 282.233 147.53 284.183C148.969 281.941 150.087 282.312 150.841 279.66C147.796 279.633 145.373 282.055 143.159 283.96C144.952 281.159 145.524 283.373 144.792 279.952C140.823 280.755 138.393 284.582 138.349 288.315C142.628 288.165 139.982 286.875 143.644 287.485C145.717 287.827 146.445 287.792 148.03 285.572C150.803 286.804 148.152 286.075 150.788 287.65C152.637 287.127 152.865 286.603 154.092 286.187C157.058 285.176 154.773 286.652 157.675 285.742C160.499 284.869 160.964 282.461 164.476 281.377L163.544 286.344C166.698 287.655 165.558 286.273 167.988 286.002C168.11 285.986 168.318 286.009 168.44 285.994C171.666 285.656 171.021 283.63 175.185 281.794C172.219 287.548 169.202 288.351 162.881 289.09C156.702 289.814 150.44 290.372 144.249 290.631L105.384 291.091C107.877 287.221 106.666 291.162 110.3 289.128C111.24 288.605 110.359 288.826 111.331 288.389C113.487 287.414 111.697 290.03 115.08 288.739C117.358 287.04 118.183 285.019 121.02 284.382C119.953 287.048 118.498 287.213 118.841 289.908C121.04 290.073 121.708 289.199 123.341 287.721C124.638 290.4 122.675 288.861 125.154 290.431C127.77 289.42 129.425 286.977 131.18 284.92L126.766 287.551C128.163 284.125 130.142 284.793 130.901 281.088C127.467 280.793 125.52 284.577 122.724 286.169C124.235 282.909 125.956 282.888 126.594 279.419C122.574 279.843 120.372 284.128 116.517 285.288C117.025 283.904 119.836 280.021 120.537 279.026C130.505 278.924 140.762 278.825 150.681 277.515C156.342 276.77 159.798 278.734 161.338 272.448C163.13 265.109 173.995 264.444 169.507 269.853C167.45 272.339 164.11 274.419 163.323 277.778L167.265 279.261C169.372 280.336 170.711 278.781 172.118 277.032C170.69 276.272 170.741 277.598 169.588 277.016C170.492 275.79 171.252 274.401 172.146 273.225C173.255 271.762 175.147 270.531 175.792 269.598C178.042 266.317 174.523 269.405 176.953 265.52C178.185 263.549 179.482 263.994 179.576 261.543C177.433 261.601 174.53 264.431 171.973 265.312C173.479 260.982 180.379 254.783 180.587 250.648C176.867 251.25 176.717 253.472 173.456 255.156C175.084 251.128 180.201 246.062 180.765 242.651L176.407 244.206C177.776 240.795 181.423 236.036 182.04 233.354C178.134 233.763 180.018 234.573 176.557 235.67C177.926 231.864 180.491 230.254 181.214 226.777C177.215 226.805 178.964 228.13 175.279 229.007C176.305 225.659 181.184 221.353 180.94 218.65L175.114 220.971C176.77 215.26 180.569 213.596 181.75 209.863C178.517 209.95 177.55 212.464 173.68 213.347C174.797 209.993 180.346 203.501 180.259 201.45C177.809 201.521 177.522 203.192 174.203 204.152C175.191 198.425 178.962 197.186 180.374 192.698C176.884 192.112 176.818 193.587 173.207 194.232C174.785 189.417 180.72 184.879 181.814 181.512C178.774 181.339 178.373 182.586 175.028 183.046C176.877 178.637 181.011 178.767 182.496 174.927C178.047 175.135 178.728 177.815 174.205 177.893C175.853 175.097 178.453 171.788 178.771 168.771L172.313 170.29L179.881 161.368C176.498 161.046 173.745 163.999 170.571 164.901C171.732 161.267 176.232 160.149 178.21 157.01C177.113 156.172 175.937 156.279 174.167 156.802C176.402 154.709 175.579 156.299 176.318 153.384C171.465 152.818 166.284 157.384 163.605 161.132C162.071 163.268 161.893 163.504 158.897 163.598C161.535 159.786 168.301 158.366 168.872 153.671C165.324 154.308 163.719 156.444 161.002 158.536C159.448 159.732 158.996 159.925 157.289 160.786C157.152 160.857 155.032 161.812 155.032 161.812C151.268 162.508 154.006 162.292 152.754 161.36C155.649 160.157 160.824 156.995 161.675 154.072C157.942 154.745 151.212 159.806 147.005 162.041L152.716 157.239C149.562 155.362 144.259 161.231 141.07 162.112C142.876 159.324 146.38 158.75 148.379 154.824C143.627 155.138 139.112 160.578 134.345 162.241C136.473 159.044 138.888 159.92 139.683 156.329C134.716 157.261 131.112 162.307 125.98 163.425C127.915 161.261 132.982 157.698 133.784 156.172C129.756 156.474 126.353 160.286 121.838 162.186C123.572 159.649 124.225 160.997 125.472 157.434C121.465 157.914 116.98 161.477 113.252 163.339C114.636 160.786 115.56 161.675 116.749 158.694C112.477 159.095 110.943 162.584 106.506 164.393C108.277 160.545 111.387 161.518 112.017 157.698C109.122 157.757 106.197 158.795 103.568 158.551C99.147 158.15 100.036 158.63 96.7167 161.548C93.334 164.522 88.7195 168.657 83.9808 169.898C85.9591 164.789 92.8666 162.059 95.419 156.962C91.0408 157.183 87.5642 160.947 83.5595 162.3C85.3016 158.961 88.4684 159.448 89.6366 155.527C84.6845 155.913 77.7543 161.584 73.117 164.099C75.819 159.748 79.9101 159.167 81.2942 155.291C77.2234 155.83 75.3111 157.887 71.7686 158.839C74.3412 156.165 72.8581 157.851 74.3412 154.819C83.4787 154.697 92.8242 154.425 101.961 154.052C110.116 153.722 119.936 154.194 128.441 154.146C136.747 154.095 146.179 153.501 154.435 152.762C159.702 152.29 173.756 153.277 177.139 149.064C175.196 148.082 170.81 149.659 168.454 150.24C165.099 151.065 141.491 151.947 136.377 152.234C121.053 153.095 105.587 152.069 90.1723 152.635C81.6804 152.95 71.4813 154.011 63.0882 153.374C59.9849 153.138 61.1327 152.378 58.2148 152.8C54.6162 153.316 52.1885 154.369 48.1249 154.141L26.8255 153.94C23.5647 154.027 8.73646 156.284 7.05264 154.212C5.63303 151.317 5.10987 140.008 6.51426 136.669C12.6142 122.234 38.7435 128.456 50.5042 117.317C60.4869 107.873 62.2728 105.069 66.5798 91.2085C68.3296 85.5834 69.7187 79.8417 70.5288 73.9523C71.0316 70.275 71.0723 67.7532 71.2678 64.1621C71.4761 60.5356 70.7955 58.3795 71.405 55.0805C73.561 54.471 78.4419 56.9013 86.8857 57.2797C94.6111 57.6226 94.3751 58.4326 103.398 56.0836C108.924 54.6513 107.618 56.1116 113.073 52.9955C112.893 59.7256 113.797 64.2531 114.422 70.5742L109.183 70.4447L113.061 71.9278C109.005 74.8228 93.8033 75.1098 88.2571 76.4939C90.0424 78.5585 98.9484 77.3242 101.328 76.3999C105.312 74.8584 110.056 74.8457 114.587 73.4261C116.278 75.798 122.764 104.35 127.96 114.356C124.148 111.827 122.371 105.671 121.466 103.972C119.539 100.309 120.628 99.7787 119.712 96.4242C118.968 93.6789 118.206 94.2808 117.977 92.0308C117.777 90.0322 119.11 93.1914 117.891 90.403C112.215 88.5541 107.857 91.241 104.132 88.5263C107.621 88.0031 115.542 87.9828 117.848 85.7455C116.451 84.176 115.296 84.5976 113.333 84.0465C112.746 84.849 113.211 84.2751 113.714 85.3569C113.729 85.3925 113.815 85.5651 113.828 85.5931C113.843 85.6134 113.95 85.7353 113.934 85.8216C99.5583 87.5841 84.0996 89.283 70.8488 95.4311C64.8859 98.2043 61.3382 109.257 57.7397 114.66C54.3139 119.798 44.0442 124.379 37.9389 126.536C34.8077 127.64 12.2896 129.875 8.78476 139.578C7.91113 142.014 6.11821 146.265 8.30479 147.87C10.1968 146.803 9.58729 142.093 11.982 138.144C14.1686 134.532 16.6116 134.253 20.2886 132.582C26.1931 129.888 32.7528 129.141 41.6745 126.246C50.6189 123.343 53.0919 123.249 59.1108 116.027C63.0166 111.346 65.848 103.326 69.7234 98.9712C73.8146 98.2906 77.9085 99.7737 81.8931 100.627C86.1366 101.536 90.9746 101.366 94.3494 102.153C103.759 104.347 113.379 98.6487 117.477 99.3725C118.394 102.369 118.66 101.414 116.58 102.963C119.963 104.426 118.201 102.704 119.255 105.114L105.229 109.378C108.231 108.962 118.114 104.848 119.9 107.507C120.702 108.71 119.793 108.654 119.112 109.442C118.038 110.689 121.055 108.317 118.373 110.158C117.535 110.724 114.366 111.699 113.236 112.058C109.394 113.284 104.07 113.69 101.376 114.567C104.574 117.576 116.405 112.202 120.611 111.306C121.035 114.267 120.875 110.453 119.427 113.155C122.036 113.249 123.828 112.781 125.627 114.165C123.75 118.201 104.836 117.568 102.149 120.144C109.401 120.824 116.726 118.437 123.735 117.299C125.784 116.969 127.455 118.038 129.611 118.904C126.559 120.545 118.28 122.574 114.338 123.153C111.357 123.597 110.59 122.422 109.099 123.633C113.356 127.948 129.21 121.317 132.255 123.338C128.448 124.7 121.088 125.588 118.209 127.953C120.073 129.487 131.523 124.979 135.072 124.507C130.958 128.384 122.151 129.502 117.749 133.227C121.612 135.178 133.88 126.089 139.056 124.928L145.184 122.993C142.223 122.111 132.837 117.396 131.711 114.851C134.721 113.741 138.842 118.62 141.745 119.933C152.567 124.821 172.205 123.602 179.127 133.357C186.553 143.807 182.152 180.45 183.254 194.56C184.021 204.248 183.168 218.096 183.018 228.214C182.932 233.568 184.135 238.756 184.006 244.046C183.864 249.836 183.798 255.39 184.1 261.196C184.372 266.485 184.186 272.453 183.597 277.687C182.464 287.642 184.872 299.525 181.403 309.528C179.775 314.221 176.344 315.656 174.078 319.291C167.564 316.251 162.11 316.825 160.075 315.42C164.253 314.976 172.344 316.172 174.802 312.647C173.174 310.57 171.356 310.547 168.733 310.727C170.294 311.738 171.384 311.631 171.427 312.69C167.148 314.862 149.097 313.478 144.983 315.291C146.064 317.325 153.266 316.302 157.317 316.738C161.726 317.211 165.845 317.879 170.038 319.09C164.405 323.57 162.155 318.709 157.876 320.243L153.785 320.845C152.975 317.003 155.011 320.708 154.981 317.734C153.239 317.269 152.058 317.82 150.666 319.052L151.634 322.069C143.055 322.864 143.964 323.94 141.026 324.263C137.958 324.606 132.239 323.991 128.557 324.169C124.222 324.377 122.358 324.893 117.835 324.52C113.929 324.197 109.666 324.276 107.164 323.372C107.057 323.336 106.849 323.257 106.704 323.163C108.238 319.73 109.922 320.885 111.928 318.483C109.851 318.541 108.639 318.892 106.874 320.116C103.027 322.803 106.659 320.982 104.035 323.9C101.298 323.841 101.298 324.395 99.1618 323.196C99.6697 319.405 100.645 321.764 103.146 319.24C99.304 317.14 98.1231 323.539 93.3639 323.862C87.3934 324.263 86.4414 321.663 92.1094 319.24C92.0383 319.181 91.3424 316.868 87.909 319.578C85.5218 321.462 87.0481 321.729 85.5574 323.928L74.3278 324.035C75.5315 320.538 78.3352 321.325 80.8647 319.24C78.2566 317.82 73.8837 321.368 72.5581 323.854L67.2683 323.991L70.8947 320.05C65.9146 317.856 68.637 325.576 60.1729 324.019C61.0769 320.515 61.4426 322.399 63.5048 319.898C60.6605 318.379 59.0174 322.478 57.1838 324.311L51.4064 324.131C52.2723 321.107 53.2704 322.511 54.9694 320.032C48.4324 319.265 53.6005 325.457 42.957 324.189C44.369 323.151 44.9506 322.392 45.1791 320.721C39.8182 321.373 42.792 324.819 35.4325 324.532C19.8243 323.915 25.1547 322.425 19.6163 319.215C17.0869 317.752 17.3383 317.158 15.7384 315.789C12.2541 312.815 14.4763 316.398 10.4562 310.55C9.1026 308.587 9.93301 310.176 8.50579 308.536C4.90722 304.394 3.67557 289.99 2.8934 284.255L5.96881 281.868C7.33765 280.326 6.77893 280.204 8.84867 279.072C7.56617 282.419 4.93525 285.644 5.25778 289.298C8.22397 288.567 9.86702 283.996 12.8837 282.304C11.7359 285.407 9.87437 286.596 10.5626 289.923C13.737 289.522 15.149 285.982 18.5598 284.153C17.6506 287.155 16.4875 287.571 16.3376 290.868C19.5476 290.53 19.9489 287.658 23.225 285.809C22.3006 288.031 21.1757 289.486 20.236 291.67C16.673 292.051 7.98764 290.517 5.78112 292.186C6.76899 294.608 5.45099 292.701 8.29022 294.164C8.148 298.88 10.5123 307.71 14.2886 310.59L14.3068 310.605ZM87.5498 23.2044C85.2413 23.8697 84.3246 23.8215 83.4865 25.7135C89.4214 28.4079 111.896 19.4281 117.105 15.2153L115.363 14.0902L117.778 11.9697L119.233 45.4966C116.818 47.8533 106.348 52.3684 102.736 52.5641C105.581 51.0581 112.354 49.3617 112.978 45.9712L106.886 45.8645C108.664 44.2519 110.147 44.0716 112.684 43.0126C111.902 41.2425 112.826 42.6622 110.606 40.6966L109.702 39.9728C112.613 38.9773 115.206 38.124 116.008 35.107L110.01 35.7241C113.176 37.065 111.996 34.82 112.326 37.2656C105.647 40.5417 98.9247 44.2824 91.7226 45.8947C98.5944 46.489 103.814 41.6867 110.657 41.4074C108.865 43.9647 91.4866 48.0432 88.9063 50.1229C93.5283 52.4745 104.336 42.7707 109.926 47.558L93.1347 55.0396C94.9048 55.6923 96.2659 54.0365 98.1224 55.5831C93.5004 56.8579 92.4388 55.4612 90.8618 55.3901C88.0023 55.2529 86.0747 56.8731 76.5207 53.8359C65.8294 50.4456 64.5747 52.7693 64.6176 40.836C66.5172 42.3699 66.6391 42.6213 69.0821 42.9794C68.0079 39.137 65.1179 40.7928 65.1052 36.9378C67.3476 35.7061 65.5343 36.8311 67.9647 37.1308C68.5081 33.1463 66.1159 35.6909 64.8614 32.5647L65.3413 27.8768C65.4912 27.8336 65.6994 27.7625 65.8645 27.7269C66.0372 27.6914 66.2581 27.6634 66.4232 27.633C66.4308 27.633 68.1577 27.633 68.2441 27.6253C67.3832 24.9867 67.4137 27.1657 66.7102 24.6795C64.0005 15.1487 64.3383 23.6408 64.5033 13.4265L67.5356 15.8213C65.801 16.4029 65.537 14.5033 65.1789 17.7996C67.5787 18.5945 68.5895 17.312 70.1158 16.9184C74.3517 15.8137 85.8026 22.6806 114.035 14.6404C108.359 19.8287 95.1865 24.3084 87.5553 25.1971C87.0246 23.8359 88.1064 24.4378 87.5553 23.2112L87.5498 23.2044ZM101.06 3.28914C103.231 2.4079 107.518 3.34755 109.532 4.60714C106.715 5.97597 107.089 5.03632 105.088 4.22113C103.18 3.44657 102.759 4.04085 101.06 3.28914ZM67.2685 12.5202C68.2361 5.79797 88.9768 1.12553 92.8392 2.8243L80.5551 5.64064L80.2529 9.07407C85.8221 8.85821 87.1683 6.17901 91.4474 6.77322C93.4104 7.04495 91.742 6.43038 93.2454 7.35477L86.96 8.50771C87.5034 10.1203 85.9137 10.1406 89.7916 9.64796C92.867 9.25433 94.0707 8.08617 101.372 7.72808C98.4257 10.0721 95.9598 8.13694 93.4739 10.5444C94.7131 11.6415 92.9355 12.1215 99.2361 10.4022C100.971 9.92984 102.921 9.61496 104.727 9.2416C108.18 8.53309 113.12 6.91285 116.129 8.44669C117.762 12.3677 111.558 13.7925 108.317 14.115C110.174 12.5659 112.365 11.9869 113.462 10.5469C110.387 8.36796 96.7497 12.2179 95.216 13.8432C96.0337 14.4299 95.503 14.2166 96.6356 14.6254C98.233 15.212 99.4012 14.8057 101.293 14.4679C103.688 14.0515 106.06 13.7949 108.483 13.5359C106.497 15.7149 108.684 14.1226 106.017 15.212C99.8383 17.7211 72.7131 17.5687 67.2663 12.5252L67.2685 12.5202ZM69.3256 54.316C69.3535 60.1849 68.4088 73.4518 67.2254 79.2138C65.6915 86.6597 63.3475 93.5192 60.8612 100.663C58.1871 108.38 54.7765 111.133 48.6129 116.078C41.2658 121.982 37.1675 121.832 28.238 123.417C8.00552 127.008 1.95872 130.627 1.99447 152.32C2.02241 170.416 1.87258 187.099 1.05485 205.097C0.402191 219.273 1.20468 230.266 1.19199 244.076C1.19199 248.685 0.145677 252.348 0.432642 257.277C0.696755 261.642 1.55008 265.871 0.775481 270.221C-0.30639 276.283 -0.242871 275.904 0.882142 281.903C2.35253 289.765 1.7786 298.034 4.60768 305.884C7.00754 312.528 12.9273 316.012 17.867 320.311C27.0324 328.303 40.6063 325.55 53.9514 325.542C56.2014 325.542 57.6566 325.928 59.7415 325.872C63.4899 325.766 62.53 326.109 65.3387 326.454C67.2028 326.683 66.7659 325.471 69.7042 325.301C72.2615 325.159 73.0716 326.096 76.0606 325.71C81.6222 324.994 84.6241 324.979 90.1859 324.9C98.6576 324.77 108.496 325.23 116.961 325.966C126.169 326.769 159.826 325.342 169.069 323.493C176.551 322.002 180.873 317.302 183.395 310.183C186.247 302.12 185.731 293.714 185.388 285.344C185.208 280.9 186.049 276.745 185.998 272.408L185.84 244.678C186.005 240.501 185.053 235.978 184.979 231.521C184.83 222.277 184.842 212.386 185.231 203.154C185.439 198.218 184.873 194.604 184.723 189.903C184.322 177.878 188.687 136.798 178.166 128.39C167.523 119.883 152.323 123.989 136.598 113.892C131.882 110.86 132.614 111.477 129.84 106.783C128.085 103.81 125.211 102.248 123.842 98.8928C120.317 90.2864 113.879 60.3346 115.507 51.6724C121.053 48.4827 120.767 52.3022 121.47 47.8249L120 15.8037C119.979 10.3132 121.14 11.9131 118.659 7.19739C116.315 2.73287 115.949 4.39627 111.736 2.92589C97.7891 -1.91955 86.854 -0.256144 73.4095 4.33789C67.4034 6.38727 62.0934 9.62775 62.3372 16.449C62.5582 22.8335 63.2413 32.7249 62.8604 38.7743C62.6445 42.2001 62.5226 45.3236 63.1905 48.7498C63.9219 52.5566 66.431 52.6988 69.326 54.319L69.3256 54.316Z" fill="black"/>
<path fill-rule="evenodd" clip-rule="evenodd" d="M171.249 141.133C172.755 140.351 172.839 140.272 174.632 141.168C172.524 141.829 173.227 141.963 171.249 141.133ZM137.25 130.741C140.848 128.425 144.231 126.269 148.035 128.483L137.25 130.741ZM148.99 127.28C150.064 126.693 150.001 126.536 151.842 126.95C150.087 128.176 151.255 128.433 148.99 127.28ZM125.426 134.332C128.816 135.084 128.064 134.375 130.815 133.558C133.71 132.692 133.839 133.342 136.915 133.098C143.258 132.603 145.12 129.987 147.601 131.234C143.876 133.027 141.725 131.442 138.924 133.873C143.294 136.725 155.098 129.063 161.98 132.677C157.61 135.465 146.012 134.469 143.627 137.177C147.792 138.97 167.758 132.798 173.241 135.198C170.28 137.263 158.161 138.116 154.931 139.813C156.764 141.532 157.024 140.643 162.794 140.285C165.468 140.12 168.096 139.381 169.574 141.029C168.843 142.555 168.465 142.713 164.709 143.058C162.387 143.274 160.323 142.786 159.132 144.427C161.189 145.646 168.033 144.851 170.935 144.958C168.17 147.365 162.035 147.18 158.479 149.044C159.726 149.948 177.292 146.766 178.481 145.087L173.32 143.683C175.779 142.586 177.49 143.038 179.664 141.131C178.311 139.483 176.553 139.754 174.138 139.561C173.049 139.483 171.637 139.447 170.613 139.353L167.352 138.551C170.649 137.547 177.193 137.598 178.676 134.487L167.56 133.634C169.595 133.06 170.9 133.398 171.895 131.191C168.419 129.929 162.456 130.94 160.3 129.916C162.255 128.646 162.608 129.637 163.195 127.516C159.454 126.828 161.933 128.177 158.672 126.757C152.709 124.161 154.845 126.226 150.2 125.69C147.262 125.347 151.506 126.142 148.202 124.07C145.479 124.951 144.095 124.22 142.102 125.812C140.461 127.123 142.919 126.335 136.847 129.093C134.531 130.147 126.499 133.121 125.43 134.332L125.426 134.332Z" fill="black"/>
<path fill-rule="evenodd" clip-rule="evenodd" d="M150.754 265.664C149.448 262.777 126.194 237.47 120.861 231.845C117.821 228.635 118.639 228.211 116.633 225.508L76.0987 180.286C74.1712 177.864 73.0589 174.882 70.4863 174.87C70.9155 178.76 106.921 217.461 110.096 220.838C112.818 223.725 113.098 222.773 114.855 226.694C115.83 228.888 117.549 230.793 119.434 232.606C125.633 238.569 146.724 263.96 150.751 265.666L150.754 265.664Z" fill="black"/>
<path fill-rule="evenodd" clip-rule="evenodd" d="M82.243 255.977C80.4933 252.531 76.8896 249.971 74.4467 247.241C72.4405 245.011 69.4946 240.381 67.4221 237.758C64.9436 234.619 62.3405 232.003 59.7832 228.9C57.3326 225.939 57.5687 227.194 55.4482 225.375C54.0869 224.207 24.7324 189.197 19.666 186.16C20.4609 190.954 30.9749 199.548 34.7385 203.825L65.4698 239.064C68.5299 242.505 78.7135 255.411 82.2463 255.977L82.243 255.977Z" fill="black"/>
<path fill-rule="evenodd" clip-rule="evenodd" d="M76.6353 262.816C76.5413 259.485 50.9353 233.104 48.0325 230.115C43.4816 225.434 20.9126 199.076 16.6211 199.447C16.8725 202.291 17.6318 201.26 19.8666 202.865C21.0932 203.746 22.6551 205.544 23.8664 206.771L46.715 230.78C49.7548 234.163 75.1296 262.644 76.6353 262.816Z" fill="black"/>
<path fill-rule="evenodd" clip-rule="evenodd" d="M69.8543 267.127C69.3947 265.128 58.1092 255.122 55.7648 252.715C51.0057 247.821 46.5617 242.674 41.6045 237.858L20.8363 215.076C19.7544 213.837 18.1139 212.554 17.3165 211.363C15.841 209.149 16.613 208.146 13.8906 207.973C14.17 211.312 62.9038 263.968 69.8543 267.127Z" fill="black"/>
<path fill-rule="evenodd" clip-rule="evenodd" d="M103.133 232.872C103.298 232.966 103.57 232.879 103.656 233.108L106.737 234.748C112.219 239.607 129.003 259.115 134.423 265.129L142.171 273.199C144.106 275.198 143.433 275.363 145.998 274.82C145.467 273.509 136.916 265.746 134.954 263.252C128.41 254.925 119.331 246.318 112.601 238.786C109.977 235.863 104.675 227.891 100.934 227.104C100.906 229.42 102.232 230.293 103.133 232.874L103.133 232.872Z" fill="black"/>
<path fill-rule="evenodd" clip-rule="evenodd" d="M169.412 226.839C168.059 224.459 159.968 218.118 157.43 215.058C155.523 212.757 154.678 209.991 152.679 207.898C149.439 204.516 152.199 210.227 145.87 204.193C141.929 200.43 138.239 196.087 134.373 191.953C132.324 189.759 124.69 180.357 123.085 179.382C122.103 183.036 130.287 189.228 132.761 192.232C136.065 196.24 146.106 207.297 150.779 209.819C154.126 211.624 161.058 224.037 169.412 226.839Z" fill="black"/>
<path fill-rule="evenodd" clip-rule="evenodd" d="M133.056 232.742L93.975 190.12C93.1572 189.066 92.1338 187.898 91.3516 186.796C89.8177 184.609 90.8005 184.546 88.4134 184.267C88.134 188.467 106.152 205.015 109.57 209.479C112.925 213.865 128.805 230.979 133.056 232.742Z" fill="black"/>
<path fill-rule="evenodd" clip-rule="evenodd" d="M141.642 225.46L120.866 204.126C117.554 200.492 102.54 183.858 99.9395 182.504C100.455 185.937 116.215 201.884 119.697 205.286C123.961 209.456 136.567 224.529 141.642 225.46Z" fill="black"/>
<path fill-rule="evenodd" clip-rule="evenodd" d="M103.327 226.11L63.2076 179.312C61.7017 177.283 59.1799 173.664 56.7012 173.6C57.6484 175.406 58.0903 174.918 59.3169 176.661L79.0696 200.418C83.0617 204.969 99.4874 224.384 103.33 226.111L103.327 226.11Z" fill="black"/>
<path fill-rule="evenodd" clip-rule="evenodd" d="M169.127 215.539L159.911 203.385C158.723 200.813 160.213 200.998 157.595 197.847L156.828 199.932C149.512 197.638 134.94 178.325 130.16 177.787C130.211 179.306 130.224 179.219 131.128 180.667C134.231 185.642 130.711 178.602 138.924 186.736C141.398 189.179 146.428 194.375 149.044 196.404C151.746 198.505 158.26 202.776 160.002 205.242C162.023 208.094 166.028 215.009 169.124 215.54L169.127 215.539Z" fill="black"/>
<path fill-rule="evenodd" clip-rule="evenodd" d="M143.533 172.677C142.436 175.265 145.547 179.772 147.545 182L145.681 176.832C152.36 180.194 164.164 200.703 169.855 200.325C169.104 195.853 166.493 197.529 163.212 193.453L150.189 178.77C148.419 176.964 145.732 172.17 143.531 172.677L143.533 172.677Z" fill="black"/>
<path fill-rule="evenodd" clip-rule="evenodd" d="M159.581 262.608C156.579 256.795 142.475 245.632 137.02 240.075C135.793 238.828 130.183 233.266 129.271 233.008C129.574 236.977 140.524 244.796 143.683 247.935C146.85 251.074 156.663 260.943 159.578 262.606L159.581 262.608Z" fill="black"/>
<path fill-rule="evenodd" clip-rule="evenodd" d="M169.704 304.06C172.22 304.992 172.713 303.875 175.644 306.039C170.841 309.343 150.395 309.866 148.024 310.404C147.96 312.646 149.53 311.328 147.193 313.083C149.329 312.997 151.371 311.664 154.825 311.356C159.312 310.955 176.124 309.665 178.567 306.039C176.954 302.951 169.866 303.954 169.701 304.06H169.704Z" fill="black"/>
<path fill-rule="evenodd" clip-rule="evenodd" d="M67.5905 306.303C76.126 305.559 92.5442 310.905 99.5174 310.036C96.3709 306.76 87.6423 307.499 83.3482 306.933C78.5764 306.308 71.1226 301.486 67.5879 306.303L67.5905 306.303Z" fill="black"/>
<path fill-rule="evenodd" clip-rule="evenodd" d="M150.305 297.455C153.185 298.753 162.36 297.727 165.857 297.133C172.795 295.949 179.423 296.574 180.535 294.616C176.838 293.389 169.641 295.175 165.549 295.662C160.267 296.287 151.661 295.682 150.307 297.455H150.305Z" fill="black"/>
<path fill-rule="evenodd" clip-rule="evenodd" d="M110.02 32.2391L92.8983 38.9334C89.4572 40.0153 88.2687 38.4813 86.4199 40.8685C89.0433 42.3008 112.801 34.3114 114.477 31.6374L109.989 31.0787C109.293 32.506 109.773 30.9365 109.86 31.7746C110.076 33.8672 110.505 30.3854 110.017 32.2393L110.02 32.2391Z" fill="black"/>
<path fill-rule="evenodd" clip-rule="evenodd" d="M111.676 79.3906C107.842 79.9289 91.9541 80.8609 90.3418 83.0805C92.2261 83.8475 113.096 80.9245 115.295 79.7842C114.3 77.3183 110.293 77.2396 107.562 77.3691C110.485 78.5525 109.281 76.4954 111.676 79.3906Z" fill="black"/>
<path fill-rule="evenodd" clip-rule="evenodd" d="M177.292 300.101C173.106 297.627 160.78 300.766 154.659 301.871C147.816 303.103 149.283 301.929 148.158 304.058L177.292 300.101Z" fill="black"/>
<path fill-rule="evenodd" clip-rule="evenodd" d="M84.8327 34.2303C88.9467 37.999 114.231 30.4388 115.139 25.0857C112.064 26.0177 105.687 29.7585 101.746 31.3355C96.6082 33.4002 90.4016 35.1906 84.832 34.2306L84.8327 34.2303Z" fill="black"/>
<path fill-rule="evenodd" clip-rule="evenodd" d="M83.9536 70.9129C91.3845 72.9344 97.5353 70.7047 105.402 70.3542C108.211 70.2247 106.233 70.6615 108.254 69.4578C110.654 68.0306 109.844 69.1276 110.662 67.2509C108.706 66.3976 107.967 67.7588 105.258 68.5055C103 69.1302 100.405 69.4095 98.0556 69.8743C91.4907 71.1644 84.8828 70.1029 83.9512 70.913L83.9536 70.9129Z" fill="black"/>
<path fill-rule="evenodd" clip-rule="evenodd" d="M87.7773 59.9973C90.1848 62.3616 102.425 59.2227 107.37 58.1332C110.222 57.5034 111.563 57.2292 112.137 54.6921C109.506 55.4159 109.966 56.3555 107.142 57.0082L94.8145 59.3725C91.4471 59.8677 89.7682 58.5345 87.7773 59.9973Z" fill="black"/>
<path fill-rule="evenodd" clip-rule="evenodd" d="M87.0742 30.0683L103.157 27.4094C106.568 26.3986 114.237 23.8769 116.314 21.1875C112.845 21.2383 106.748 25.0425 102.603 26.3047L87.0742 30.0683Z" fill="black"/>
<path fill-rule="evenodd" clip-rule="evenodd" d="M35.5199 310.652C32.1805 309.398 30.2732 312.123 21.3947 310.086C17.2095 309.126 18.3422 309.992 17.4609 310.911C22.7508 311.864 31.2936 314.424 35.522 310.652L35.5199 310.652Z" fill="black"/>
<path fill-rule="evenodd" clip-rule="evenodd" d="M133.862 285.571C135.726 284.108 136.829 282.998 137.804 280.784C129.812 281.622 128.824 295.719 136.085 286.251C134.566 285.434 136.278 286.389 134.975 286.066C133.929 285.807 134.767 286.239 133.865 285.571L133.862 285.571Z" fill="black"/>
<path fill-rule="evenodd" clip-rule="evenodd" d="M136.375 321.932C141.421 319.581 132.418 321.846 143.125 317.389C142.122 316.63 143.145 315.799 140.006 316.845C137.878 317.554 133.383 319.497 136.372 321.935L136.375 321.932Z" fill="black"/>
<path fill-rule="evenodd" clip-rule="evenodd" d="M44.1738 309.333C46.1598 310.43 52.8159 308.502 55.025 307.354C53.0188 305.942 46.34 307.842 44.1738 309.333Z" fill="black"/>
<path fill-rule="evenodd" clip-rule="evenodd" d="M126.684 322.946C129.048 322.573 128.274 321.534 130.575 319.993C132.137 318.946 133.792 318.286 135.176 317.248C134.209 316.74 135.133 315.95 132.396 317.176C130.031 318.243 126.633 320.358 126.684 322.946Z" fill="black"/>
<path fill-rule="evenodd" clip-rule="evenodd" d="M88.6992 67.3438C92.3688 67.1228 109.582 64.1338 111.367 62.0767L88.6992 67.3438Z" fill="black"/>
<path fill-rule="evenodd" clip-rule="evenodd" d="M125.684 313.253C124.057 312.758 122.281 312.636 120.539 312.466C115.006 311.899 116.684 312.638 115.895 313.362C117.807 313.771 119.249 313.85 121.205 314C123.907 314.208 124.064 314.723 125.684 313.256V313.253Z" fill="black"/>
<path fill-rule="evenodd" clip-rule="evenodd" d="M101.199 309.84C103.02 311.381 102.761 310.901 105.407 311.272C107.228 311.524 107.436 312.039 108.912 311.308C107.236 308.999 103.995 309.703 101.199 309.837L101.199 309.84Z" fill="black"/>
<path fill-rule="evenodd" clip-rule="evenodd" d="M56.4355 306.693C57.8754 307.712 58.2133 307.359 58.5002 307.381C62.5711 307.61 63.0587 306.099 63.4447 305.761C60.6207 305.589 58.7718 305.223 56.4355 306.693Z" fill="black"/>
<path fill-rule="evenodd" clip-rule="evenodd" d="M119.092 321.9C122.868 321.562 119.917 322.128 122.266 320.224C123.729 319.035 122.81 320.46 124.229 318.748C120.839 318.662 119.336 318.512 119.092 321.902V321.9Z" fill="black"/>
<path fill-rule="evenodd" clip-rule="evenodd" d="M65.7694 44.8227C65.9979 45.5668 65.01 46.0976 67.2677 46.7223C70.1628 47.5249 69.6244 46.3287 69.9342 46.1408C68.1794 44.772 67.5902 43.911 65.7694 44.8227Z" fill="black"/>
<path fill-rule="evenodd" clip-rule="evenodd" d="M66.1377 31.3581L68.9185 32.5415L67.2068 28.3488C65.5866 29.7023 65.7009 29.1665 66.1402 31.3581H66.1377Z" fill="black"/>
<path fill-rule="evenodd" clip-rule="evenodd" d="M134.689 314.098C136.409 315.769 138.537 315.459 140.101 314.019L134.689 314.098Z" fill="black"/>
</g>
</svg>
