<svg width="40" height="40" viewBox="0 0 40 40" fill="none" xmlns="http://www.w3.org/2000/svg">
<path d="M40.0001 20.1225C40.0001 9.0075 31.0451 -0.00250244 20.0001 -0.00250244C8.95012 -2.44123e-06 -0.00488281 9.0075 -0.00488281 20.125C-0.00488281 30.1675 7.31012 38.4925 16.8701 40.0025V25.94H11.7951V20.125H16.8751V15.6875C16.8751 10.645 19.8626 7.86 24.4301 7.86C26.6201 7.86 28.9076 8.2525 28.9076 8.2525V13.2025H26.3851C23.9026 13.2025 23.1276 14.755 23.1276 16.3475V20.1225H28.6726L27.7876 25.9375H23.1251V40C32.6851 38.49 40.0001 30.165 40.0001 20.1225Z" fill="#F8F8F8"/>
</svg>
