<svg width="25" height="35" viewBox="0 0 25 35" fill="none" xmlns="http://www.w3.org/2000/svg">
<path d="M12.5 0C13.9208 0 15.2834 0.582235 16.2881 1.61862C17.2927 2.65501 17.8571 4.06065 17.8571 5.52632V16.5789C17.8571 18.0446 17.2927 19.4503 16.2881 20.4866C15.2834 21.523 13.9208 22.1053 12.5 22.1053C11.0792 22.1053 9.71659 21.523 8.71193 20.4866C7.70727 19.4503 7.14286 18.0446 7.14286 16.5789V5.52632C7.14286 4.06065 7.70727 2.65501 8.71193 1.61862C9.71659 0.582235 11.0792 0 12.5 0ZM25 16.5789C25 23.0816 20.3393 28.4421 14.2857 29.3447V35H10.7143V29.3447C4.66071 28.4421 0 23.0816 0 16.5789H3.57143C3.57143 19.0217 4.51211 21.3645 6.18655 23.0918C7.86098 24.8191 10.132 25.7895 12.5 25.7895C14.868 25.7895 17.139 24.8191 18.8135 23.0918C20.4879 21.3645 21.4286 19.0217 21.4286 16.5789H25Z" fill="white"/>
</svg>
