<svg width="35" height="35" viewBox="0 0 35 35" fill="none" xmlns="http://www.w3.org/2000/svg">
<path d="M31.1111 16.5789C31.1111 18.7711 30.45 20.8158 29.3611 22.6211L26.9694 20.3553C27.4944 19.2132 27.8056 17.9421 27.8056 16.5789H31.1111ZM23.3333 16.8737L11.6667 5.85789V5.52632C11.6667 4.06065 12.2812 2.65501 13.3752 1.61862C14.4692 0.582235 15.9529 0 17.5 0C19.0471 0 20.5308 0.582235 21.6248 1.61862C22.7188 2.65501 23.3333 4.06065 23.3333 5.52632V16.8737ZM2.46944 1.84211L35 32.6605L32.5306 35L24.3833 27.2816C22.8861 28.1289 21.2139 28.7 19.4444 28.9579V35H15.5556V28.9579C9.17778 28.0553 3.88889 22.8605 3.88889 16.5789H7.19444C7.19444 22.1053 12.1333 25.9737 17.5 25.9737C19.075 25.9737 20.6111 25.6237 21.9917 25.0158L18.7639 21.9579L17.5 22.1053C15.9529 22.1053 14.4692 21.523 13.3752 20.4866C12.2812 19.4503 11.6667 18.0446 11.6667 16.5789V15.2526L0 4.18158L2.46944 1.84211Z" fill="white"/>
</svg>
